<?xml version="1.0" encoding="UTF-8"?>
<svg width="122px" height="105px" viewBox="0 0 122 105" version="1.1" xmlns="http://www.w3.org/2000/svg" xmlns:xlink="http://www.w3.org/1999/xlink" xmlns:sketch="http://www.bohemiancoding.com/sketch/ns">
    <!-- Generator: Sketch 3.3.3 (12081) - http://www.bohemiancoding.com/sketch -->
    <title>Imported Layers</title>
    <desc>Created with Sketch.</desc>
    <defs></defs>
    <g id="Page-1" stroke="none" stroke-width="1" fill="none" fill-rule="evenodd" sketch:type="MSPage">
        <g id="Imported-Layers" sketch:type="MSLayerGroup">
            <path d="M107.5857,58.4101143 C107.5857,83.4994143 87.2474286,103.838557 62.1581286,103.838557 C37.0688286,103.838557 16.7296857,83.4994143 16.7296857,58.4101143 C16.7296857,33.3208143 37.0688286,12.9825429 62.1581286,12.9825429 C87.2474286,12.9825429 107.5857,33.3208143 107.5857,58.4101143" id="Fill-1" fill="#D3E0E5" sketch:type="MSShapeGroup"></path>
            <path d="M88.1493571,9.33997143 C88.1493571,9.89507143 87.6997,10.3447286 87.1446,10.3447286 C86.5895,10.3447286 86.1389714,9.89507143 86.1389714,9.33997143 C86.1389714,8.78487143 86.5895,8.33521429 87.1446,8.33521429 C87.6997,8.33521429 88.1493571,8.78487143 88.1493571,9.33997143" id="Fill-2" fill="#80949E" sketch:type="MSShapeGroup"></path>
            <path d="M16.1022571,26.5933857 C16.1022571,27.1484857 15.6526,27.5990143 15.0975,27.5990143 C14.5424,27.5990143 14.0927429,27.1484857 14.0927429,26.5933857 C14.0927429,26.0382857 14.5424,25.5886286 15.0975,25.5886286 C15.6526,25.5886286 16.1022571,26.0382857 16.1022571,26.5933857" id="Fill-3" fill="#80949E" sketch:type="MSShapeGroup"></path>
            <path d="M64.172,12.9825429 C64.172,13.8844714 63.4408714,14.6147286 62.5389429,14.6147286 C61.6378857,14.6147286 60.9067571,13.8844714 60.9067571,12.9825429 C60.9067571,12.0806143 61.6378857,11.3494857 62.5389429,11.3494857 C63.4408714,11.3494857 64.172,12.0806143 64.172,12.9825429" id="Fill-4" fill="#1DDB46" sketch:type="MSShapeGroup"></path>
            <path d="M18.3627429,58.4101143 C18.3627429,59.3120429 17.6316143,60.0431714 16.7296857,60.0431714 C15.8286286,60.0431714 15.0975,59.3120429 15.0975,58.4101143 C15.0975,57.5090571 15.8286286,56.7779286 16.7296857,56.7779286 C17.6316143,56.7779286 18.3627429,57.5090571 18.3627429,58.4101143" id="Fill-5" fill="#1DDB46" sketch:type="MSShapeGroup"></path>
            <path d="M109.218757,58.4101143 C109.218757,59.3120429 108.487629,60.0431714 107.5857,60.0431714 C106.683771,60.0431714 105.953514,59.3120429 105.953514,58.4101143 C105.953514,57.5090571 106.683771,56.7779286 107.5857,56.7779286 C108.487629,56.7779286 109.218757,57.5090571 109.218757,58.4101143" id="Fill-6" fill="#1DDB46" sketch:type="MSShapeGroup"></path>
            <path d="M10.2610714,37.4156571 L4.96452857,37.4156571 C4.77194286,37.4156571 4.61595714,37.2588 4.61595714,37.0670857 C4.61595714,36.8745 4.77194286,36.7185143 4.96452857,36.7185143 L10.2610714,36.7185143 C10.4536571,36.7185143 10.6105143,36.8745 10.6105143,37.0670857 C10.6105143,37.2588 10.4536571,37.4156571 10.2610714,37.4156571" id="Fill-7" fill="#1DDB46" sketch:type="MSShapeGroup"></path>
            <path d="M7.6128,40.0639286 C7.42108571,40.0639286 7.26422857,39.9070714 7.26422857,39.7153571 L7.26422857,34.4179429 C7.26422857,34.2253571 7.42108571,34.0693714 7.6128,34.0693714 C7.80538571,34.0693714 7.96224286,34.2253571 7.96224286,34.4179429 L7.96224286,39.7153571 C7.96224286,39.9070714 7.80538571,40.0639286 7.6128,40.0639286" id="Fill-8" fill="#1DDB46" sketch:type="MSShapeGroup"></path>
            <path d="M119.808357,75.6060143 L114.511814,75.6060143 C114.319229,75.6060143 114.163243,75.4500286 114.163243,75.2574429 C114.163243,75.0648571 114.319229,74.9088714 114.511814,74.9088714 L119.808357,74.9088714 C120.000943,74.9088714 120.1578,75.0648571 120.1578,75.2574429 C120.1578,75.4500286 120.000943,75.6060143 119.808357,75.6060143" id="Fill-9" fill="#1DDB46" sketch:type="MSShapeGroup"></path>
            <path d="M117.160086,78.2542857 C116.9675,78.2542857 116.811514,78.0983 116.811514,77.9057143 L116.811514,72.6091714 C116.811514,72.4165857 116.9675,72.2606 117.160086,72.2606 C117.352671,72.2606 117.508657,72.4165857 117.508657,72.6091714 L117.508657,77.9057143 C117.508657,78.0983 117.352671,78.2542857 117.160086,78.2542857" id="Fill-10" fill="#1DDB46" sketch:type="MSShapeGroup"></path>
            <path d="M44.2128,2.89052857 C44.0210857,2.89052857 43.8642286,2.73454286 43.8642286,2.54195714 L43.8642286,1.17904286 C43.8642286,0.987328571 44.0210857,0.831342857 44.2128,0.831342857 C44.4053857,0.831342857 44.5622429,0.987328571 44.5622429,1.17904286 L44.5622429,2.54195714 C44.5622429,2.73454286 44.4053857,2.89052857 44.2128,2.89052857" id="Fill-11" fill="#1DDB46" sketch:type="MSShapeGroup"></path>
            <path d="M44.2128,7.7226 C44.0210857,7.7226 43.8642286,7.56661429 43.8642286,7.37402857 L43.8642286,6.01111429 C43.8642286,5.8194 44.0210857,5.66341429 44.2128,5.66341429 C44.4053857,5.66341429 44.5622429,5.8194 44.5622429,6.01111429 L44.5622429,7.37402857 C44.5622429,7.56661429 44.4053857,7.7226 44.2128,7.7226" id="Fill-12" fill="#1DDB46" sketch:type="MSShapeGroup"></path>
            <path d="M47.3717286,4.68741429 L46.0096857,4.68741429 C45.8171,4.68741429 45.6602429,4.53142857 45.6602429,4.33884286 C45.6602429,4.14625714 45.8171,3.99027143 46.0096857,3.99027143 L47.3717286,3.99027143 C47.5643143,3.99027143 47.7211714,4.14625714 47.7211714,4.33884286 C47.7211714,4.53142857 47.5643143,4.68741429 47.3717286,4.68741429" id="Fill-13" fill="#1DDB46" sketch:type="MSShapeGroup"></path>
            <path d="M42.5091571,4.68741429 L41.1462429,4.68741429 C40.9536571,4.68741429 40.7968,4.53142857 40.7968,4.33884286 C40.7968,4.14625714 40.9536571,3.99027143 41.1462429,3.99027143 L42.5091571,3.99027143 C42.7017429,3.99027143 42.8577286,4.14625714 42.8577286,4.33884286 C42.8577286,4.53142857 42.7017429,4.68741429 42.5091571,4.68741429" id="Fill-14" fill="#1DDB46" sketch:type="MSShapeGroup"></path>
            <path d="M45.5277857,3.37242857 C45.4389,3.37242857 45.3491429,3.33844286 45.2811714,3.27047143 C45.1452286,3.13452857 45.1452286,2.91405714 45.2811714,2.77724286 L46.2441,1.81431429 C46.3809143,1.67837143 46.6013857,1.67837143 46.7382,1.81431429 C46.8741429,1.95025714 46.8741429,2.17072857 46.7382,2.30667143 L45.7744,3.27047143 C45.7064286,3.33844286 45.6175429,3.37242857 45.5277857,3.37242857" id="Fill-15" fill="#1DDB46" sketch:type="MSShapeGroup"></path>
            <path d="M46.4915857,6.84158571 C46.4018286,6.84158571 46.3120714,6.8076 46.2441,6.73962857 L45.2811714,5.77582857 C45.1452286,5.63988571 45.1452286,5.41941429 45.2811714,5.28347143 C45.4171143,5.14752857 45.6384571,5.14752857 45.7744,5.28347143 L46.7382,6.2464 C46.8741429,6.38321429 46.8741429,6.60368571 46.7382,6.73962857 C46.6702286,6.8076 46.5804714,6.84158571 46.4915857,6.84158571" id="Fill-16" fill="#1DDB46" sketch:type="MSShapeGroup"></path>
            <path d="M42.8891,3.37242857 C42.7993429,3.37242857 42.7104571,3.33844286 42.6424857,3.27047143 L41.6778143,2.30754286 C41.5418714,2.1716 41.5418714,1.95025714 41.6778143,1.81431429 C41.8137571,1.67837143 42.0351,1.67837143 42.1719143,1.81431429 L43.1357143,2.77724286 C43.2716571,2.91318571 43.2716571,3.13452857 43.1357143,3.27047143 C43.0677429,3.33844286 42.9779857,3.37242857 42.8891,3.37242857" id="Fill-17" fill="#1DDB46" sketch:type="MSShapeGroup"></path>
            <path d="M41.9244286,6.84158571 C41.8355429,6.84158571 41.7457857,6.8076 41.6778143,6.73962857 C41.5418714,6.60368571 41.5418714,6.38234286 41.6778143,6.2464 L42.6424857,5.2826 C42.7775571,5.14752857 42.9997714,5.14752857 43.1357143,5.28347143 C43.2716571,5.41941429 43.2716571,5.64075714 43.1357143,5.7767 L42.1719143,6.73962857 C42.1030714,6.8076 42.0141857,6.84158571 41.9244286,6.84158571" id="Fill-18" fill="#1DDB46" sketch:type="MSShapeGroup"></path>
            <path d="M96.0558286,10.8911143 C94.7382286,10.8911143 93.6663714,9.82012857 93.6663714,8.5034 C93.6663714,7.18667143 94.7382286,6.11568571 96.0558286,6.11568571 C97.3716857,6.11568571 98.4435429,7.18667143 98.4435429,8.5034 C98.4435429,9.82012857 97.3716857,10.8911143 96.0558286,10.8911143 L96.0558286,10.8911143 Z M96.0558286,6.81282857 C95.1225286,6.81282857 94.3643857,7.57097143 94.3643857,8.5034 C94.3643857,9.43582857 95.1225286,10.1939714 96.0558286,10.1939714 C96.9873857,10.1939714 97.7455286,9.43582857 97.7455286,8.5034 C97.7455286,7.57097143 96.9873857,6.81282857 96.0558286,6.81282857 L96.0558286,6.81282857 Z" id="Fill-19" fill="#1DDB46" sketch:type="MSShapeGroup"></path>
            <path d="M100.713614,17.4015571 L95.4162,17.4015571 C95.1756857,17.4015571 94.9804857,17.2072286 94.9804857,16.9658429 C94.9804857,16.7253286 95.1756857,16.5301286 95.4162,16.5301286 L100.713614,16.5301286 C100.954129,16.5301286 101.149329,16.7253286 101.149329,16.9658429 C101.149329,17.2072286 100.954129,17.4015571 100.713614,17.4015571" id="Fill-20" fill="#D2D9DB" sketch:type="MSShapeGroup"></path>
            <path d="M98.0653429,20.0507 C97.8248286,20.0507 97.6296286,19.8555 97.6296286,19.6149857 L97.6296286,14.3175714 C97.6296286,14.0770571 97.8248286,13.8818571 98.0653429,13.8818571 C98.3067286,13.8818571 98.5010571,14.0770571 98.5010571,14.3175714 L98.5010571,19.6149857 C98.5010571,19.8555 98.3067286,20.0507 98.0653429,20.0507" id="Fill-21" fill="#D2D9DB" sketch:type="MSShapeGroup"></path>
            <path d="M118.593586,63.6142857 C118.3522,63.6142857 118.157871,63.4190857 118.157871,63.1777 L118.157871,62.0779571 C118.157871,61.8374429 118.3522,61.6422429 118.593586,61.6422429 C118.8341,61.6422429 119.0293,61.8374429 119.0293,62.0779571 L119.0293,63.1777 C119.0293,63.4190857 118.8341,63.6142857 118.593586,63.6142857" id="Fill-22" fill="#D2D9DB" sketch:type="MSShapeGroup"></path>
            <path d="M118.593586,67.5139286 C118.3522,67.5139286 118.157871,67.3187286 118.157871,67.0782143 L118.157871,65.9784714 C118.157871,65.7370857 118.3522,65.5427571 118.593586,65.5427571 C118.8341,65.5427571 119.0293,65.7370857 119.0293,65.9784714 L119.0293,67.0782143 C119.0293,67.3187286 118.8341,67.5139286 118.593586,67.5139286" id="Fill-23" fill="#D2D9DB" sketch:type="MSShapeGroup"></path>
            <path d="M121.142514,65.0643429 L120.043643,65.0643429 C119.803129,65.0643429 119.607929,64.8691429 119.607929,64.6286286 C119.607929,64.3872429 119.803129,64.1929143 120.043643,64.1929143 L121.142514,64.1929143 C121.3839,64.1929143 121.578229,64.3872429 121.578229,64.6286286 C121.578229,64.8691429 121.3839,65.0643429 121.142514,65.0643429" id="Fill-24" fill="#D2D9DB" sketch:type="MSShapeGroup"></path>
            <path d="M117.218471,65.0643429 L116.118729,65.0643429 C115.878214,65.0643429 115.683014,64.8691429 115.683014,64.6286286 C115.683014,64.3872429 115.878214,64.1929143 116.118729,64.1929143 L117.218471,64.1929143 C117.458986,64.1929143 117.654186,64.3872429 117.654186,64.6286286 C117.654186,64.8691429 117.458986,65.0643429 117.218471,65.0643429" id="Fill-25" fill="#D2D9DB" sketch:type="MSShapeGroup"></path>
            <path d="M119.654986,64.0029429 C119.543443,64.0029429 119.4319,63.9602429 119.3465,63.8748429 C119.176571,63.7049143 119.176571,63.4295429 119.3465,63.2587429 L120.124686,62.4814286 C120.294614,62.3106286 120.569986,62.3106286 120.740786,62.4814286 C120.910714,62.6513571 120.910714,62.9267286 120.740786,63.0975286 L119.9626,63.8748429 C119.8772,63.9602429 119.765657,64.0029429 119.654986,64.0029429" id="Fill-26" fill="#D2D9DB" sketch:type="MSShapeGroup"></path>
            <path d="M120.4323,66.8028429 C120.320757,66.8028429 120.209214,66.7601429 120.124686,66.6756143 L119.3465,65.8974286 C119.176571,65.7275 119.176571,65.4512571 119.3465,65.2813286 C119.516429,65.1114 119.792671,65.1114 119.9626,65.2813286 L120.740786,66.0595143 C120.910714,66.2294429 120.910714,66.5048143 120.740786,66.6756143 C120.655386,66.7601429 120.543843,66.8028429 120.4323,66.8028429" id="Fill-27" fill="#D2D9DB" sketch:type="MSShapeGroup"></path>
            <path d="M117.524343,64.0029429 C117.4128,64.0029429 117.301257,63.9602429 117.216729,63.8748429 L116.438543,63.0975286 C116.268614,62.9267286 116.268614,62.6513571 116.438543,62.4814286 C116.608471,62.3106286 116.884714,62.3106286 117.054643,62.4814286 L117.832829,63.2587429 C118.002757,63.4295429 118.002757,63.7049143 117.832829,63.8748429 C117.747429,63.9602429 117.635886,64.0029429 117.524343,64.0029429" id="Fill-28" fill="#D2D9DB" sketch:type="MSShapeGroup"></path>
            <path d="M116.747029,66.8028429 C116.635486,66.8028429 116.523943,66.7601429 116.438543,66.6756143 C116.268614,66.5048143 116.268614,66.2294429 116.438543,66.0595143 L117.216729,65.2813286 C117.386657,65.1114 117.662029,65.1114 117.832829,65.2813286 C118.002757,65.4512571 118.002757,65.7275 117.832829,65.8974286 L117.054643,66.6756143 C116.970114,66.7601429 116.858571,66.8028429 116.747029,66.8028429" id="Fill-29" fill="#D2D9DB" sketch:type="MSShapeGroup"></path>
            <path d="M2.92538571,31.1073857 C1.56072857,31.1073857 0.450528571,29.9971857 0.450528571,28.6325286 C0.450528571,27.2678714 1.56072857,26.1585429 2.92538571,26.1585429 C4.29004286,26.1585429 5.40024286,27.2678714 5.40024286,28.6325286 C5.40024286,29.9971857 4.29004286,31.1073857 2.92538571,31.1073857 L2.92538571,31.1073857 Z M2.92538571,27.0299714 C2.04175714,27.0299714 1.32108571,27.7489 1.32108571,28.6325286 C1.32108571,29.5170286 2.04175714,30.2359571 2.92538571,30.2359571 C3.80988571,30.2359571 4.52881429,29.5170286 4.52881429,28.6325286 C4.52881429,27.7489 3.80988571,27.0299714 2.92538571,27.0299714 L2.92538571,27.0299714 Z" id="Fill-30" fill="#D2D9DB" sketch:type="MSShapeGroup"></path>
            <path d="M17.2821714,52.1846286 C17.2368571,52.1846286 17.1924143,52.1811429 17.1462286,52.1741714 C16.6713,52.0992286 16.3462571,51.6530571 16.4203286,51.1781286 C19.5173857,31.4324286 34.8493,15.9811286 54.5697286,12.7298286 C55.0516286,12.6522714 55.4943143,12.9738286 55.571,13.4478857 C55.6494286,13.9228143 55.3287429,14.3716 54.8538143,14.4491571 C35.8767143,17.5784571 21.1225571,32.4467714 18.1422714,51.4482714 C18.0743,51.8778857 17.7039429,52.1846286 17.2821714,52.1846286" id="Fill-31" fill="#80949E" sketch:type="MSShapeGroup"></path>
            <path d="M62.1581286,104.709986 C39.2055714,104.709986 19.4947286,87.596 16.3105286,64.9022571 C16.2434286,64.4264571 16.5754429,63.9855143 17.0521143,63.9184143 C17.5235571,63.8478286 17.9688571,64.1842 18.0359571,64.66 C21.1007714,86.4988714 40.0691571,102.967129 62.1581286,102.967129 C84.0980857,102.967129 102.588929,87.2779286 106.126929,65.6630143 C106.205357,65.1880857 106.649786,64.8647857 107.127329,64.9432143 C107.603129,65.0216429 107.924686,65.4695571 107.848,65.9444857 C104.171443,88.4064286 84.9555714,104.709986 62.1581286,104.709986" id="Fill-32" fill="#80949E" sketch:type="MSShapeGroup"></path>
            <path d="M107.101186,52.6299286 C106.675929,52.6299286 106.303829,52.3188286 106.240214,51.8848571 C103.409814,32.5914286 88.5746143,17.5383714 69.3247571,14.4273714 C68.8489571,14.3498143 68.5265286,13.9027714 68.6023429,13.4278429 C68.6790286,12.9529143 69.1286857,12.6296143 69.6018714,12.7063 C89.6063857,15.9401714 105.022829,31.5831857 107.9639,51.6321429 C108.034486,52.1079429 107.705086,52.5506286 107.229286,52.6203429 C107.185714,52.6273143 107.143014,52.6299286 107.101186,52.6299286" id="Fill-33" fill="#80949E" sketch:type="MSShapeGroup"></path>
            <path d="M87.3650714,79.8420286 L36.7716714,79.8420286 C35.8627714,79.8420286 35.1255429,79.1048 35.1255429,78.1959 L35.1255429,44.0899286 C35.1255429,43.1801571 35.8627714,42.4429286 36.7716714,42.4429286 L87.3650714,42.4429286 C88.2748429,42.4429286 89.0112,43.1801571 89.0112,44.0899286 L89.0112,78.1959 C89.0112,79.1048 88.2748429,79.8420286 87.3650714,79.8420286" id="Fill-34" fill="#3B4D53" sketch:type="MSShapeGroup"></path>
            <path d="M42.3749571,57.2946857 C42.2076429,57.2946857 42.0403286,57.2310714 41.9131,57.1029714 C41.6577714,56.8476429 41.6577714,56.4345857 41.9131,56.1792571 L44.1622571,53.9292286 L41.9035143,51.5807286 C41.6534143,51.3201714 41.6621286,50.9071143 41.9218143,50.6570143 C42.1815,50.4077857 42.5954286,50.4147571 42.8464,50.6744429 L45.5487,53.4848 C45.7961857,53.7418714 45.7918286,54.1488286 45.5399857,54.4006714 L42.8368143,57.1029714 C42.7095857,57.2310714 42.5422714,57.2946857 42.3749571,57.2946857" id="Fill-35" fill="#19EE3A" sketch:type="MSShapeGroup"></path>
            <path d="M50.8574429,58.1434571 L46.8122714,58.1434571 C46.4515,58.1434571 46.1587,57.8506571 46.1587,57.4898857 C46.1587,57.1291143 46.4515,56.8363143 46.8122714,56.8363143 L50.8574429,56.8363143 C51.2182143,56.8363143 51.5110143,57.1291143 51.5110143,57.4898857 C51.5110143,57.8506571 51.2182143,58.1434571 50.8574429,58.1434571" id="Fill-36" fill="#19EE3A" sketch:type="MSShapeGroup"></path>
        </g>
    </g>
</svg>