<svg xmlns="http://www.w3.org/2000/svg" viewBox="0 0 120.9 103.84"><defs><style>.cls-1{fill:#b3caef;}.cls-2{fill:#fff;}.cls-3{fill:#ffbe00;}.cls-4{fill:#5680d6;}.cls-5{fill:#7ba2e4;}.cls-6{fill:#ffe600;}</style></defs><title>アセット 3</title><g id="レイヤー_2" data-name="レイヤー 2"><g id="言語一覧"><circle class="cls-1" cx="61.64" cy="57.51" r="45.33"/><path class="cls-2" d="M90.57,39.34h-57a1.6,1.6,0,0,0-1.6,1.6V92.25a45.3,45.3,0,0,0,60.23-1.79V40.94A1.6,1.6,0,0,0,90.57,39.34Z"/><path class="cls-3" d="M61.05,103.34A45.83,45.83,0,0,1,31.62,92.63l-.18-.15V40.94a2.1,2.1,0,0,1,2.1-2.1h57a2.1,2.1,0,0,1,2.1,2.1V90.67l-.16.15A45.67,45.67,0,0,1,61.05,103.34ZM32.44,92a44.8,44.8,0,0,0,59.23-1.78V40.94a1.1,1.1,0,0,0-1.1-1.1h-57a1.1,1.1,0,0,0-1.1,1.1Z"/><circle class="cls-4" cx="86.57" cy="8.54" r="1"/><circle class="cls-4" cx="14.68" cy="25.76" r="1"/><circle class="cls-4" cx="62.02" cy="12.18" r="1.63"/><circle class="cls-4" cx="16.31" cy="57.51" r="1.63"/><circle class="cls-4" cx="106.97" cy="57.51" r="1.63"/><rect class="cls-5" x="31.94" y="39.64" width="60.22" height="11.23"/><path class="cls-4" d="M89.87,50.93H32.58a.5.5,0,0,1,0-1H89.87a.5.5,0,0,1,0,1Z"/><path class="cls-4" d="M9.86,36.71H4.57a.5.5,0,0,1,0-1H9.86a.5.5,0,0,1,0,1Z"/><path class="cls-4" d="M7.21,39.35a.5.5,0,0,1-.5-.5V33.57a.5.5,0,0,1,.5-.5.5.5,0,0,1,.5.5v5.28A.5.5,0,0,1,7.21,39.35Z"/><path class="cls-4" d="M119.17,74.82h-5.29a.5.5,0,0,1,0-1h5.29a.5.5,0,1,1,0,1Z"/><path class="cls-4" d="M116.53,77.46a.5.5,0,0,1-.5-.5V71.68a.5.5,0,0,1,.5-.5.5.5,0,0,1,.5.5V77A.5.5,0,0,1,116.53,77.46Z"/><path class="cls-4" d="M43.73,2.16a.4.4,0,0,1-.4-.4V.4a.4.4,0,0,1,.4-.4.39.39,0,0,1,.4.4V1.76A.39.39,0,0,1,43.73,2.16Z"/><path class="cls-4" d="M43.73,7a.4.4,0,0,1-.4-.4V5.22a.4.4,0,0,1,.4-.4.39.39,0,0,1,.4.4V6.58A.39.39,0,0,1,43.73,7Z"/><path class="cls-4" d="M46.89,4H45.53a.4.4,0,1,1,0-.8h1.36a.4.4,0,0,1,0,.8Z"/><path class="cls-4" d="M42,4H40.67a.4.4,0,1,1,0-.8H42A.4.4,0,0,1,42,4Z"/><path class="cls-4" d="M45.05,2.64a.4.4,0,0,1-.29-.12.4.4,0,0,1,0-.56l1-1a.4.4,0,0,1,.57,0,.39.39,0,0,1,0,.56l-1,1A.39.39,0,0,1,45.05,2.64Z"/><path class="cls-4" d="M46,6.1A.42.42,0,0,1,45.72,6l-1-1a.4.4,0,0,1,0-.56.4.4,0,0,1,.57,0l1,1a.39.39,0,0,1,0,.56A.39.39,0,0,1,46,6.1Z"/><path class="cls-4" d="M42.41,2.64a.39.39,0,0,1-.28-.12l-1-1a.39.39,0,0,1,0-.56.39.39,0,0,1,.56,0l1,1a.4.4,0,0,1,0,.56A.4.4,0,0,1,42.41,2.64Z"/><path class="cls-4" d="M41.45,6.1A.39.39,0,0,1,41.17,6a.39.39,0,0,1,0-.56l1-1a.4.4,0,0,1,.57,0,.4.4,0,0,1,0,.56l-1,1A.38.38,0,0,1,41.45,6.1Z"/><path class="cls-4" d="M95.46,10.24A2.54,2.54,0,1,1,98,7.71,2.53,2.53,0,0,1,95.46,10.24Zm0-4.07A1.54,1.54,0,1,0,97,7.71,1.54,1.54,0,0,0,95.46,6.17Z"/><path class="cls-1" d="M100.11,16.65H94.83a.5.5,0,0,1-.5-.5.5.5,0,0,1,.5-.5h5.28a.5.5,0,0,1,.5.5A.5.5,0,0,1,100.11,16.65Z"/><path class="cls-1" d="M97.47,19.3a.5.5,0,0,1-.5-.5V13.51a.5.5,0,0,1,1,0V18.8A.5.5,0,0,1,97.47,19.3Z"/><path class="cls-1" d="M118,62.67a.4.4,0,0,1-.41-.4v-1.1a.41.41,0,0,1,.81,0v1.1A.4.4,0,0,1,118,62.67Z"/><path class="cls-1" d="M118,66.56a.4.4,0,0,1-.41-.4v-1.1a.41.41,0,0,1,.81,0v1.1A.4.4,0,0,1,118,66.56Z"/><path class="cls-1" d="M120.5,64.11h-1.1a.4.4,0,1,1,0-.8h1.1a.4.4,0,0,1,0,.8Z"/><path class="cls-1" d="M116.58,64.11h-1.09a.4.4,0,1,1,0-.8h1.09a.4.4,0,0,1,0,.8Z"/><path class="cls-1" d="M119,63.05a.43.43,0,0,1-.28-.11.42.42,0,0,1,0-.57l.78-.78a.4.4,0,0,1,.56,0,.4.4,0,0,1,0,.57l-.77.78A.44.44,0,0,1,119,63.05Z"/><path class="cls-1" d="M119.79,65.85a.38.38,0,0,1-.28-.12l-.78-.78a.4.4,0,0,1,0-.56.4.4,0,0,1,.57,0l.77.78a.39.39,0,0,1,0,.56A.38.38,0,0,1,119.79,65.85Z"/><path class="cls-1" d="M116.89,63.05a.41.41,0,0,1-.28-.11l-.78-.78a.4.4,0,0,1,0-.57.42.42,0,0,1,.57,0l.77.78a.4.4,0,0,1,0,.57A.43.43,0,0,1,116.89,63.05Z"/><path class="cls-1" d="M116.11,65.85a.39.39,0,0,1-.28-.12.39.39,0,0,1,0-.56l.78-.78a.4.4,0,0,1,.56.56l-.77.78A.4.4,0,0,1,116.11,65.85Z"/><path class="cls-1" d="M2.54,30.33a2.54,2.54,0,1,1,2.53-2.54A2.54,2.54,0,0,1,2.54,30.33Zm0-4.07a1.54,1.54,0,1,0,1.53,1.53A1.54,1.54,0,0,0,2.54,26.26Z"/><path class="cls-4" d="M36.57,47.29a.51.51,0,0,1-.36-.15.5.5,0,0,1,0-.7L37.64,45l-1.43-1.5a.49.49,0,0,1,0-.7.5.5,0,0,1,.71,0l1.77,1.85a.5.5,0,0,1,0,.7l-1.78,1.77A.49.49,0,0,1,36.57,47.29Z"/><path class="cls-4" d="M41.57,47.85H38.91a.5.5,0,0,1-.5-.5.5.5,0,0,1,.5-.5h2.66a.5.5,0,0,1,.5.5A.51.51,0,0,1,41.57,47.85Z"/><path class="cls-4" d="M16.86,51.43l-.15,0a1,1,0,0,1-.84-1.14A46.17,46.17,0,0,1,54.05,11.8a1,1,0,1,1,.32,2A44.17,44.17,0,0,0,17.85,50.58,1,1,0,0,1,16.86,51.43Z"/><path class="cls-4" d="M61.64,103.84A46.51,46.51,0,0,1,15.76,64a1,1,0,0,1,2-.27,44.34,44.34,0,0,0,87.65,1,1,1,0,0,1,2,.33A46.14,46.14,0,0,1,61.64,103.84Z"/><path class="cls-4" d="M106.49,51.87a1,1,0,0,1-1-.85A44.09,44.09,0,0,0,68.77,13.75a1,1,0,1,1,.32-2,46.1,46.1,0,0,1,38.39,39,1,1,0,0,1-.85,1.13Z"/><path class="cls-4" d="M61.05,103.34A45.83,45.83,0,0,1,31.62,92.63l-.18-.15V40.94a2.1,2.1,0,0,1,2.1-2.1h57a2.1,2.1,0,0,1,2.1,2.1V90.67l-.16.15A45.67,45.67,0,0,1,61.05,103.34ZM32.44,92a44.8,44.8,0,0,0,59.23-1.78V40.94a1.1,1.1,0,0,0-1.1-1.1h-57a1.1,1.1,0,0,0-1.1,1.1Z"/><path class="cls-6" d="M46,63.73H70.9a2,2,0,0,1,2,2V90.6a0,0,0,0,1,0,0H46a0,0,0,0,1,0,0V63.73A0,0,0,0,1,46,63.73Z"/><path class="cls-4" d="M57.21,80.84H61.9v1.41H58.73v1.28h3v1.41h-3v1.4h3.35v1.41H57.21Z"/><path class="cls-4" d="M66.52,82.53a1.13,1.13,0,0,0-.5-.35,2,2,0,0,0-.61-.11,1.37,1.37,0,0,0-.34,0,2.19,2.19,0,0,0-.33.12.76.76,0,0,0-.25.22.52.52,0,0,0-.1.33.56.56,0,0,0,.23.48,2.09,2.09,0,0,0,.6.28l.76.24a3.51,3.51,0,0,1,.77.33,1.81,1.81,0,0,1,.59.58,1.79,1.79,0,0,1,.23,1,2.28,2.28,0,0,1-.21,1,2.24,2.24,0,0,1-.58.71,2.51,2.51,0,0,1-.85.42,3.81,3.81,0,0,1-1,.14,3.6,3.6,0,0,1-1.25-.21,3.31,3.31,0,0,1-1.08-.66l1.09-1.19a1.55,1.55,0,0,0,.59.48,1.74,1.74,0,0,0,.74.17,1.61,1.61,0,0,0,.37,0,1.16,1.16,0,0,0,.34-.14.75.75,0,0,0,.25-.22.57.57,0,0,0,.09-.32.61.61,0,0,0-.24-.5,2.1,2.1,0,0,0-.6-.3c-.24-.09-.5-.17-.78-.26a3,3,0,0,1-.78-.34,1.89,1.89,0,0,1-.6-.56,1.65,1.65,0,0,1-.24-.93,2.05,2.05,0,0,1,.22-1,2.2,2.2,0,0,1,.58-.7,2.51,2.51,0,0,1,.85-.42,3.28,3.28,0,0,1,1-.15,4,4,0,0,1,1.14.17,2.6,2.6,0,0,1,1,.56Z"/><path class="cls-4" d="M70.8,83.31l.24,0,.24,0a2.18,2.18,0,0,1,.89.18,2,2,0,0,1,.68.47,2.22,2.22,0,0,1,.44.72,2.6,2.6,0,0,1,.16.89,2.21,2.21,0,0,1-.75,1.71,2.49,2.49,0,0,1-.82.49,3.06,3.06,0,0,1-1,.17,3.12,3.12,0,0,1-1-.17,2.54,2.54,0,0,1-.81-.49,2.21,2.21,0,0,1-.75-1.71,3.47,3.47,0,0,1,.07-.68,4.39,4.39,0,0,1,.18-.58,3.3,3.3,0,0,1,.27-.53l.31-.51,1.52-2.36h1.78ZM72,85.44a1,1,0,0,0-.31-.78,1.09,1.09,0,0,0-.8-.31,1.13,1.13,0,0,0-.81.31,1.07,1.07,0,0,0-.3.78,1,1,0,0,0,.3.77,1.09,1.09,0,0,0,.81.31,1.05,1.05,0,0,0,.8-.31A1,1,0,0,0,72,85.44Z"/><path class="cls-4" d="M76.43,91.08H46a.48.48,0,0,1-.47-.48V60.19a.48.48,0,0,1,.47-.48H76.43a.48.48,0,0,1,.48.48V90.6A.48.48,0,0,1,76.43,91.08Zm-29.93-1H76V60.66H46.5Z"/></g></g></svg>