<?xml version="1.0" encoding="UTF-8"?>
<svg width="122px" height="105px" viewBox="0 0 122 105" version="1.1" xmlns="http://www.w3.org/2000/svg" xmlns:xlink="http://www.w3.org/1999/xlink" xmlns:sketch="http://www.bohemiancoding.com/sketch/ns">
    <!-- Generator: Sketch 3.3.3 (12081) - http://www.bohemiancoding.com/sketch -->
    <title>Imported Layers</title>
    <desc>Created with Sketch.</desc>
    <defs></defs>
    <g id="Page-1" stroke="none" stroke-width="1" fill="none" fill-rule="evenodd" sketch:type="MSPage">
        <g id="Imported-Layers" sketch:type="MSLayerGroup">
            <path d="M107.366971,58.4101143 C107.366971,83.4994143 87.0287,103.838557 61.9394,103.838557 C36.8501,103.838557 16.5109571,83.4994143 16.5109571,58.4101143 C16.5109571,33.3208143 36.8501,12.9825429 61.9394,12.9825429 C87.0287,12.9825429 107.366971,33.3208143 107.366971,58.4101143" id="Fill-1" fill="#D3E0E5" sketch:type="MSShapeGroup"></path>
            <path d="M87.9306286,9.33997143 C87.9306286,9.89507143 87.4809714,10.3447286 86.9258714,10.3447286 C86.3707714,10.3447286 85.9202429,9.89507143 85.9202429,9.33997143 C85.9202429,8.78487143 86.3707714,8.33521429 86.9258714,8.33521429 C87.4809714,8.33521429 87.9306286,8.78487143 87.9306286,9.33997143" id="Fill-2" fill="#80949E" sketch:type="MSShapeGroup"></path>
            <path d="M15.8835286,26.5933857 C15.8835286,27.1484857 15.4338714,27.5990143 14.8787714,27.5990143 C14.3236714,27.5990143 13.8740143,27.1484857 13.8740143,26.5933857 C13.8740143,26.0382857 14.3236714,25.5886286 14.8787714,25.5886286 C15.4338714,25.5886286 15.8835286,26.0382857 15.8835286,26.5933857" id="Fill-3" fill="#80949E" sketch:type="MSShapeGroup"></path>
            <path d="M63.9532714,12.9825429 C63.9532714,13.8844714 63.2221429,14.6147286 62.3202143,14.6147286 C61.4191571,14.6147286 60.6880286,13.8844714 60.6880286,12.9825429 C60.6880286,12.0806143 61.4191571,11.3494857 62.3202143,11.3494857 C63.2221429,11.3494857 63.9532714,12.0806143 63.9532714,12.9825429" id="Fill-4" fill="#FC9E2D" sketch:type="MSShapeGroup"></path>
            <path d="M18.1440143,58.4101143 C18.1440143,59.3120429 17.4128857,60.0431714 16.5109571,60.0431714 C15.6099,60.0431714 14.8787714,59.3120429 14.8787714,58.4101143 C14.8787714,57.5090571 15.6099,56.7779286 16.5109571,56.7779286 C17.4128857,56.7779286 18.1440143,57.5090571 18.1440143,58.4101143" id="Fill-5" fill="#FC9E2D" sketch:type="MSShapeGroup"></path>
            <path d="M109.000029,58.4101143 C109.000029,59.3120429 108.2689,60.0431714 107.366971,60.0431714 C106.465043,60.0431714 105.734786,59.3120429 105.734786,58.4101143 C105.734786,57.5090571 106.465043,56.7779286 107.366971,56.7779286 C108.2689,56.7779286 109.000029,57.5090571 109.000029,58.4101143" id="Fill-6" fill="#FC9E2D" sketch:type="MSShapeGroup"></path>
            <path d="M10.0432143,37.4156571 L4.7458,37.4156571 C4.55321429,37.4156571 4.39722857,37.2588 4.39722857,37.0670857 C4.39722857,36.8745 4.55321429,36.7185143 4.7458,36.7185143 L10.0432143,36.7185143 C10.2358,36.7185143 10.3926571,36.8745 10.3926571,37.0670857 C10.3926571,37.2588 10.2358,37.4156571 10.0432143,37.4156571" id="Fill-7" fill="#FC9E2D" sketch:type="MSShapeGroup"></path>
            <path d="M7.39407143,40.0639286 C7.20235714,40.0639286 7.0455,39.9070714 7.0455,39.7153571 L7.0455,34.4179429 C7.0455,34.2253571 7.20235714,34.0693714 7.39407143,34.0693714 C7.58665714,34.0693714 7.74351429,34.2253571 7.74351429,34.4179429 L7.74351429,39.7153571 C7.74351429,39.9070714 7.58665714,40.0639286 7.39407143,40.0639286" id="Fill-8" fill="#FC9E2D" sketch:type="MSShapeGroup"></path>
            <path d="M119.5905,75.6060143 L114.293086,75.6060143 C114.1005,75.6060143 113.944514,75.4500286 113.944514,75.2574429 C113.944514,75.0648571 114.1005,74.9088714 114.293086,74.9088714 L119.5905,74.9088714 C119.783086,74.9088714 119.939943,75.0648571 119.939943,75.2574429 C119.939943,75.4500286 119.783086,75.6060143 119.5905,75.6060143" id="Fill-9" fill="#FC9E2D" sketch:type="MSShapeGroup"></path>
            <path d="M116.941357,78.2542857 C116.748771,78.2542857 116.592786,78.0983 116.592786,77.9057143 L116.592786,72.6091714 C116.592786,72.4165857 116.748771,72.2606 116.941357,72.2606 C117.133943,72.2606 117.289929,72.4165857 117.289929,72.6091714 L117.289929,77.9057143 C117.289929,78.0983 117.133943,78.2542857 116.941357,78.2542857" id="Fill-10" fill="#FC9E2D" sketch:type="MSShapeGroup"></path>
            <path d="M43.9940714,2.89052857 C43.8023571,2.89052857 43.6455,2.73454286 43.6455,2.54195714 L43.6455,1.17904286 C43.6455,0.987328571 43.8023571,0.831342857 43.9940714,0.831342857 C44.1866571,0.831342857 44.3435143,0.987328571 44.3435143,1.17904286 L44.3435143,2.54195714 C44.3435143,2.73454286 44.1866571,2.89052857 43.9940714,2.89052857" id="Fill-11" fill="#FC9E2D" sketch:type="MSShapeGroup"></path>
            <path d="M43.9940714,7.7226 C43.8023571,7.7226 43.6455,7.56661429 43.6455,7.37402857 L43.6455,6.01111429 C43.6455,5.8194 43.8023571,5.66341429 43.9940714,5.66341429 C44.1866571,5.66341429 44.3435143,5.8194 44.3435143,6.01111429 L44.3435143,7.37402857 C44.3435143,7.56661429 44.1866571,7.7226 43.9940714,7.7226" id="Fill-12" fill="#FC9E2D" sketch:type="MSShapeGroup"></path>
            <path d="M47.153,4.68741429 L45.7909571,4.68741429 C45.5983714,4.68741429 45.4415143,4.53142857 45.4415143,4.33884286 C45.4415143,4.14625714 45.5983714,3.99027143 45.7909571,3.99027143 L47.153,3.99027143 C47.3455857,3.99027143 47.5024429,4.14625714 47.5024429,4.33884286 C47.5024429,4.53142857 47.3455857,4.68741429 47.153,4.68741429" id="Fill-13" fill="#FC9E2D" sketch:type="MSShapeGroup"></path>
            <path d="M42.2904286,4.68741429 L40.9275143,4.68741429 C40.7349286,4.68741429 40.5780714,4.53142857 40.5780714,4.33884286 C40.5780714,4.14625714 40.7349286,3.99027143 40.9275143,3.99027143 L42.2904286,3.99027143 C42.4830143,3.99027143 42.639,4.14625714 42.639,4.33884286 C42.639,4.53142857 42.4830143,4.68741429 42.2904286,4.68741429" id="Fill-14" fill="#FC9E2D" sketch:type="MSShapeGroup"></path>
            <path d="M45.3090571,3.37242857 C45.2201714,3.37242857 45.1304143,3.33844286 45.0624429,3.27047143 C44.9265,3.13452857 44.9265,2.91405714 45.0624429,2.77724286 L46.0253714,1.81431429 C46.1621857,1.67837143 46.3826571,1.67837143 46.5194714,1.81431429 C46.6554143,1.95025714 46.6554143,2.17072857 46.5194714,2.30667143 L45.5556714,3.27047143 C45.4877,3.33844286 45.3988143,3.37242857 45.3090571,3.37242857" id="Fill-15" fill="#FC9E2D" sketch:type="MSShapeGroup"></path>
            <path d="M46.2728571,6.84158571 C46.1831,6.84158571 46.0933429,6.8076 46.0253714,6.73962857 L45.0624429,5.77582857 C44.9265,5.63988571 44.9265,5.41941429 45.0624429,5.28347143 C45.1983857,5.14752857 45.4197286,5.14752857 45.5556714,5.28347143 L46.5194714,6.2464 C46.6554143,6.38321429 46.6554143,6.60368571 46.5194714,6.73962857 C46.4515,6.8076 46.3617429,6.84158571 46.2728571,6.84158571" id="Fill-16" fill="#FC9E2D" sketch:type="MSShapeGroup"></path>
            <path d="M42.6703714,3.37242857 C42.5806143,3.37242857 42.4917286,3.33844286 42.4237571,3.27047143 L41.4590857,2.30754286 C41.3231429,2.1716 41.3231429,1.95025714 41.4590857,1.81431429 C41.5950286,1.67837143 41.8172429,1.67837143 41.9523143,1.81431429 L42.9169857,2.77724286 C43.0529286,2.91318571 43.0529286,3.13452857 42.9169857,3.27047143 C42.8490143,3.33844286 42.7592571,3.37242857 42.6703714,3.37242857" id="Fill-17" fill="#FC9E2D" sketch:type="MSShapeGroup"></path>
            <path d="M41.7057,6.84158571 C41.6168143,6.84158571 41.5270571,6.8076 41.4590857,6.73962857 C41.3231429,6.60368571 41.3231429,6.38234286 41.4590857,6.2464 L42.4237571,5.2826 C42.5597,5.14752857 42.7810429,5.14752857 42.9169857,5.28347143 C43.0529286,5.41941429 43.0529286,5.64075714 42.9169857,5.7767 L41.9523143,6.73962857 C41.8843429,6.8076 41.7954571,6.84158571 41.7057,6.84158571" id="Fill-18" fill="#FC9E2D" sketch:type="MSShapeGroup"></path>
            <path d="M95.8362286,10.8911143 C94.5195,10.8911143 93.4476429,9.82012857 93.4476429,8.5034 C93.4476429,7.18667143 94.5195,6.11568571 95.8362286,6.11568571 C97.1529571,6.11568571 98.2248143,7.18667143 98.2248143,8.5034 C98.2248143,9.82012857 97.1529571,10.8911143 95.8362286,10.8911143 L95.8362286,10.8911143 Z M95.8362286,6.81282857 C94.9038,6.81282857 94.1456571,7.57097143 94.1456571,8.5034 C94.1456571,9.43582857 94.9038,10.1939714 95.8362286,10.1939714 C96.7686571,10.1939714 97.5268,9.43582857 97.5268,8.5034 C97.5268,7.57097143 96.7686571,6.81282857 95.8362286,6.81282857 L95.8362286,6.81282857 Z" id="Fill-19" fill="#FC9E2D" sketch:type="MSShapeGroup"></path>
            <path d="M100.494886,17.4015571 L95.1974714,17.4015571 C94.9569571,17.4015571 94.7617571,17.2072286 94.7617571,16.9658429 C94.7617571,16.7253286 94.9569571,16.5301286 95.1974714,16.5301286 L100.494886,16.5301286 C100.7354,16.5301286 100.9306,16.7253286 100.9306,16.9658429 C100.9306,17.2072286 100.7354,17.4015571 100.494886,17.4015571" id="Fill-20" fill="#D2D9DB" sketch:type="MSShapeGroup"></path>
            <path d="M97.8466143,20.0507 C97.6061,20.0507 97.4109,19.8555 97.4109,19.6149857 L97.4109,14.3175714 C97.4109,14.0770571 97.6061,13.8818571 97.8466143,13.8818571 C98.088,13.8818571 98.2823286,14.0770571 98.2823286,14.3175714 L98.2823286,19.6149857 C98.2823286,19.8555 98.088,20.0507 97.8466143,20.0507" id="Fill-21" fill="#D2D9DB" sketch:type="MSShapeGroup"></path>
            <path d="M118.374857,63.6142857 C118.133471,63.6142857 117.939143,63.4190857 117.939143,63.1777 L117.939143,62.0779571 C117.939143,61.8374429 118.133471,61.6422429 118.374857,61.6422429 C118.615371,61.6422429 118.810571,61.8374429 118.810571,62.0779571 L118.810571,63.1777 C118.810571,63.4190857 118.615371,63.6142857 118.374857,63.6142857" id="Fill-22" fill="#D2D9DB" sketch:type="MSShapeGroup"></path>
            <path d="M118.374857,67.5139286 C118.133471,67.5139286 117.939143,67.3187286 117.939143,67.0782143 L117.939143,65.9784714 C117.939143,65.7370857 118.133471,65.5427571 118.374857,65.5427571 C118.615371,65.5427571 118.810571,65.7370857 118.810571,65.9784714 L118.810571,67.0782143 C118.810571,67.3187286 118.615371,67.5139286 118.374857,67.5139286" id="Fill-23" fill="#D2D9DB" sketch:type="MSShapeGroup"></path>
            <path d="M120.924657,65.0643429 L119.824914,65.0643429 C119.5844,65.0643429 119.3892,64.8691429 119.3892,64.6286286 C119.3892,64.3872429 119.5844,64.1929143 119.824914,64.1929143 L120.924657,64.1929143 C121.166043,64.1929143 121.361243,64.3872429 121.361243,64.6286286 C121.361243,64.8691429 121.166043,65.0643429 120.924657,65.0643429" id="Fill-24" fill="#D2D9DB" sketch:type="MSShapeGroup"></path>
            <path d="M116.998871,65.0643429 L115.9,65.0643429 C115.659486,65.0643429 115.464286,64.8691429 115.464286,64.6286286 C115.464286,64.3872429 115.659486,64.1929143 115.9,64.1929143 L116.998871,64.1929143 C117.240257,64.1929143 117.435457,64.3872429 117.435457,64.6286286 C117.435457,64.8691429 117.240257,65.0643429 116.998871,65.0643429" id="Fill-25" fill="#D2D9DB" sketch:type="MSShapeGroup"></path>
            <path d="M119.436257,64.0029429 C119.324714,64.0029429 119.213171,63.9602429 119.127771,63.8748429 C118.957843,63.7049143 118.957843,63.4295429 119.127771,63.2587429 L119.905957,62.4814286 C120.075886,62.3106286 120.351257,62.3106286 120.522057,62.4814286 C120.691986,62.6513571 120.691986,62.9267286 120.522057,63.0975286 L119.743871,63.8748429 C119.658471,63.9602429 119.546929,64.0029429 119.436257,64.0029429" id="Fill-26" fill="#D2D9DB" sketch:type="MSShapeGroup"></path>
            <path d="M120.213571,66.8028429 C120.102029,66.8028429 119.990486,66.7601429 119.905957,66.6756143 L119.127771,65.8974286 C118.957843,65.7275 118.957843,65.4512571 119.127771,65.2813286 C119.2977,65.1114 119.573943,65.1114 119.743871,65.2813286 L120.522057,66.0595143 C120.691986,66.2294429 120.691986,66.5048143 120.522057,66.6756143 C120.436657,66.7601429 120.325114,66.8028429 120.213571,66.8028429" id="Fill-27" fill="#D2D9DB" sketch:type="MSShapeGroup"></path>
            <path d="M117.305614,64.0029429 C117.194071,64.0029429 117.082529,63.9602429 116.998,63.8748429 L116.219814,63.0975286 C116.049886,62.9267286 116.049886,62.6513571 116.219814,62.4814286 C116.389743,62.3106286 116.665986,62.3106286 116.835914,62.4814286 L117.6141,63.2587429 C117.784029,63.4295429 117.784029,63.7049143 117.6141,63.8748429 C117.5287,63.9602429 117.417157,64.0029429 117.305614,64.0029429" id="Fill-28" fill="#D2D9DB" sketch:type="MSShapeGroup"></path>
            <path d="M116.5283,66.8028429 C116.416757,66.8028429 116.305214,66.7601429 116.219814,66.6756143 C116.049886,66.5048143 116.049886,66.2294429 116.219814,66.0595143 L116.998,65.2813286 C117.167929,65.1114 117.4433,65.1114 117.6141,65.2813286 C117.784029,65.4512571 117.784029,65.7275 117.6141,65.8974286 L116.835914,66.6756143 C116.750514,66.7601429 116.639843,66.8028429 116.5283,66.8028429" id="Fill-29" fill="#D2D9DB" sketch:type="MSShapeGroup"></path>
            <path d="M2.70665714,31.1073857 C1.34287143,31.1073857 0.2318,29.9971857 0.2318,28.6325286 C0.2318,27.2678714 1.34287143,26.1585429 2.70665714,26.1585429 C4.07131429,26.1585429 5.18151429,27.2678714 5.18151429,28.6325286 C5.18151429,29.9971857 4.07131429,31.1073857 2.70665714,31.1073857 L2.70665714,31.1073857 Z M2.70665714,27.0299714 C1.82302857,27.0299714 1.1041,27.7489 1.1041,28.6325286 C1.1041,29.5170286 1.82302857,30.2359571 2.70665714,30.2359571 C3.59115714,30.2359571 4.31008571,29.5170286 4.31008571,28.6325286 C4.31008571,27.7489 3.59115714,27.0299714 2.70665714,27.0299714 L2.70665714,27.0299714 Z" id="Fill-30" fill="#D2D9DB" sketch:type="MSShapeGroup"></path>
            <path d="M17.0634429,52.1846286 C17.0181286,52.1846286 16.9736857,52.1811429 16.9275,52.1741714 C16.4525714,52.0992286 16.1275286,51.6530571 16.2016,51.1781286 C19.2986571,31.4324286 34.6305714,15.9811286 54.351,12.7298286 C54.8311571,12.6522714 55.2747143,12.9738286 55.3522714,13.4478857 C55.4307,13.9228143 55.1100143,14.3716 54.6350857,14.4491571 C35.6579857,17.5784571 20.9038286,32.4467714 17.9235429,51.4482714 C17.8555714,51.8778857 17.4852143,52.1846286 17.0634429,52.1846286" id="Fill-31" fill="#80949E" sketch:type="MSShapeGroup"></path>
            <path d="M61.9394,104.709986 C38.9868429,104.709986 19.276,87.596 16.0918,64.9022571 C16.0247,64.4264571 16.3567143,63.9855143 16.8333857,63.9184143 C17.3126714,63.8478286 17.7501286,64.1842 17.8172286,64.66 C20.8820429,86.4988714 39.8504286,102.967129 61.9394,102.967129 C83.8793571,102.967129 102.3702,87.2779286 105.9082,65.6630143 C105.986629,65.1880857 106.434543,64.8647857 106.9086,64.9432143 C107.3844,65.0216429 107.705957,65.4695571 107.629271,65.9444857 C103.952714,88.4064286 84.7368429,104.709986 61.9394,104.709986" id="Fill-32" fill="#80949E" sketch:type="MSShapeGroup"></path>
            <path d="M106.882457,52.6299286 C106.4572,52.6299286 106.0851,52.3188286 106.021486,51.8848571 C103.191086,32.5914286 88.3558857,17.5383714 69.1060286,14.4273714 C68.6302286,14.3498143 68.3078,13.9027714 68.3836143,13.4278429 C68.4594286,12.9529143 68.9064714,12.6296143 69.3831429,12.7063 C89.3876571,15.9401714 104.803229,31.5831857 107.745171,51.6321429 C107.815757,52.1079429 107.486357,52.5506286 107.010557,52.6203429 C106.966986,52.6273143 106.924286,52.6299286 106.882457,52.6299286" id="Fill-33" fill="#80949E" sketch:type="MSShapeGroup"></path>
            <path d="M88.5937857,62.8648571 L64.5249286,86.9345857 C63.5681,87.8914143 62.0160857,87.8914143 61.0592571,86.9345857 L36.9904,62.8648571 C36.0335714,61.9080286 36.0335714,60.3568857 36.9904,59.4000571 L61.0592571,35.3312 C62.0160857,34.3743714 63.5681,34.3743714 64.5249286,35.3312 L88.5937857,59.4000571 C89.5506143,60.3568857 89.5506143,61.9080286 88.5937857,62.8648571" id="Fill-34" fill="#3B4D53" sketch:type="MSShapeGroup"></path>
            <path d="M62.7916571,88.5232 C61.9045429,88.5232 61.0705857,88.1781143 60.4431571,87.5506857 L36.3743,63.4818286 C35.0802286,62.1860143 35.0802286,60.0789 36.3743,58.7839571 L60.4431571,34.7151 C61.6980143,33.4593714 63.8861714,33.4593714 65.1410286,34.7151 L89.2098857,58.7839571 C89.8381857,59.4113857 90.1832714,60.2453429 90.1832714,61.1324571 C90.1832714,62.0195714 89.8381857,62.8544 89.2098857,63.4818286 L65.1410286,87.5506857 C64.5136,88.1781143 63.6796429,88.5232 62.7916571,88.5232 L62.7916571,88.5232 Z M62.7916571,35.4845714 C62.3698857,35.4845714 61.9733857,35.6492714 61.6753571,35.9473 L37.6065,60.0161571 C36.9912714,60.6322571 36.9912714,61.6335286 37.6065,62.2496286 L61.6753571,86.3184857 C62.2714143,86.9145429 63.3127714,86.9145429 63.9088286,86.3184857 L87.9776857,62.2496286 C88.2765857,61.9507286 88.4404143,61.5542286 88.4404143,61.1324571 C88.4404143,60.7106857 88.2765857,60.3141857 87.9776857,60.0161571 L63.9088286,35.9473 C63.6108,35.6492714 63.2143,35.4845714 62.7916571,35.4845714 L62.7916571,35.4845714 Z" id="Fill-35" fill="#3B4D53" sketch:type="MSShapeGroup"></path>
            <path d="M52.7894,42.3897714 L58.7935429,48.3930429 C58.6375571,48.8034857 58.5478,49.2470429 58.5478,49.7123857 C58.5478,51.2347714 59.4636714,52.5419143 60.7734286,53.1170571 L60.7734286,66.9640571 C59.4636714,67.5392 58.5478,68.8463429 58.5478,70.3687286 C58.5478,72.4235571 60.2139714,74.0888571 62.2688,74.0888571 C64.3227571,74.0888571 65.9880571,72.4235571 65.9880571,70.3687286 C65.9880571,68.8463429 65.0730571,67.5392 63.7633,66.9640571 L63.7633,53.3628 L69.1487286,58.7491 C68.9761857,59.1787143 68.8777143,59.6466714 68.8777143,60.1390286 C68.8777143,62.1938571 70.5438857,63.8591571 72.5978429,63.8591571 C74.6526714,63.8591571 76.3179714,62.1938571 76.3179714,60.1390286 C76.3179714,58.0842 74.6526714,56.4189 72.5978429,56.4189 C72.1429571,56.4189 71.7089857,56.5043 71.3055143,56.6541857 L65.7275,51.0753 C65.8939429,50.6526571 65.9880571,50.1942857 65.9880571,49.7123857 C65.9880571,47.6575571 64.3227571,45.9922571 62.2688,45.9922571 C61.7860286,45.9922571 61.3276571,46.0863714 60.9050143,46.2536857 L54.9148143,40.2634857" id="Fill-36" fill="#FF9827" sketch:type="MSShapeGroup"></path>
            <path d="M62.2688,74.5245714 C59.9769429,74.5245714 58.1120857,72.6605857 58.1120857,70.3687286 C58.1120857,68.8184571 58.9774143,67.405 60.3377143,66.6904286 L60.3377143,53.3906857 C58.9774143,52.6769857 58.1120857,51.2626571 58.1120857,49.7123857 C58.1120857,49.3063 58.1730857,48.9028286 58.2924714,48.5089429 L52.4817857,42.6973857 L53.0970143,42.0812857 L59.1011571,48.0854286 C59.2222857,48.2065571 59.2615,48.3869429 59.2005,48.5472857 C59.0567143,48.9272286 58.9835143,49.3185 58.9835143,49.7123857 C58.9835143,51.0134286 59.7547286,52.1933429 60.9485857,52.7188143 C61.1071857,52.7885286 61.2091429,52.9445143 61.2091429,53.1179286 L61.2091429,66.9640571 C61.2091429,67.1366 61.1071857,67.2934571 60.9485857,67.3623 C59.7547286,67.8877714 58.9835143,69.0676857 58.9835143,70.3687286 C58.9835143,72.1804286 60.4579714,73.6531429 62.2688,73.6531429 C64.0796286,73.6531429 65.5532143,72.1804286 65.5532143,70.3687286 C65.5532143,69.0676857 64.782,67.8877714 63.5881429,67.3623 C63.4295429,67.2934571 63.3275857,67.1366 63.3275857,66.9640571 L63.3275857,53.3628 C63.3275857,53.1867714 63.4339,53.0281714 63.5959857,52.9602 C63.7589429,52.8922286 63.9463,52.9305714 64.0709143,53.0551857 L69.4572143,58.4406143 C69.5809571,58.5643571 69.6184286,58.7499714 69.5530714,58.9120571 C69.3944714,59.3050714 69.3143,59.7172571 69.3143,60.1390286 C69.3143,61.9498571 70.7870143,63.4234429 72.5987143,63.4234429 C74.4095429,63.4234429 75.8822571,61.9498571 75.8822571,60.1390286 C75.8822571,58.3282 74.4095429,56.8546143 72.5987143,56.8546143 C72.2135429,56.8546143 71.8301143,56.9243286 71.4571429,57.0628857 C71.2976714,57.1221429 71.1190286,57.0838 70.9979,56.9626714 L65.4190143,51.3837857 C65.2970143,51.2609143 65.2586714,51.0770429 65.3222857,50.9158286 C65.4756571,50.5271714 65.5532143,50.1228286 65.5532143,49.7123857 C65.5532143,47.9015571 64.0796286,46.4279714 62.2688,46.4279714 C61.8574857,46.4279714 61.4531429,46.5055286 61.0653571,46.6580286 C60.9041429,46.7233857 60.7202714,46.6841714 60.5974,46.5613 L54.6072,40.5719714 L55.2233,39.9558714 L61.0183,45.7508714 C61.4243857,45.6219 61.8444143,45.5565429 62.2688,45.5565429 C64.5597857,45.5565429 66.4237714,47.4205286 66.4237714,49.7123857 C66.4237714,50.1367714 66.3584143,50.5559286 66.2303143,50.9620143 L71.4231571,56.1557286 C71.8083286,56.0407 72.2022143,55.9831857 72.5987143,55.9831857 C74.8897,55.9831857 76.7536857,57.8471714 76.7536857,60.1390286 C76.7536857,62.4308857 74.8897,64.2948714 72.5987143,64.2948714 C70.3077286,64.2948714 68.4428714,62.4308857 68.4428714,60.1390286 C68.4428714,59.7024429 68.5108429,59.2745714 68.6450429,58.8606429 L64.1990143,54.4146143 L64.1990143,66.6904286 C65.5593143,67.405 66.4237714,68.8184571 66.4237714,70.3687286 C66.4237714,72.6605857 64.5597857,74.5245714 62.2688,74.5245714" id="Fill-37" fill="#3B4D53" sketch:type="MSShapeGroup"></path>
        </g>
    </g>
</svg>