<?xml version="1.0" encoding="utf-8"?>
<!-- Generator: Adobe Illustrator 22.1.0, SVG Export Plug-In . SVG Version: 6.00 Build 0)  -->
<svg version="1.1" id="レイヤー_1" xmlns="http://www.w3.org/2000/svg" xmlns:xlink="http://www.w3.org/1999/xlink" x="0px"
	 y="0px" viewBox="0 0 122.8 105" style="enable-background:new 0 0 122.8 105;" xml:space="preserve">
<style type="text/css">
	.st0{fill:#AEEFDD;}
	.st1{fill:#FFFFFF;}
	.st2{fill:#FFBE00;}
	.st3{fill:#30C5BB;}
	.st4{fill:#83E8CB;}
	.st5{fill:#71E0C4;}
	.st6{fill:none;stroke:#30C5BB;stroke-width:0.96;stroke-linecap:round;stroke-linejoin:round;}
	.st7{fill:#B1F0DE;}
	.st8{fill:none;stroke:#00AEC2;stroke-width:0.72;stroke-miterlimit:10;}
	.st9{fill:#FFFFFF;stroke:#30C5BB;stroke-width:0.72;stroke-miterlimit:10;}
	.st10{fill:#FAFFFF;}
	.st11{fill:none;stroke:#30C5BB;stroke-width:0.72;stroke-miterlimit:10;}
	.st12{fill:#F9FBFE;}
	.st13{opacity:0.6;fill:#FFFFFF;enable-background:new    ;}
	.st14{fill:#F6F973;}
	.st15{fill:none;stroke:#30C5BB;stroke-width:1.08;stroke-miterlimit:10;}
	.st16{fill:none;stroke:#2EC4BA;stroke-width:1.95;stroke-linecap:round;stroke-miterlimit:10;}
	.st17{fill:none;stroke:#AEEFDD;stroke-width:1.95;stroke-linecap:round;stroke-miterlimit:10;}
	.st18{fill:none;stroke:#C4F2E6;stroke-width:1.95;stroke-linecap:round;stroke-miterlimit:10;}
</style>
<title>アートボード 90 のコピー</title>
<g id="言語一覧">
	<circle class="st0" cx="62.7" cy="58.7" r="45.3"/>
	<path class="st1" d="M91.6,40.5h-57c-0.9,0-1.6,0.7-1.6,1.6v51.3c17.6,14.8,43.5,14,60.2-1.8V42.1C93.2,41.3,92.5,40.5,91.6,40.5
		C91.6,40.5,91.6,40.5,91.6,40.5z"/>
	<path class="st2" d="M62.1,104.5c-10.7,0-21.1-3.8-29.4-10.7l-0.2-0.2V42.1c0-1.2,0.9-2.1,2.1-2.1h57c1.2,0,2.1,0.9,2.1,2.1v49.7
		L93.5,92C85,100.1,73.8,104.6,62.1,104.5z M33.5,93.2c17.4,14.4,42.7,13.6,59.2-1.8V42.1c0-0.6-0.5-1.1-1.1-1.1c0,0,0,0,0,0h-57
		c-0.6,0-1.1,0.5-1.1,1.1L33.5,93.2z"/>
	<circle class="st3" cx="87.6" cy="9.7" r="1"/>
	<circle class="st3" cx="15.7" cy="27" r="1"/>
	<circle class="st3" cx="63" cy="13.4" r="1.6"/>
	<circle class="st3" cx="17.3" cy="58.7" r="1.6"/>
	<circle class="st3" cx="108" cy="58.7" r="1.6"/>
	<rect x="33" y="40.8" class="st4" width="60.2" height="11.2"/>
	<path class="st3" d="M90.9,52.1H33.6c-0.3,0-0.5-0.2-0.5-0.5s0.2-0.5,0.5-0.5h57.3c0.3,0,0.5,0.2,0.5,0.5S91.2,52.1,90.9,52.1z"/>
	<path class="st5" d="M10.9,37.9H5.6c-0.3,0-0.5-0.2-0.5-0.5s0.2-0.5,0.5-0.5h5.3c0.3,0,0.5,0.2,0.5,0.5S11.1,37.9,10.9,37.9z"/>
	<path class="st5" d="M8.2,40.6c-0.3,0-0.5-0.2-0.5-0.5v-5.3c0-0.3,0.2-0.5,0.5-0.5c0.3,0,0.5,0.2,0.5,0.5V40
		C8.7,40.3,8.5,40.6,8.2,40.6C8.2,40.6,8.2,40.6,8.2,40.6z"/>
	<path class="st5" d="M120.2,76h-5.3c-0.3,0-0.5-0.2-0.5-0.5s0.2-0.5,0.5-0.5h5.3c0.3,0,0.5,0.2,0.5,0.5
		C120.7,75.8,120.5,76,120.2,76z"/>
	<path class="st5" d="M117.5,78.7c-0.3,0-0.5-0.2-0.5-0.5v-5.3c0-0.3,0.2-0.5,0.5-0.5s0.5,0.2,0.5,0.5v5.3
		C118,78.4,117.8,78.7,117.5,78.7C117.5,78.7,117.5,78.7,117.5,78.7z"/>
	<path class="st5" d="M44.8,3.4c-0.2,0-0.4-0.2-0.4-0.4v0V1.6c0-0.2,0.2-0.4,0.4-0.4c0.2,0,0.4,0.2,0.4,0.4l0,0V3
		C45.2,3.2,45,3.4,44.8,3.4L44.8,3.4z"/>
	<path class="st5" d="M44.8,8.2c-0.2,0-0.4-0.2-0.4-0.4c0,0,0,0,0,0V6.4c0-0.2,0.2-0.4,0.4-0.4c0.2,0,0.4,0.2,0.4,0.4l0,0v1.4
		C45.2,8,45,8.2,44.8,8.2L44.8,8.2z"/>
	<path class="st5" d="M47.9,5.2h-1.4c-0.2,0-0.4-0.2-0.4-0.4c0,0,0,0,0,0c0-0.2,0.2-0.4,0.4-0.4l0,0h1.4c0.2,0,0.4,0.2,0.4,0.4v0
		C48.3,5,48.1,5.2,47.9,5.2C47.9,5.2,47.9,5.2,47.9,5.2z"/>
	<path class="st5" d="M43.1,5.2h-1.4c-0.2,0-0.4-0.2-0.4-0.4c0,0,0,0,0,0c0-0.2,0.2-0.4,0.4-0.4l0,0H43c0.2,0,0.4,0.2,0.4,0.4v0
		C43.4,5,43.3,5.2,43.1,5.2C43.1,5.2,43.1,5.2,43.1,5.2z"/>
	<path class="st5" d="M46.1,3.8c-0.1,0-0.2,0-0.3-0.1c-0.2-0.2-0.2-0.4,0-0.6c0,0,0,0,0,0l1-1c0.2-0.2,0.4-0.2,0.6,0c0,0,0,0,0,0
		c0.2,0.2,0.2,0.4,0,0.6l-1,1C46.3,3.8,46.2,3.8,46.1,3.8z"/>
	<path class="st5" d="M47,7.3c-0.1,0-0.2,0-0.3-0.1l-1-1c-0.2-0.2-0.2-0.4,0-0.6s0.4-0.2,0.6,0l0,0l1,1c0.1,0.2,0.1,0.4,0,0.6
		C47.2,7.3,47.1,7.3,47,7.3z"/>
	<path class="st5" d="M43.4,3.8c-0.1,0-0.2,0-0.3-0.1l-1-1c-0.2-0.2-0.2-0.4,0-0.6c0.2-0.2,0.4-0.2,0.6,0c0,0,0,0,0,0l1,1
		c0.2,0.2,0.2,0.4,0,0.6c0,0,0,0,0,0C43.6,3.8,43.5,3.9,43.4,3.8z"/>
	<path class="st5" d="M42.5,7.3c-0.1,0-0.2,0-0.3-0.1C42,7,42,6.8,42.2,6.6l1-1c0.1-0.2,0.4-0.2,0.6,0c0,0,0,0,0,0
		c0.2,0.2,0.2,0.4,0,0.6c0,0,0,0,0,0l-1,1C42.7,7.3,42.6,7.3,42.5,7.3z"/>
	<path class="st5" d="M96.5,11.4c-1.4,0-2.5-1.1-2.5-2.5c0-1.4,1.1-2.5,2.5-2.5c1.4,0,2.5,1.1,2.5,2.5C99,10.3,97.9,11.4,96.5,11.4
		C96.5,11.4,96.5,11.4,96.5,11.4z M96.5,7.4c-0.8,0-1.5,0.7-1.5,1.5c0,0.8,0.7,1.5,1.5,1.5c0.8,0,1.5-0.7,1.5-1.5
		C98,8.1,97.3,7.4,96.5,7.4C96.5,7.4,96.5,7.4,96.5,7.4z"/>
	<path class="st5" d="M101.1,17.9h-5.3c-0.3,0-0.5-0.2-0.5-0.5c0-0.3,0.2-0.5,0.5-0.5h5.3c0.3,0,0.5,0.2,0.5,0.5
		S101.4,17.9,101.1,17.9z"/>
	<path class="st5" d="M98.5,20.5c-0.3,0-0.5-0.2-0.5-0.5v-5.3c0-0.3,0.2-0.5,0.5-0.5c0.3,0,0.5,0.2,0.5,0.5V20
		C99,20.3,98.8,20.5,98.5,20.5z"/>
	<path class="st5" d="M119,63.9c-0.2,0-0.4-0.2-0.4-0.4v-1.1c0-0.2,0.2-0.4,0.4-0.4c0.2,0,0.4,0.2,0.4,0.4l0,0v1.1
		C119.4,63.7,119.2,63.9,119,63.9C119,63.9,119,63.9,119,63.9z"/>
	<path class="st5" d="M119,67.8c-0.2,0-0.4-0.2-0.4-0.4v-1.1c0-0.2,0.2-0.4,0.4-0.4c0.2,0,0.4,0.2,0.4,0.4v1.1
		C119.4,67.6,119.2,67.8,119,67.8C119,67.8,119,67.8,119,67.8z"/>
	<path class="st5" d="M121.5,65.3h-1.1c-0.2,0-0.4-0.1-0.5-0.3c0-0.2,0.1-0.4,0.3-0.5c0,0,0.1,0,0.1,0h1.1c0.2,0,0.4,0.1,0.5,0.3
		c0,0.2-0.1,0.4-0.3,0.5C121.6,65.3,121.6,65.3,121.5,65.3z"/>
	<path class="st5" d="M117.6,65.3h-1.1c-0.2,0-0.4-0.1-0.5-0.3c0-0.2,0.1-0.4,0.3-0.5c0,0,0.1,0,0.1,0h1.1c0.2,0,0.4,0.1,0.5,0.3
		c0,0.2-0.1,0.4-0.3,0.5C117.7,65.3,117.6,65.3,117.6,65.3z"/>
	<path class="st5" d="M120,64.3c-0.2,0-0.4-0.2-0.4-0.4c0-0.1,0-0.2,0.1-0.3l0.8-0.8c0.2-0.2,0.4-0.2,0.6,0c0,0,0,0,0,0
		c0.2,0.1,0.2,0.4,0,0.6c0,0,0,0,0,0l-0.8,0.8C120.2,64.2,120.1,64.3,120,64.3z"/>
	<path class="st5" d="M120.8,67c-0.1,0-0.2,0-0.3-0.1l-0.8-0.8c-0.2-0.2-0.2-0.4,0-0.6c0,0,0,0,0,0c0.1-0.2,0.4-0.2,0.6,0
		c0,0,0,0,0,0l0.8,0.8c0.2,0.1,0.2,0.4,0,0.6c0,0,0,0,0,0C121,67,120.9,67,120.8,67z"/>
	<path class="st5" d="M117.9,64.3c-0.1,0-0.2,0-0.3-0.1l-0.8-0.8c-0.2-0.1-0.2-0.4-0.1-0.6s0.4-0.2,0.6-0.1c0,0,0.1,0,0.1,0.1
		l0.8,0.8c0.1,0.2,0.1,0.4,0,0.6C118.1,64.2,118,64.3,117.9,64.3z"/>
	<path class="st5" d="M117.1,67c-0.1,0-0.2,0-0.3-0.1c-0.2-0.1-0.2-0.4,0-0.6c0,0,0,0,0,0l0.8-0.8c0.2-0.2,0.4-0.2,0.6,0
		c0,0,0,0,0,0c0.1,0.2,0.1,0.4,0,0.6l-0.8,0.8C117.3,67,117.2,67,117.1,67z"/>
	<path class="st5" d="M3.6,31.5C2.1,31.5,1,30.4,1,29c0-1.4,1.1-2.5,2.5-2.5c1.4,0,2.5,1.1,2.5,2.5c0,0,0,0,0,0
		C6.1,30.4,4.9,31.5,3.6,31.5z M3.6,27.5C2.7,27.5,2,28.2,2,29c0,0.9,0.7,1.5,1.5,1.5c0.8,0,1.5-0.7,1.5-1.5
		C5.1,28.2,4.5,27.5,3.6,27.5C3.6,27.5,3.6,27.5,3.6,27.5z"/>
	<path class="st3" d="M17.9,52.6h-0.2c-0.5-0.1-0.9-0.6-0.8-1.1c0,0,0,0,0,0C19.9,31.8,35.4,16.3,55.1,13c0.6-0.1,1.1,0.3,1.2,0.8
		S55.9,15,55.4,15c-18.8,3.1-33.6,17.9-36.5,36.7C18.8,52.3,18.4,52.6,17.9,52.6z"/>
	<path class="st3" d="M62.7,105C39.6,105,20.1,88,16.8,65.2c-0.1-0.6,0.3-1.1,0.9-1.1c0.6-0.1,1.1,0.3,1.1,0.9
		c3.5,24.2,25.9,41.1,50.1,37.6c19.2-2.7,34.3-17.6,37.5-36.6c0.1-0.6,0.6-0.9,1.2-0.8c0.6,0.1,0.9,0.6,0.8,1.2
		C104.8,88.7,85.4,105.1,62.7,105z"/>
	<path class="st3" d="M107.5,53c-0.5,0-0.9-0.4-1-0.8C103.7,33.1,88.9,18,69.8,15c-0.6-0.1-0.9-0.6-0.8-1.2c0.1-0.6,0.6-0.9,1.2-0.8
		c20,3.2,35.5,19,38.4,39c0.1,0.5-0.3,1-0.8,1.1H107.5z"/>
	<path class="st3" d="M62.1,104.5c-10.7,0-21.1-3.8-29.4-10.7l-0.2-0.2V42.1c0-1.2,0.9-2.1,2.1-2.1h57c1.2,0,2.1,0.9,2.1,2.1v49.7
		L93.5,92C85,100.1,73.8,104.6,62.1,104.5z M33.5,93.2c17.4,14.4,42.7,13.6,59.2-1.8V42.1c0-0.6-0.5-1.1-1.1-1.1c0,0,0,0,0,0h-57
		c-0.6,0-1.1,0.5-1.1,1.1L33.5,93.2z"/>
	<ellipse class="st6" cx="39.8" cy="46.4" rx="1" ry="1"/>
	<ellipse class="st6" cx="43.7" cy="46.4" rx="1" ry="1"/>
	<ellipse class="st6" cx="47.6" cy="46.4" rx="1" ry="1"/>
	<path class="st4" d="M72.8,102c0.1-1.1,0.1-2.2,0.1-3.6c0-3.5-3.2-9-10.4-9l0,0c-1.5,0-3,0.3-4.5,0.8c-2.9,1.5-4.7,4.5-4.9,7.7
		c0,1.5,0.1,2.7,0.1,4c3.1,1.2,6.3,1.8,9.6,1.8C66.2,103.6,69.6,103,72.8,102z"/>
	<path class="st7" d="M71.7,92.2c0.7-0.7,0.4-1.4,0.6-2c0.1-0.3-0.2-0.3-0.6-0.2c-0.4,0.2-0.7,0.4-1,0.7L70.4,91
		C70.9,91.4,71.3,91.8,71.7,92.2z"/>
	<circle class="st8" cx="57.5" cy="97.2" r="4.2"/>
	<circle class="st9" cx="57.5" cy="97.2" r="4.2"/>
	<path class="st3" d="M57.4,97c0,0.8-0.2,1.4-1,1.5s-1.9-0.5-1.9-1.3c0.1-0.8,0.7-1.5,1.5-1.6C56.7,95.7,57.4,96.3,57.4,97
		C57.4,97,57.4,97,57.4,97z"/>
	<circle class="st8" cx="69.6" cy="97.2" r="4.2"/>
	<path class="st10" d="M56.4,96.8c0,0.2-0.2,0.4-0.5,0.4c-0.2,0-0.3-0.2-0.3-0.4c0-0.2,0.2-0.4,0.5-0.3
		C56.2,96.5,56.4,96.6,56.4,96.8z"/>
	<circle class="st9" cx="69.6" cy="97.2" r="4.2"/>
	<path class="st3" d="M70,97c0,0.8,0,1.2,1,1.4s1.9-0.4,1.9-1.1c-0.1-0.8-0.7-1.5-1.5-1.6C70.6,95.7,70,96.3,70,97
		C70,97,70,97,70,97z"/>
	<path class="st10" d="M71.8,96.5c0.1,0.2,0.1,0.5-0.1,0.6c-0.1,0.1-0.3,0.2-0.5,0c0,0,0,0,0,0c-0.2-0.2-0.2-0.4,0-0.6c0,0,0,0,0,0
		C71.4,96.4,71.6,96.3,71.8,96.5z"/>
	<path class="st11" d="M71.8,92.4c0.1-0.1,0.2-0.2,0.3-0.3c0.8-0.8,0.5-1.5,0.7-2.1s-1.3,0-2.1,0.7L70.5,91
		C71,91.4,71.4,91.9,71.8,92.4z"/>
	<path class="st7" d="M54.9,90.3c0,0.7,0.2,1.3,0.6,1.8c0.3-0.4,0.7-0.7,1.1-1C56.1,90.6,55.5,90.3,54.9,90.3z"/>
	<path class="st11" d="M55.5,92c0.4-0.5,0.9-0.9,1.4-1.3l0,0c-0.8-0.8-2.3-1.3-2.1-0.7S54.7,91.3,55.5,92z"/>
	<path class="st12" d="M63.5,101.4c-0.2,0-0.4,0-0.5,0.1v0.3c0,0.3,0.3,0.6,0.6,0.6c0.3,0,0.6-0.3,0.6-0.6v-0.3
		C63.9,101.4,63.7,101.4,63.5,101.4z"/>
	<path class="st11" d="M65.1,101.3c-0.6,0.6-1,0.1-1.6,0.1c-0.6,0-1.2,0.6-1.6-0.1s1-1.6,1.6-1.6C64.1,99.6,65.7,100.7,65.1,101.3z"
		/>
	<path class="st3" d="M64.7,99.4c0,0.4-0.5,0.8-1.2,0.8c-0.7,0-1.2-0.4-1.2-0.8s0.6-0.5,1.2-0.5C64.1,98.9,64.7,99,64.7,99.4z"/>
	<path class="st13" d="M64,99.3c0,0.1-0.2,0.2-0.4,0.2s-0.4-0.1-0.4-0.2s0.2-0.1,0.5-0.1S64,99.2,64,99.3z"/>
	<path class="st11" d="M73.8,101.6c0.1-1.2,0.1-2.3,0.1-3.8c0-3.5-3.2-9-10.4-9h-0.1c-7.2,0-10.4,5.5-10.4,9c0,1.5,0.1,2.7,0.1,4
		c3.1,1.2,6.3,1.8,9.6,1.8C66.6,103.6,70.3,102.9,73.8,101.6z"/>
	<path class="st14" d="M71.2,79.2c0.6-0.1,1.2-0.1,1.9-0.2c1.8-0.4,3.5-1.2,4.9-2.3c2.1-2.1,3.1-5,2.6-7.9c-0.3-2.2-1.5-4.1-3.3-5.3
		c-2-1.3-4.4-1.7-6.7-1.2c-1.7,0.2-3.4,0.9-4.8,2c-0.4,0.3-0.7,0.7-1,1.1c-0.7,0.9-1.3,2-1.6,3.1h-0.6c-0.1,0.3-0.2,0.5-0.3,0.8
		h-7.5c-0.3,0.7-0.7,1.6-1,2.2c-0.2,0.4,0,0.7,0.4,0.7h4.6c-0.2,0.3-0.4,0.6-0.6,0.9c-0.3,0.3-0.6,0.6-0.9,0.8c-1,1.2-2.5,1.8-4,1.5
		c-1.8-0.3-3.2-1.8-3.2-3.7c-0.1-1.7,0.7-3.3,2.1-4.3c0.3-0.4,0.7-0.7,1.2-1c1.3-0.9,2.9-1,4.3-0.4c0.4,0.2,0.8,0.5,1.1,0.9
		c0.3,0.3,0.3,0.3,0.7,0.2l3.2-0.8c-0.6-1.3-1.5-2.4-2.6-3.1c-1.9-1.2-4.1-1.6-6.3-1.2c-1.7,0.3-3.3,1-4.7,2.1
		c-0.4,0.4-0.7,0.8-1,1.2c-1.6,1.9-2.3,4.4-2,6.9c0.2,2.1,1.3,4,3,5.2c1.8,1.4,4.1,1.9,6.4,1.6c1.8-0.2,3.4-0.9,4.8-2
		c0.4-0.4,0.7-0.8,1.1-1.2c0.4-0.5,0.7-1.1,1-1.7c0,0.2,0.1,0.3,0.2,0.5c0.3-0.4,0.5-0.8,0.7-1.2c0.4,1.5,1.2,2.8,2.4,3.8
		C67,78.5,69.1,79.3,71.2,79.2z M66.9,70.7c0.3-1.3,1-2.5,2.1-3.2c0.8-0.9,1.8-1.4,2.9-1.7c2.1-0.5,4.2,0.7,4.7,2.8
		c0,0.1,0.1,0.2,0.1,0.4c0,0.3,0.1,0.5,0.1,0.8c0,1.6-0.8,3-2.1,3.9c-0.5,0.6-1.1,1-1.7,1.4c-1.2,0.6-2.6,0.7-3.9,0.1
		C67.4,74.4,66.4,72.5,66.9,70.7z"/>
	<path class="st15" d="M81.5,68c-0.3-2.2-1.5-4.1-3.3-5.3c-2-1.3-4.4-1.7-6.7-1.2c-2.6,0.4-5,1.8-6.6,3.9c-0.7,0.9-1.3,2-1.6,3.1
		h-7.6c-0.3,0-0.5,0.1-0.6,0.4c-0.3,0.6-0.9,1.8-1.2,2.6c-0.2,0.4,0,0.7,0.4,0.7h4.6c-0.2,0.3-0.4,0.6-0.6,0.9c-1,1.2-2.5,1.8-4,1.6
		c-1.8-0.3-3.2-1.8-3.2-3.7c-0.1-1.8,0.9-3.5,2.4-4.5c1.2-0.9,2.9-1.1,4.3-0.4c0.4,0.2,0.8,0.5,1.1,0.9c0.3,0.3,0.3,0.3,0.7,0.2
		c1.5-0.4,2.5-0.7,4-1c0.3-0.1,0.4-0.2,0.2-0.4c-0.6-1.4-1.5-2.5-2.7-3.3c-1.8-1.2-4.1-1.6-6.3-1.2c-2.6,0.5-5,1.9-6.6,4.1
		c-1.6,1.9-2.3,4.4-2,6.9c0.2,2.1,1.3,4,3,5.2c1.8,1.4,4.1,1.9,6.4,1.6c2.7-0.3,5.1-1.8,6.7-4c0.4-0.5,0.7-1.1,1-1.7
		c0.4,1.5,1.2,2.8,2.4,3.8c1.6,1.4,3.7,2.1,5.8,2.1l0,0c0.6-0.1,1.2-0.1,1.9-0.2c2.1-0.4,4.1-1.5,5.7-3C81,74,82,71,81.5,68z
		 M73.8,74.2c-1.2,0.6-2.6,0.7-3.8,0.1c-1.7-0.8-2.6-2.6-2.2-4.5c0.4-2.1,2-3.7,4.1-4.1c2.1-0.5,4.2,0.7,4.7,2.8
		c0,0.1,0.1,0.2,0.1,0.4c0,0.3,0.1,0.5,0.1,0.8C76.8,71.6,75.6,73.4,73.8,74.2z"/>
	<line class="st16" x1="45.9" y1="83.4" x2="64.4" y2="83.4"/>
	<line class="st17" x1="67.9" y1="83.4" x2="73.7" y2="83.4"/>
	<line class="st18" x1="77.3" y1="83.4" x2="81.2" y2="83.4"/>
</g>
</svg>
