<?xml version="1.0" encoding="UTF-8" standalone="no"?>
<svg width="122px" height="105px" viewBox="0 0 122 105" version="1.1" xmlns="http://www.w3.org/2000/svg" xmlns:xlink="http://www.w3.org/1999/xlink" xmlns:sketch="http://www.bohemiancoding.com/sketch/ns">
    <!-- Generator: Sketch 3.3.3 (12081) - http://www.bohemiancoding.com/sketch -->
    <title>lesson-list--java-study</title>
    <desc>Created with Sketch.</desc>
    <defs></defs>
    <g id="Page-1" stroke="none" stroke-width="1" fill="none" fill-rule="evenodd" sketch:type="MSPage">
        <g id="lesson-list--java-study" sketch:type="MSLayerGroup">
            <path d="M107.232,58.112 C107.232,83.148 86.937,103.443 61.902,103.443 C36.866,103.443 16.571,83.148 16.571,58.112 C16.571,33.077 36.866,12.782 61.902,12.782 C86.937,12.782 107.232,33.077 107.232,58.112" id="Fill-1" fill="#E3CFB1" sketch:type="MSShapeGroup"></path>
            <path d="M90.832,39.944 L33.8,39.944 C32.919,39.944 32.203,40.66 32.203,41.541 L32.203,92.854 C40.079,99.46 50.229,103.443 61.313,103.443 C73.364,103.443 84.114,99.468 92.233,91.798 L92.428,41.541 C92.428,40.66 91.712,39.944 90.832,39.944" id="Fill-2" fill="#FFFFFF" sketch:type="MSShapeGroup"></path>
            <path d="M32.627,40.458 L32.559,40.458 L32.559,40.537 C32.581,40.51 32.604,40.484 32.627,40.458 M92.233,40.458 L92.004,40.458 C92.093,40.554 92.17,40.661 92.233,40.777 L92.233,40.458" id="Fill-3" fill="#D2B384" sketch:type="MSShapeGroup"></path>
            <path d="M92.004,40.458 L32.627,40.458 C32.604,40.484 32.581,40.51 32.559,40.537 L32.559,51.042 L92.233,51.042 L92.233,40.777 C92.17,40.661 92.093,40.554 92.004,40.458" id="Fill-4" fill="#D5B88C" sketch:type="MSShapeGroup"></path>
            <path d="M87.831,9.155 C87.831,9.708 87.382,10.157 86.828,10.157 C86.274,10.157 85.826,9.708 85.826,9.155 C85.826,8.601 86.274,8.152 86.828,8.152 C87.382,8.152 87.831,8.601 87.831,9.155" id="Fill-5" fill="#C69E62" sketch:type="MSShapeGroup"></path>
            <path d="M15.938,26.372 C15.938,26.925 15.489,27.374 14.936,27.374 C14.382,27.374 13.933,26.925 13.933,26.372 C13.933,25.818 14.382,25.369 14.936,25.369 C15.489,25.369 15.938,25.818 15.938,26.372" id="Fill-6" fill="#C69E62" sketch:type="MSShapeGroup"></path>
            <path d="M63.905,12.789 C63.905,13.689 63.176,14.419 62.276,14.419 C61.376,14.419 60.647,13.689 60.647,12.789 C60.647,11.89 61.376,11.16 62.276,11.16 C63.176,11.16 63.905,11.89 63.905,12.789" id="Fill-7" fill="#C69E62" sketch:type="MSShapeGroup"></path>
            <path d="M18.194,58.12 C18.194,59.02 17.464,59.749 16.565,59.749 C15.665,59.749 14.936,59.02 14.936,58.12 C14.936,57.22 15.665,56.491 16.565,56.491 C17.464,56.491 18.194,57.22 18.194,58.12" id="Fill-8" fill="#C69E62" sketch:type="MSShapeGroup"></path>
            <path d="M108.855,58.12 C108.855,59.02 108.126,59.749 107.226,59.749 C106.327,59.749 105.597,59.02 105.597,58.12 C105.597,57.22 106.327,56.491 107.226,56.491 C108.126,56.491 108.855,57.22 108.855,58.12" id="Fill-9" fill="#C69E62" sketch:type="MSShapeGroup"></path>
            <path d="M32.845,51.533 L90.131,51.533 C90.407,51.533 90.631,51.309 90.631,51.033 C90.631,50.757 90.407,50.533 90.131,50.533 L32.845,50.533 C32.568,50.533 32.345,50.757 32.345,51.033 C32.345,51.309 32.568,51.533 32.845,51.533" id="Fill-10" fill="#C69E62" sketch:type="MSShapeGroup"></path>
            <path d="M4.831,37.214 L10.117,37.214 C10.337,37.214 10.517,37.036 10.517,36.815 C10.517,36.594 10.337,36.415 10.117,36.415 L4.831,36.415 C4.61,36.415 4.431,36.594 4.431,36.815 C4.431,37.036 4.61,37.214 4.831,37.214" id="Fill-11" fill="#C69E62" sketch:type="MSShapeGroup"></path>
            <path d="M7.873,39.458 L7.873,34.172 C7.873,33.951 7.694,33.772 7.474,33.772 C7.253,33.772 7.074,33.951 7.074,34.172 L7.074,39.458 C7.074,39.679 7.253,39.857 7.474,39.857 C7.694,39.857 7.873,39.679 7.873,39.458" id="Fill-12" fill="#C69E62" sketch:type="MSShapeGroup"></path>
            <path d="M114.144,75.324 L119.43,75.324 C119.65,75.324 119.83,75.145 119.83,74.924 C119.83,74.703 119.65,74.524 119.43,74.524 L114.144,74.524 C113.923,74.524 113.744,74.703 113.744,74.924 C113.744,75.145 113.923,75.324 114.144,75.324" id="Fill-13" fill="#C69E62" sketch:type="MSShapeGroup"></path>
            <path d="M117.187,77.567 L117.187,72.281 C117.187,72.06 117.008,71.881 116.787,71.881 C116.566,71.881 116.387,72.06 116.387,72.281 L116.387,77.567 C116.387,77.787 116.566,77.967 116.787,77.967 C117.008,77.967 117.187,77.787 117.187,77.567" id="Fill-14" fill="#C69E62" sketch:type="MSShapeGroup"></path>
            <path d="M43.595,1.004 L43.595,2.364 C43.595,2.585 43.774,2.764 43.995,2.764 C44.216,2.764 44.395,2.585 44.395,2.364 L44.395,1.004 C44.395,0.783 44.216,0.604 43.995,0.604 C43.774,0.604 43.595,0.783 43.595,1.004" id="Fill-15" fill="#C69E62" sketch:type="MSShapeGroup"></path>
            <path d="M43.595,5.826 L43.595,7.186 C43.595,7.407 43.774,7.586 43.995,7.586 C44.216,7.586 44.395,7.407 44.395,7.186 L44.395,5.826 C44.395,5.605 44.216,5.426 43.995,5.426 C43.774,5.426 43.595,5.605 43.595,5.826" id="Fill-16" fill="#C69E62" sketch:type="MSShapeGroup"></path>
            <path d="M47.148,3.757 L45.788,3.757 C45.567,3.757 45.388,3.936 45.388,4.157 C45.388,4.378 45.567,4.557 45.788,4.557 L47.148,4.557 C47.368,4.557 47.548,4.378 47.548,4.157 C47.548,3.936 47.368,3.757 47.148,3.757" id="Fill-17" fill="#C69E62" sketch:type="MSShapeGroup"></path>
            <path d="M42.295,3.757 L40.935,3.757 C40.714,3.757 40.535,3.936 40.535,4.157 C40.535,4.378 40.714,4.557 40.935,4.557 L42.295,4.557 C42.516,4.557 42.695,4.378 42.695,4.157 C42.695,3.936 42.516,3.757 42.295,3.757" id="Fill-18" fill="#C69E62" sketch:type="MSShapeGroup"></path>
            <path d="M45.986,1.6 L45.024,2.562 C44.868,2.718 44.868,2.972 45.024,3.128 C45.18,3.284 45.434,3.284 45.59,3.128 L46.551,2.166 C46.708,2.01 46.708,1.757 46.551,1.6 C46.395,1.444 46.142,1.444 45.986,1.6" id="Fill-19" fill="#C69E62" sketch:type="MSShapeGroup"></path>
            <path d="M46.551,6.024 L45.59,5.062 C45.434,4.906 45.18,4.906 45.024,5.062 C44.868,5.218 44.868,5.472 45.024,5.628 L45.986,6.589 C46.142,6.746 46.395,6.746 46.551,6.589 C46.708,6.433 46.708,6.18 46.551,6.024" id="Fill-20" fill="#C69E62" sketch:type="MSShapeGroup"></path>
            <path d="M41.429,2.166 L42.391,3.128 C42.547,3.284 42.8,3.284 42.957,3.128 C43.113,2.972 43.113,2.718 42.956,2.562 L41.995,1.6 C41.839,1.444 41.585,1.444 41.429,1.6 C41.273,1.757 41.273,2.01 41.429,2.166" id="Fill-21" fill="#C69E62" sketch:type="MSShapeGroup"></path>
            <path d="M41.995,6.589 L42.956,5.628 C43.113,5.472 43.113,5.218 42.957,5.062 C42.8,4.906 42.547,4.906 42.391,5.062 L41.429,6.024 C41.273,6.18 41.273,6.433 41.429,6.589 C41.585,6.746 41.839,6.746 41.995,6.589" id="Fill-22" fill="#C69E62" sketch:type="MSShapeGroup"></path>
            <path d="M97.761,8.312 L97.361,8.312 C97.359,9.215 96.629,9.945 95.726,9.947 C94.824,9.945 94.093,9.215 94.091,8.312 C94.093,7.41 94.824,6.679 95.726,6.678 C96.629,6.679 97.359,7.41 97.361,8.312 L98.161,8.312 C98.161,6.967 97.071,5.878 95.726,5.878 C94.381,5.878 93.292,6.967 93.292,8.312 C93.292,9.657 94.381,10.747 95.726,10.747 C97.071,10.747 98.161,9.657 98.161,8.312 L97.761,8.312" id="Fill-23" fill="#C69E62" sketch:type="MSShapeGroup"></path>
            <path d="M95.089,17.157 L100.375,17.157 C100.596,17.157 100.775,16.978 100.775,16.757 C100.775,16.536 100.596,16.357 100.375,16.357 L95.089,16.357 C94.868,16.357 94.689,16.536 94.689,16.757 C94.689,16.978 94.868,17.157 95.089,17.157" id="Fill-24" fill="#E6D4B9" sketch:type="MSShapeGroup"></path>
            <path d="M98.132,19.4 L98.132,14.114 C98.132,13.893 97.953,13.714 97.732,13.714 C97.511,13.714 97.332,13.893 97.332,14.114 L97.332,19.4 C97.332,19.621 97.511,19.8 97.732,19.8 C97.953,19.8 98.132,19.621 98.132,19.4" id="Fill-25" fill="#E6D4B9" sketch:type="MSShapeGroup"></path>
            <path d="M117.816,61.773 L117.816,62.87 C117.816,63.091 117.996,63.27 118.217,63.27 C118.437,63.27 118.616,63.091 118.616,62.87 L118.616,61.773 C118.616,61.552 118.437,61.373 118.217,61.373 C117.996,61.373 117.816,61.552 117.816,61.773" id="Fill-26" fill="#E6D4B9" sketch:type="MSShapeGroup"></path>
            <path d="M117.816,65.664 L117.816,66.762 C117.816,66.983 117.996,67.162 118.217,67.162 C118.437,67.162 118.616,66.983 118.616,66.762 L118.616,65.664 C118.616,65.443 118.437,65.264 118.217,65.264 C117.996,65.264 117.816,65.443 117.816,65.664" id="Fill-27" fill="#E6D4B9" sketch:type="MSShapeGroup"></path>
            <path d="M120.761,63.917 L119.663,63.917 C119.442,63.917 119.263,64.096 119.263,64.317 C119.263,64.538 119.442,64.717 119.663,64.717 L120.761,64.717 C120.982,64.717 121.161,64.538 121.161,64.317 C121.161,64.096 120.982,63.917 120.761,63.917" id="Fill-28" fill="#E6D4B9" sketch:type="MSShapeGroup"></path>
            <path d="M116.844,63.917 L115.747,63.917 C115.526,63.917 115.347,64.096 115.347,64.317 C115.347,64.538 115.526,64.717 115.747,64.717 L116.844,64.717 C117.065,64.717 117.244,64.538 117.244,64.317 C117.244,64.096 117.065,63.917 116.844,63.917" id="Fill-29" fill="#E6D4B9" sketch:type="MSShapeGroup"></path>
            <path d="M119.769,62.199 L118.993,62.976 C118.836,63.132 118.836,63.385 118.992,63.541 C119.149,63.697 119.402,63.697 119.558,63.541 L120.334,62.765 C120.491,62.609 120.491,62.356 120.334,62.199 C120.178,62.043 119.925,62.043 119.769,62.199" id="Fill-30" fill="#E6D4B9" sketch:type="MSShapeGroup"></path>
            <path d="M120.334,65.769 L119.558,64.993 C119.402,64.837 119.149,64.837 118.992,64.993 C118.836,65.15 118.836,65.403 118.993,65.559 L119.769,66.335 C119.925,66.491 120.178,66.491 120.334,66.335 C120.491,66.179 120.491,65.926 120.334,65.769" id="Fill-31" fill="#E6D4B9" sketch:type="MSShapeGroup"></path>
            <path d="M116.091,62.765 L116.867,63.541 C117.023,63.697 117.277,63.697 117.433,63.541 C117.589,63.385 117.589,63.132 117.433,62.976 L116.657,62.199 C116.5,62.043 116.247,62.043 116.091,62.199 C115.935,62.356 115.935,62.609 116.091,62.765" id="Fill-32" fill="#E6D4B9" sketch:type="MSShapeGroup"></path>
            <path d="M116.657,66.335 L117.433,65.559 C117.589,65.403 117.589,65.15 117.433,64.993 C117.277,64.837 117.023,64.837 116.867,64.993 L116.091,65.769 C115.935,65.926 115.935,66.179 116.091,66.335 C116.247,66.491 116.5,66.491 116.657,66.335" id="Fill-33" fill="#E6D4B9" sketch:type="MSShapeGroup"></path>
            <path d="M4.831,28.399 L4.431,28.399 C4.429,29.301 3.698,30.032 2.796,30.034 C1.893,30.032 1.163,29.302 1.161,28.399 C1.163,27.496 1.893,26.766 2.796,26.764 C3.698,26.766 4.429,27.496 4.431,28.399 L5.231,28.399 C5.23,27.054 4.141,25.964 2.796,25.964 C1.451,25.964 0.361,27.054 0.361,28.399 C0.361,29.744 1.451,30.833 2.796,30.834 C4.141,30.833 5.23,29.744 5.231,28.399 L4.831,28.399" id="Fill-34" fill="#E6D4B9" sketch:type="MSShapeGroup"></path>
            <path d="M18.109,51.185 C21.06,32.366 35.863,17.468 54.634,14.375 C55.179,14.285 55.548,13.77 55.459,13.225 C55.369,12.68 54.854,12.311 54.309,12.401 C34.682,15.639 19.222,31.199 16.133,50.875 C16.047,51.421 16.42,51.933 16.966,52.018 C17.512,52.104 18.023,51.731 18.109,51.185" id="Fill-35" fill="#C69E62" sketch:type="MSShapeGroup"></path>
            <path d="M105.648,65.329 C102.204,86.376 83.928,102.446 61.902,102.443 C39.529,102.445 21.026,85.867 18.004,64.331 C17.927,63.784 17.421,63.403 16.874,63.48 C16.327,63.557 15.946,64.062 16.023,64.609 C19.183,87.125 38.519,104.441 61.902,104.443 C84.923,104.441 104.02,87.657 107.622,65.652 C107.711,65.107 107.342,64.593 106.797,64.503 C106.252,64.414 105.738,64.784 105.649,65.329 L105.648,65.329" id="Fill-36" fill="#C69E62" sketch:type="MSShapeGroup"></path>
            <path d="M69.032,14.352 C88.013,17.419 102.964,32.55 105.761,51.62 C105.841,52.166 106.349,52.545 106.895,52.464 C107.442,52.384 107.82,51.876 107.74,51.33 C104.812,31.391 89.197,15.588 69.351,12.378 C68.806,12.29 68.292,12.66 68.204,13.205 C68.116,13.751 68.487,14.264 69.032,14.352" id="Fill-37" fill="#C69E62" sketch:type="MSShapeGroup"></path>
            <path d="M90.832,39.944 L90.832,39.444 L33.8,39.444 C32.643,39.445 31.704,40.383 31.704,41.54 L31.704,92.854 C31.704,93.003 31.769,93.142 31.882,93.237 C39.843,99.916 50.109,103.944 61.313,103.943 C73.472,103.945 84.55,99.928 92.771,92.161 C92.871,92.067 92.928,91.935 92.928,91.798 L92.928,41.54 C92.927,40.383 91.989,39.445 90.832,39.444 L90.832,40.444 C91.435,40.445 91.927,40.937 91.928,41.54 L91.928,91.798 L92.428,91.798 L92.085,91.434 C84.066,99.008 73.256,102.942 61.313,102.943 C50.35,102.943 40.315,99.005 32.525,92.471 L32.204,92.854 L32.704,92.854 L32.704,41.54 C32.705,40.937 33.197,40.445 33.8,40.444 L90.832,40.444 L90.832,39.944" id="Fill-38" fill="#C69E62" sketch:type="MSShapeGroup"></path>
            <path d="M35.857,44.047 L37.292,45.54 L35.863,46.969 C35.668,47.164 35.668,47.481 35.863,47.676 C36.059,47.871 36.375,47.871 36.571,47.676 L38.346,45.901 C38.539,45.708 38.542,45.397 38.353,45.2 L36.577,43.354 C36.386,43.155 36.069,43.149 35.871,43.341 C35.671,43.532 35.665,43.848 35.857,44.047" id="Fill-39" fill="#C69E62" sketch:type="MSShapeGroup"></path>
            <path d="M38.559,48.38 L41.217,48.38 C41.493,48.38 41.717,48.156 41.717,47.88 C41.717,47.604 41.493,47.38 41.217,47.38 L38.559,47.38 C38.283,47.38 38.059,47.604 38.059,47.88 C38.059,48.156 38.283,48.38 38.559,48.38" id="Fill-40" fill="#C69E62" sketch:type="MSShapeGroup"></path>
            <path d="M76.022,75.86 C73.292,75.86 71.079,78.073 71.079,80.802 C71.079,83.532 73.292,85.745 76.022,85.745 C78.752,85.745 80.964,83.532 80.964,80.802 C80.964,78.073 78.752,75.86 76.022,75.86 L76.022,75.86 Z M75.886,82.956 C74.696,82.956 73.732,81.992 73.732,80.802 C73.732,79.613 74.696,78.648 75.886,78.648 C77.076,78.648 78.04,79.613 78.04,80.802 C78.04,81.992 77.076,82.956 75.886,82.956 L75.886,82.956 Z" id="Fill-41" fill="#E3CFB1" sketch:type="MSShapeGroup"></path>
            <path d="M76.022,75.86 L76.022,75.36 C73.016,75.36 70.58,77.796 70.579,80.802 C70.58,83.808 73.016,86.244 76.022,86.244 C79.028,86.244 81.464,83.808 81.464,80.802 C81.464,77.796 79.028,75.36 76.022,75.36 L76.022,76.36 C77.25,76.36 78.358,76.856 79.163,77.661 C79.968,78.466 80.464,79.574 80.464,80.802 C80.464,82.03 79.968,83.138 79.163,83.943 C78.358,84.748 77.25,85.244 76.022,85.245 C74.794,85.244 73.686,84.748 72.881,83.943 C72.076,83.138 71.58,82.03 71.579,80.802 C71.58,79.574 72.076,78.466 72.881,77.661 C73.686,76.856 74.794,76.36 76.022,76.36 L76.022,75.86 L76.022,75.86 Z M75.886,82.956 L75.886,82.456 C74.973,82.454 74.234,81.715 74.232,80.802 C74.234,79.889 74.973,79.15 75.886,79.148 C76.799,79.15 77.538,79.889 77.54,80.802 C77.538,81.715 76.799,82.454 75.886,82.456 L75.886,83.456 C77.352,83.456 78.54,82.268 78.54,80.802 C78.54,79.336 77.352,78.149 75.886,78.148 C74.42,78.149 73.232,79.336 73.232,80.802 C73.232,82.268 74.42,83.456 75.886,83.456 L75.886,82.956 L75.886,82.956 Z" id="Fill-42" fill="#C69E62" sketch:type="MSShapeGroup"></path>
            <path d="M75.311,81.014 L75.311,70.356 L50.036,70.356 L50.036,81.014 C50.036,87.696 55.453,93.114 62.135,93.114 L63.211,93.114 C69.894,93.114 75.311,87.696 75.311,81.014" id="Fill-43" fill="#E3CFB1" sketch:type="MSShapeGroup"></path>
            <path d="M63.211,93.114 L63.211,92.614 L59.922,92.614 C56.717,92.613 53.821,91.316 51.72,89.216 C49.62,87.115 48.323,84.218 48.322,81.014 L48.322,70.855 L74.811,70.855 L74.811,81.014 C74.811,84.218 73.513,87.115 71.413,89.216 C69.312,91.316 66.416,92.613 63.211,92.614 L63.211,93.614 C70.17,93.613 75.81,87.973 75.811,81.014 L75.811,70.356 C75.811,70.222 75.759,70.096 75.664,70.002 C75.57,69.907 75.444,69.856 75.311,69.856 L47.822,69.856 C47.691,69.856 47.562,69.909 47.469,70.002 C47.376,70.095 47.322,70.224 47.322,70.356 L47.322,81.014 C47.323,87.973 52.963,93.613 59.922,93.614 L63.211,93.614 L63.211,93.114" id="Fill-44" fill="#C69E62" sketch:type="MSShapeGroup"></path>
            <path d="M49.263,75.392 L70.595,75.392 C70.872,75.392 71.095,75.168 71.095,74.892 C71.095,74.616 70.872,74.392 70.595,74.392 L49.263,74.392 C48.986,74.392 48.763,74.616 48.763,74.892 C48.763,75.168 48.986,75.392 49.263,75.392" id="Fill-45" fill="#C69E62" sketch:type="MSShapeGroup"></path>
            <path d="M63.748,59.474 C63.518,60.999 62.379,62.199 61.36,62.978 C60.34,63.758 59.321,65.857 61.659,67.896 C61.18,65.917 61.659,64.777 62.739,63.938 C63.818,63.098 64.938,61.007 63.748,59.474" id="Fill-46" fill="#E3CFB1" sketch:type="MSShapeGroup"></path>
            <path d="M63.748,59.474 L63.402,59.422 C63.201,60.8 62.134,61.949 61.147,62.7 C60.509,63.191 59.891,64.101 59.886,65.238 C59.883,66.163 60.321,67.198 61.429,68.159 C61.544,68.259 61.711,68.274 61.841,68.195 C61.971,68.116 62.035,67.961 61.999,67.813 C61.878,67.314 61.823,66.879 61.823,66.499 C61.832,65.435 62.222,64.795 62.953,64.214 C63.782,63.56 64.598,62.319 64.609,60.98 C64.61,60.395 64.437,59.789 64.025,59.259 C63.939,59.148 63.796,59.1 63.66,59.135 C63.524,59.171 63.423,59.283 63.402,59.422 L63.748,59.474 L63.472,59.688 C63.784,60.093 63.907,60.526 63.909,60.98 C63.92,62.012 63.196,63.149 62.524,63.662 C61.664,64.318 61.114,65.241 61.123,66.499 C61.123,66.947 61.188,67.436 61.319,67.978 L61.659,67.896 L61.889,67.632 C60.897,66.762 60.589,65.942 60.586,65.238 C60.581,64.374 61.087,63.625 61.572,63.256 C62.624,62.449 63.836,61.199 64.094,59.526 L63.748,59.474 L63.472,59.688 L63.748,59.474" id="Fill-47" fill="#C69E62" sketch:type="MSShapeGroup"></path>
            <path d="M61.36,56.562 C62.196,58.181 61.811,59.26 60.236,60.58 C58.661,61.899 58.781,64.238 59.201,65.137 C59.62,63.038 60.553,61.989 61.599,61.209 C62.646,60.43 63.698,58.001 61.36,56.562" id="Fill-48" fill="#E3CFB1" sketch:type="MSShapeGroup"></path>
            <path d="M61.36,56.562 L61.049,56.722 C61.32,57.248 61.44,57.686 61.44,58.073 C61.439,58.442 61.335,58.778 61.105,59.144 C60.875,59.508 60.512,59.893 60.011,60.311 C58.92,61.229 58.578,62.563 58.578,63.652 C58.58,64.308 58.697,64.881 58.884,65.285 C58.948,65.422 59.093,65.503 59.243,65.485 C59.393,65.467 59.514,65.354 59.544,65.206 C59.956,63.184 60.807,62.245 61.808,61.49 C62.484,60.977 63.107,59.969 63.116,58.829 C63.124,57.922 62.668,56.947 61.543,56.264 C61.409,56.181 61.237,56.198 61.122,56.305 C61.006,56.412 60.976,56.583 61.049,56.722 L61.36,56.562 L61.176,56.86 C62.124,57.453 62.409,58.142 62.416,58.829 C62.426,59.691 61.88,60.573 61.39,60.929 C60.299,61.733 59.285,62.893 58.858,65.068 L59.201,65.137 L59.518,64.989 C59.39,64.72 59.277,64.217 59.278,63.652 C59.278,62.698 59.581,61.581 60.461,60.848 C60.994,60.401 61.408,59.972 61.696,59.519 C61.984,59.067 62.141,58.583 62.14,58.073 C62.14,57.538 61.974,56.99 61.671,56.401 L61.36,56.562 L61.176,56.86 L61.36,56.562" id="Fill-49" fill="#C69E62" sketch:type="MSShapeGroup"></path>
            <path d="M61.025,82.284 C61.418,81.642 62.179,80.95 62.97,80.456 C62.056,79.785 60.63,79.981 59.636,80.975 C58.613,81.998 58.435,83.48 59.18,84.388 C59.828,83.795 60.614,82.957 61.025,82.284" id="Fill-50" fill="#B18046" sketch:type="MSShapeGroup"></path>
            <path d="M61.389,82.506 C60.983,83.172 60.186,84.044 59.487,84.684 C60.399,85.386 61.847,85.197 62.853,84.191 C63.883,83.161 64.057,81.666 63.295,80.76 C62.526,81.222 61.763,81.895 61.389,82.506" id="Fill-51" fill="#B18046" sketch:type="MSShapeGroup"></path>
            <path d="M75.566,93.221 L75.466,93.114 L51.381,93.114 L51.281,93.221 C51.281,94.156 51.988,94.913 52.861,94.913 L73.986,94.913 C74.859,94.913 75.566,94.156 75.566,93.221" id="Fill-52" fill="#E3CFB1" sketch:type="MSShapeGroup"></path>
            <path d="M73.874,94.914 L73.874,94.414 L49.259,94.414 C48.601,94.412 48.068,93.88 48.066,93.221 L47.567,93.221 L47.92,93.575 L48.028,93.467 L47.674,93.114 L47.674,93.614 L75.459,93.614 L75.459,93.114 L75.105,93.467 L75.213,93.575 L75.567,93.221 L75.067,93.221 C75.065,93.88 74.533,94.412 73.874,94.414 L73.874,95.414 C75.085,95.413 76.066,94.432 76.067,93.221 C76.067,93.088 76.014,92.962 75.92,92.868 L75.812,92.76 C75.719,92.667 75.591,92.614 75.459,92.614 L47.674,92.614 C47.543,92.614 47.414,92.667 47.321,92.76 L47.213,92.868 C47.12,92.961 47.067,93.09 47.067,93.221 C47.067,94.432 48.048,95.413 49.259,95.414 L73.874,95.414 L73.874,94.914" id="Fill-53" fill="#C69E62" sketch:type="MSShapeGroup"></path>
        </g>
    </g>
</svg>