<?xml version="1.0" encoding="UTF-8" standalone="no"?>
<svg width="121px" height="105px" viewBox="0 0 121 105" version="1.1" xmlns="http://www.w3.org/2000/svg" xmlns:xlink="http://www.w3.org/1999/xlink" xmlns:sketch="http://www.bohemiancoding.com/sketch/ns">
    <!-- Generator: Sketch 3.3.3 (12081) - http://www.bohemiancoding.com/sketch -->
    <title>jquery-study</title>
    <desc>Created with Sketch.</desc>
    <defs></defs>
    <g id="Page-1" stroke="none" stroke-width="1" fill="none" fill-rule="evenodd" sketch:type="MSPage">
        <g id="lesson-list" sketch:type="MSLayerGroup" transform="translate(-30.000000, -274.000000)">
            <g id="jquery-study" transform="translate(30.000000, 274.000000)" sketch:type="MSShapeGroup">
                <path d="M107.366,57.753 C107.366,82.788 87.07,103.084 62.035,103.084 C36.999,103.084 16.704,82.788 16.704,57.753 C16.704,32.717 36.999,12.422 62.035,12.422 C87.07,12.422 107.366,32.717 107.366,57.753" id="Fill-1" fill="#FBEC9F"></path>
                <path d="M90.551,39.584 L33.519,39.584 C32.638,39.584 31.923,40.3 31.923,41.18 L31.923,92.494 C39.799,99.1 49.948,103.084 61.032,103.084 C73.083,103.084 84.028,98.372 92.147,90.701 L92.147,41.18 C92.147,40.3 91.431,39.584 90.551,39.584" id="Fill-2" fill="#FFFFFF"></path>
                <path d="M90.551,39.584 L90.551,39.084 L33.519,39.084 C32.362,39.085 31.423,40.023 31.423,41.18 L31.423,92.728 L31.601,92.878 C39.562,99.556 49.828,103.584 61.032,103.584 C73.215,103.584 84.283,98.819 92.49,91.065 L92.647,90.917 L92.647,41.18 C92.646,40.023 91.708,39.085 90.551,39.084 L90.551,40.084 C91.154,40.085 91.646,40.577 91.647,41.18 L91.647,90.701 L92.147,90.701 L91.803,90.338 C83.772,97.925 72.952,102.583 61.032,102.583 C50.069,102.583 40.034,98.645 32.244,92.111 L31.923,92.494 L32.423,92.494 L32.423,41.18 C32.424,40.577 32.916,40.085 33.519,40.084 L90.551,40.084 L90.551,39.584" id="Fill-3" fill="#EEE400"></path>
                <path d="M87.971,8.787 C87.971,9.341 87.522,9.79 86.968,9.79 C86.414,9.79 85.965,9.341 85.965,8.787 C85.965,8.233 86.414,7.784 86.968,7.784 C87.522,7.784 87.971,8.233 87.971,8.787" id="Fill-4" fill="#EEC400"></path>
                <path d="M16.078,26.004 C16.078,26.558 15.629,27.007 15.075,27.007 C14.521,27.007 14.072,26.558 14.072,26.004 C14.072,25.45 14.521,25.001 15.075,25.001 C15.629,25.001 16.078,25.45 16.078,26.004" id="Fill-5" fill="#EEC400"></path>
                <path d="M64.044,12.422 C64.044,13.322 63.315,14.051 62.415,14.051 C61.516,14.051 60.786,13.322 60.786,12.422 C60.786,11.522 61.516,10.793 62.415,10.793 C63.315,10.793 64.044,11.522 64.044,12.422" id="Fill-6" fill="#EEC400"></path>
                <path d="M18.333,57.753 C18.333,58.653 17.604,59.382 16.704,59.382 C15.804,59.382 15.075,58.653 15.075,57.753 C15.075,56.853 15.804,56.124 16.704,56.124 C17.604,56.124 18.333,56.853 18.333,57.753" id="Fill-7" fill="#EEC400"></path>
                <path d="M108.995,57.753 C108.995,58.653 108.265,59.382 107.366,59.382 C106.466,59.382 105.737,58.653 105.737,57.753 C105.737,56.853 106.466,56.124 107.366,56.124 C108.265,56.124 108.995,56.853 108.995,57.753" id="Fill-8" fill="#EEC400"></path>
                <path d="M95.222,16.897 L100.508,16.897 C100.784,16.897 101.008,16.673 101.008,16.397 C101.008,16.121 100.784,15.897 100.508,15.897 L95.222,15.897 C94.946,15.897 94.722,16.121 94.722,16.397 C94.722,16.673 94.946,16.897 95.222,16.897" id="Fill-9" fill="#F9EC9F"></path>
                <path d="M98.365,19.04 L98.365,13.754 C98.365,13.478 98.141,13.254 97.865,13.254 C97.589,13.254 97.365,13.478 97.365,13.754 L97.365,19.04 C97.365,19.316 97.589,19.54 97.865,19.54 C98.141,19.54 98.365,19.316 98.365,19.04" id="Fill-10" fill="#F9EC9F"></path>
                <path d="M118.1,61.413 L118.1,62.51 C118.1,62.648 118.211,62.76 118.35,62.76 C118.488,62.76 118.6,62.648 118.6,62.51 L118.6,61.413 C118.6,61.275 118.488,61.163 118.35,61.163 C118.211,61.163 118.1,61.275 118.1,61.413" id="Fill-11" fill="#F9EC9F"></path>
                <path d="M118.1,65.304 L118.1,66.402 C118.1,66.54 118.211,66.652 118.35,66.652 C118.488,66.652 118.6,66.54 118.6,66.402 L118.6,65.304 C118.6,65.166 118.488,65.054 118.35,65.054 C118.211,65.054 118.1,65.166 118.1,65.304" id="Fill-12" fill="#F9EC9F"></path>
                <path id="Fill-13" fill="#F9EC9F" d="M120.894,63.707 L119.796,63.707 C119.658,63.707 119.546,63.819 119.546,63.957 C119.546,64.095 119.658,64.207 119.796,64.207 L120.894,64.207 C121.032,64.207 121.144,64.095 121.144,63.957 C121.144,63.819 121.032,63.707 120.894,63.707"></path>
                <path id="Fill-14" fill="#F9EC9F" d="M116.977,63.707 L115.88,63.707 C115.742,63.707 115.63,63.819 115.63,63.957 C115.63,64.095 115.742,64.207 115.88,64.207 L116.977,64.207 C117.115,64.207 117.227,64.095 117.227,63.957 C117.227,63.819 117.115,63.707 116.977,63.707"></path>
                <path d="M120.008,61.945 L119.232,62.722 C119.134,62.819 119.134,62.978 119.232,63.075 C119.329,63.173 119.488,63.173 119.585,63.075 L120.361,62.299 C120.459,62.201 120.459,62.043 120.361,61.945 C120.264,61.848 120.105,61.848 120.008,61.945" id="Fill-15" fill="#F9EC9F"></path>
                <path d="M120.361,65.516 L119.585,64.74 C119.488,64.642 119.329,64.642 119.232,64.74 C119.134,64.837 119.134,64.995 119.232,65.093 L120.008,65.869 C120.105,65.967 120.264,65.967 120.361,65.869 C120.459,65.772 120.459,65.613 120.361,65.516" id="Fill-16" fill="#F9EC9F"></path>
                <path d="M116.33,62.299 L117.106,63.075 C117.204,63.173 117.362,63.173 117.46,63.075 C117.557,62.978 117.557,62.819 117.46,62.722 L116.684,61.945 C116.586,61.848 116.428,61.848 116.33,61.945 C116.233,62.043 116.233,62.201 116.33,62.299" id="Fill-17" fill="#F9EC9F"></path>
                <path d="M116.684,65.869 L117.46,65.093 C117.557,64.995 117.557,64.837 117.46,64.74 C117.362,64.642 117.204,64.642 117.106,64.74 L116.33,65.516 C116.233,65.613 116.233,65.772 116.33,65.869 C116.428,65.967 116.586,65.967 116.684,65.869" id="Fill-18" fill="#F9EC9F"></path>
                <path d="M4.964,36.955 L10.25,36.955 C10.526,36.955 10.75,36.731 10.75,36.455 C10.75,36.178 10.526,35.955 10.25,35.955 L4.964,35.955 C4.688,35.955 4.464,36.178 4.464,36.455 C4.464,36.731 4.688,36.955 4.964,36.955" id="Fill-19" fill="#EED900"></path>
                <path d="M8.107,39.098 L8.107,33.812 C8.107,33.536 7.883,33.312 7.607,33.312 C7.33,33.312 7.107,33.536 7.107,33.812 L7.107,39.098 C7.107,39.374 7.33,39.598 7.607,39.598 C7.883,39.598 8.107,39.374 8.107,39.098" id="Fill-20" fill="#EED900"></path>
                <path d="M114.277,75.064 L119.563,75.064 C119.839,75.064 120.063,74.84 120.063,74.564 C120.063,74.288 119.839,74.064 119.563,74.064 L114.277,74.064 C114,74.064 113.777,74.288 113.777,74.564 C113.777,74.84 114,75.064 114.277,75.064" id="Fill-21" fill="#EED900"></path>
                <path d="M117.42,77.207 L117.42,71.921 C117.42,71.645 117.196,71.421 116.92,71.421 C116.643,71.421 116.42,71.645 116.42,71.921 L116.42,77.207 C116.42,77.483 116.643,77.707 116.92,77.707 C117.196,77.707 117.42,77.483 117.42,77.207" id="Fill-22" fill="#EED900"></path>
                <path d="M43.728,0.644 L43.728,2.004 C43.728,2.225 43.907,2.404 44.128,2.404 C44.349,2.404 44.528,2.225 44.528,2.004 L44.528,0.644 C44.528,0.423 44.349,0.244 44.128,0.244 C43.907,0.244 43.728,0.423 43.728,0.644" id="Fill-23" fill="#EED900"></path>
                <path d="M43.728,5.466 L43.728,6.826 C43.728,7.047 43.907,7.226 44.128,7.226 C44.349,7.226 44.528,7.047 44.528,6.826 L44.528,5.466 C44.528,5.245 44.349,5.066 44.128,5.066 C43.907,5.066 43.728,5.245 43.728,5.466" id="Fill-24" fill="#EED900"></path>
                <path d="M47.281,3.397 L45.921,3.397 C45.7,3.397 45.521,3.576 45.521,3.797 C45.521,4.018 45.7,4.197 45.921,4.197 L47.281,4.197 C47.502,4.197 47.681,4.018 47.681,3.797 C47.681,3.576 47.502,3.397 47.281,3.397" id="Fill-25" fill="#EED900"></path>
                <path d="M42.428,3.397 L41.068,3.397 C40.847,3.397 40.668,3.576 40.668,3.797 C40.668,4.018 40.847,4.197 41.068,4.197 L42.428,4.197 C42.649,4.197 42.828,4.018 42.828,3.797 C42.828,3.576 42.649,3.397 42.428,3.397" id="Fill-26" fill="#EED900"></path>
                <path d="M46.119,1.241 L45.157,2.202 C45.001,2.358 45.001,2.612 45.157,2.768 C45.313,2.924 45.566,2.924 45.723,2.768 L46.684,1.806 C46.841,1.65 46.841,1.397 46.684,1.241 C46.528,1.084 46.275,1.084 46.119,1.241" id="Fill-27" fill="#EED900"></path>
                <path d="M46.684,5.664 L45.723,4.702 C45.566,4.546 45.313,4.546 45.157,4.702 C45.001,4.858 45.001,5.112 45.157,5.268 L46.119,6.23 C46.275,6.386 46.528,6.386 46.684,6.229 C46.841,6.073 46.841,5.82 46.684,5.664" id="Fill-28" fill="#EED900"></path>
                <path d="M41.562,1.806 L42.524,2.768 C42.68,2.924 42.933,2.924 43.09,2.768 C43.246,2.612 43.246,2.358 43.09,2.202 L42.128,1.241 C41.972,1.084 41.719,1.084 41.562,1.241 C41.406,1.397 41.406,1.65 41.562,1.806" id="Fill-29" fill="#EED900"></path>
                <path d="M42.128,6.23 L43.09,5.268 C43.246,5.112 43.246,4.858 43.09,4.702 C42.933,4.546 42.68,4.546 42.524,4.702 L41.562,5.664 C41.406,5.82 41.406,6.073 41.562,6.229 C41.719,6.386 41.972,6.386 42.128,6.23" id="Fill-30" fill="#EED900"></path>
                <path d="M97.894,7.952 L97.394,7.952 C97.393,8.8 96.707,9.486 95.859,9.487 C95.012,9.486 94.326,8.8 94.324,7.952 C94.326,7.105 95.012,6.419 95.859,6.418 C96.707,6.419 97.393,7.105 97.394,7.952 L98.394,7.952 C98.394,6.552 97.259,5.418 95.859,5.418 C94.459,5.418 93.325,6.552 93.325,7.952 C93.325,9.352 94.459,10.487 95.859,10.487 C97.259,10.487 98.394,9.352 98.394,7.952 L97.894,7.952" id="Fill-31" fill="#EED900"></path>
                <path d="M4.964,28.039 L4.464,28.039 C4.462,28.886 3.776,29.572 2.929,29.574 C2.081,29.572 1.396,28.886 1.394,28.039 C1.396,27.191 2.081,26.506 2.929,26.504 C3.776,26.506 4.462,27.191 4.464,28.039 L5.464,28.039 C5.463,26.639 4.329,25.504 2.929,25.504 C1.529,25.504 0.394,26.639 0.394,28.039 C0.394,29.439 1.529,30.574 2.929,30.574 C4.329,30.574 5.463,29.439 5.464,28.039 L4.964,28.039" id="Fill-32" fill="#F9EC9F"></path>
                <path d="M90.551,40.084 L33.519,40.084 C32.916,40.085 32.424,40.577 32.423,41.18 L32.423,51.115 L91.647,51.115 L91.647,41.18 C91.646,40.577 91.154,40.085 90.551,40.084" id="Fill-33" fill="#F6DB65"></path>
                <path d="M92.147,39.887 L31.923,39.887 L31.923,51.115 L32.423,51.115 L32.423,41.18 C32.424,40.577 32.916,40.085 33.519,40.084 L90.551,40.084 C91.154,40.085 91.646,40.577 91.647,41.18 L91.647,51.115 L92.147,51.115 L92.147,39.887" id="Fill-34" fill="#F0D319"></path>
                <path d="M69.667,68.315 C71.347,69.994 73.967,70.125 75.814,68.743 C75.908,68.612 75.999,68.481 76.079,68.344 C74.274,69.392 71.925,69.149 70.38,67.603 C68.834,66.057 68.591,63.708 69.639,61.903 C69.501,61.983 69.37,62.075 69.239,62.168 C67.857,64.016 67.988,66.636 69.667,68.315" id="Fill-35" fill="#F9E476"></path>
                <path d="M64.447,73.606 C61.356,70.515 60.869,65.817 62.965,62.207 C62.441,62.512 61.947,62.884 61.476,63.294 C58.429,66.933 59.244,71.834 62.732,75.321 C66.219,78.809 71.119,79.624 74.758,76.577 C75.169,76.106 75.541,75.613 75.846,75.088 C72.236,77.184 67.538,76.697 64.447,73.606" id="Fill-36" fill="#F9E476"></path>
                <path d="M56.94,81.273 C51.788,76.121 50.977,68.291 54.47,62.275 C53.547,62.81 52.666,63.441 51.843,64.176 C46.146,70.311 46.94,79.27 52.941,85.271 C58.942,91.272 67.902,92.067 74.038,86.369 C74.771,85.547 75.402,84.665 75.938,83.743 C69.921,87.236 62.092,86.424 56.94,81.273" id="Fill-37" fill="#F9E476"></path>
                <path d="M70.39,67.592 L70.743,67.239 C69.92,66.416 69.512,65.343 69.511,64.264 C69.511,63.53 69.701,62.797 70.081,62.144 C70.195,61.948 70.162,61.7 70.002,61.539 C69.842,61.379 69.593,61.347 69.398,61.461 C69.018,61.681 68.654,61.95 68.324,62.281 C67.306,63.298 66.795,64.636 66.796,65.969 C66.795,67.303 67.306,68.641 68.324,69.658 C69.341,70.676 70.679,71.187 72.013,71.186 C73.346,71.187 74.684,70.676 75.701,69.658 C76.032,69.328 76.301,68.964 76.521,68.584 C76.635,68.389 76.603,68.14 76.442,67.98 C76.282,67.82 76.034,67.787 75.838,67.901 C75.185,68.28 74.451,68.47 73.717,68.47 C72.639,68.47 71.566,68.062 70.743,67.239 L70.036,67.946 C71.052,68.962 72.387,69.471 73.717,69.47 C74.623,69.47 75.531,69.235 76.34,68.766 L76.089,68.333 L75.656,68.082 C75.474,68.396 75.257,68.688 74.994,68.951 C74.169,69.775 73.093,70.186 72.013,70.186 C70.932,70.186 69.856,69.775 69.031,68.951 C68.206,68.126 67.796,67.05 67.796,65.969 C67.796,64.888 68.206,63.812 69.031,62.988 C69.294,62.725 69.586,62.507 69.9,62.325 L69.649,61.893 L69.216,61.642 C68.746,62.451 68.511,63.358 68.511,64.264 C68.511,65.595 69.02,66.93 70.036,67.946 L70.39,67.592" id="Fill-38" fill="#E9C800"></path>
                <path d="M64.447,73.535 L64.801,73.181 C63.058,71.438 62.191,69.162 62.191,66.879 C62.191,65.325 62.593,63.771 63.398,62.387 C63.511,62.191 63.479,61.943 63.319,61.782 C63.159,61.622 62.91,61.59 62.714,61.703 C61.989,62.125 61.296,62.638 60.669,63.264 C58.914,65.016 58.086,67.147 58.088,69.294 C58.089,71.896 59.282,74.507 61.378,76.604 C63.475,78.7 66.085,79.892 68.687,79.893 C70.835,79.896 72.966,79.068 74.717,77.313 C75.344,76.686 75.857,75.993 76.278,75.268 C76.392,75.072 76.36,74.823 76.2,74.663 C76.039,74.503 75.791,74.471 75.595,74.584 C74.211,75.388 72.657,75.791 71.103,75.791 C68.82,75.79 66.543,74.923 64.801,73.181 L64.447,73.535 L64.094,73.888 C66.029,75.824 68.568,76.791 71.103,76.791 C72.829,76.791 74.557,76.343 76.097,75.449 L75.846,75.017 L75.414,74.766 C75.03,75.426 74.57,76.046 74.01,76.606 C72.429,78.183 70.581,78.89 68.687,78.893 C66.397,78.894 64.025,77.836 62.085,75.897 C60.146,73.957 59.087,71.585 59.088,69.294 C59.091,67.401 59.798,65.553 61.376,63.972 C61.936,63.412 62.556,62.951 63.216,62.568 L62.965,62.136 L62.533,61.885 C61.638,63.425 61.191,65.153 61.191,66.879 C61.19,69.414 62.158,71.953 64.094,73.888 L64.447,73.535" id="Fill-39" fill="#E9C800"></path>
                <path d="M56.709,81.273 L57.063,80.919 C54.094,77.95 52.616,74.068 52.615,70.179 C52.615,67.532 53.301,64.884 54.672,62.526 C54.785,62.33 54.753,62.081 54.593,61.921 C54.433,61.761 54.184,61.728 53.988,61.842 C52.801,62.531 51.671,63.369 50.648,64.391 C47.663,67.374 46.234,71.095 46.236,74.844 C46.236,79.051 48.024,83.291 51.357,86.625 C54.69,89.958 58.93,91.746 63.138,91.746 C66.887,91.748 70.608,90.319 73.591,87.334 C74.613,86.311 75.451,85.181 76.14,83.994 C76.254,83.798 76.221,83.549 76.061,83.389 C75.901,83.229 75.652,83.197 75.456,83.31 C73.097,84.68 70.45,85.366 67.802,85.366 C63.913,85.366 60.032,83.887 57.063,80.919 L56.709,81.273 L56.356,81.626 C59.517,84.788 63.661,86.367 67.802,86.366 C70.622,86.366 73.444,85.635 75.958,84.175 L75.707,83.743 L75.275,83.492 C74.624,84.613 73.838,85.672 72.884,86.626 C70.08,89.428 66.635,90.744 63.138,90.746 C59.215,90.746 55.225,89.078 52.065,85.917 C48.904,82.756 47.235,78.766 47.236,74.844 C47.238,71.347 48.554,67.902 51.355,65.098 C52.31,64.144 53.369,63.358 54.49,62.707 L54.239,62.275 L53.807,62.023 C52.346,64.538 51.615,67.359 51.615,70.179 C51.615,74.32 53.194,78.465 56.356,81.626 L56.709,81.273" id="Fill-40" fill="#E9C800"></path>
                <path d="M90.551,39.584 L90.551,39.084 L33.519,39.084 C32.362,39.085 31.423,40.023 31.423,41.181 L31.423,92.728 L31.601,92.878 C39.562,99.556 49.828,103.584 61.032,103.583 C73.215,103.584 84.283,98.819 92.49,91.065 L92.647,90.917 L92.647,41.181 C92.646,40.023 91.708,39.085 90.551,39.084 L90.551,40.084 C91.154,40.085 91.646,40.577 91.647,41.181 L91.647,90.701 L92.147,90.701 L91.804,90.338 C83.772,97.925 72.952,102.583 61.032,102.584 C50.069,102.583 40.034,98.645 32.244,92.111 L31.923,92.494 L32.423,92.494 L32.423,41.181 C32.424,40.577 32.916,40.085 33.519,40.084 L90.551,40.084 L90.551,39.584" id="Fill-41" fill="#EEC400"></path>
                <path d="M32.564,51.173 L89.85,51.173 C90.126,51.173 90.35,50.949 90.35,50.673 C90.35,50.397 90.126,50.173 89.85,50.173 L32.564,50.173 C32.288,50.173 32.064,50.397 32.064,50.673 C32.064,50.949 32.288,51.173 32.564,51.173" id="Fill-42" fill="#EEC400"></path>
                <path d="M38.691,45.538 C38.691,46.091 38.242,46.541 37.688,46.541 C37.134,46.541 36.685,46.091 36.685,45.538 C36.685,44.984 37.134,44.535 37.688,44.535 C38.242,44.535 38.691,44.984 38.691,45.538" id="Fill-43" fill="#F9EC9F"></path>
                <path d="M38.691,45.538 L38.191,45.538 C38.19,45.815 37.965,46.04 37.688,46.041 C37.41,46.04 37.185,45.815 37.185,45.538 C37.185,45.26 37.41,45.035 37.688,45.035 C37.965,45.035 38.19,45.26 38.191,45.538 L39.191,45.538 C39.19,44.707 38.518,44.035 37.688,44.035 C36.858,44.035 36.185,44.707 36.185,45.538 C36.185,46.368 36.857,47.04 37.688,47.04 C38.518,47.04 39.19,46.368 39.191,45.538 L38.691,45.538" id="Fill-44" fill="#EEB200"></path>
                <path d="M42.577,45.538 C42.577,46.091 42.128,46.541 41.574,46.541 C41.02,46.541 40.571,46.091 40.571,45.538 C40.571,44.984 41.02,44.535 41.574,44.535 C42.128,44.535 42.577,44.984 42.577,45.538" id="Fill-45" fill="#F9EC9F"></path>
                <path d="M42.577,45.538 L42.077,45.538 C42.076,45.815 41.851,46.04 41.574,46.041 C41.296,46.04 41.072,45.815 41.071,45.538 C41.072,45.26 41.296,45.035 41.574,45.035 C41.851,45.035 42.076,45.26 42.077,45.538 L43.077,45.538 C43.076,44.707 42.404,44.035 41.574,44.035 C40.744,44.035 40.071,44.707 40.071,45.538 C40.071,46.368 40.744,47.04 41.574,47.04 C42.404,47.04 43.076,46.368 43.077,45.538 L42.577,45.538" id="Fill-46" fill="#EEB200"></path>
                <path d="M46.463,45.538 C46.463,46.091 46.014,46.541 45.46,46.541 C44.906,46.541 44.457,46.091 44.457,45.538 C44.457,44.984 44.906,44.535 45.46,44.535 C46.014,44.535 46.463,44.984 46.463,45.538" id="Fill-47" fill="#F9EC9F"></path>
                <path d="M46.463,45.538 L45.963,45.538 C45.962,45.815 45.737,46.04 45.46,46.041 C45.182,46.04 44.958,45.815 44.957,45.538 C44.958,45.26 45.182,45.035 45.46,45.035 C45.738,45.035 45.962,45.26 45.963,45.538 L46.963,45.538 C46.963,44.707 46.29,44.035 45.46,44.035 C44.63,44.035 43.957,44.707 43.957,45.538 C43.957,46.368 44.63,47.04 45.46,47.04 C46.29,47.04 46.963,46.368 46.963,45.538 L46.463,45.538" id="Fill-48" fill="#EEB200"></path>
                <path d="M18.242,50.825 C21.193,32.007 35.996,17.108 54.767,14.015 C55.312,13.925 55.681,13.41 55.591,12.865 C55.502,12.321 54.987,11.952 54.442,12.041 C34.815,15.279 19.355,30.839 16.266,50.516 C16.18,51.061 16.553,51.573 17.099,51.659 C17.645,51.744 18.156,51.371 18.242,50.826 L18.242,50.825" id="Fill-49" fill="#EEC400"></path>
                <path d="M105.781,64.969 C102.337,86.016 84.061,102.086 62.035,102.084 C39.662,102.086 21.159,85.507 18.137,63.971 C18.06,63.424 17.554,63.043 17.007,63.12 C16.46,63.197 16.079,63.702 16.156,64.249 C19.316,86.765 38.652,104.081 62.035,104.084 C85.055,104.081 104.153,87.297 107.755,65.292 C107.844,64.747 107.475,64.233 106.93,64.144 C106.385,64.054 105.871,64.424 105.782,64.969 L105.781,64.969" id="Fill-50" fill="#EEC400"></path>
                <path d="M69.165,13.992 C88.146,17.059 103.097,32.19 105.894,51.26 C105.974,51.807 106.482,52.185 107.028,52.105 C107.575,52.024 107.953,51.516 107.873,50.97 C104.945,31.031 89.33,15.228 69.484,12.018 C68.939,11.93 68.425,12.3 68.337,12.846 C68.249,13.391 68.62,13.904 69.165,13.992" id="Fill-51" fill="#EEC400"></path>
            </g>
        </g>
    </g>
</svg>