<svg xmlns="http://www.w3.org/2000/svg" xmlns:xlink="http://www.w3.org/1999/xlink" viewBox="0 0 122 105"><defs><style>.cls-1,.cls-12,.cls-13,.cls-14,.cls-7{fill:none;}.cls-1{clip-rule:evenodd;}.cls-2{fill:#c9f7cf;}.cls-3{fill:#fff;}.cls-4{fill:#edb92b;}.cls-5{fill:#6cbe2d;}.cls-6{fill:#a8e573;}.cls-13,.cls-14,.cls-7{stroke:#6cbe2d;}.cls-13,.cls-7{stroke-miterlimit:10;}.cls-8{clip-path:url(#clip-path);}.cls-10,.cls-9{opacity:0.6;}.cls-10{fill:#7cda33;}.cls-11{fill:#dcf3df;}.cls-13,.cls-14{stroke-width:1.08px;}.cls-13{fill-rule:evenodd;}.cls-14{stroke-linecap:round;stroke-linejoin:round;}</style><clipPath id="clip-path"><path class="cls-1" d="M63.19,60.28a1.65,1.65,0,0,0-1.64,0L47.91,68.15a1.65,1.65,0,0,0-.82,1.43V85.33a1.64,1.64,0,0,0,.82,1.43l13.64,7.88a1.65,1.65,0,0,0,1.64,0l13.64-7.88a1.64,1.64,0,0,0,.82-1.43V69.58a1.65,1.65,0,0,0-.82-1.43Z"/></clipPath></defs><title>アートボード 129</title><g id="言語一覧"><circle class="cls-2" cx="61.9" cy="57.48" r="45.33"/><path class="cls-3" d="M90.83,39.31h-57a1.6,1.6,0,0,0-1.6,1.6V92.22a45.3,45.3,0,0,0,60.23-1.79V40.91A1.6,1.6,0,0,0,90.83,39.31Z"/><path class="cls-4" d="M61.31,103.31a45.9,45.9,0,0,1-29.43-10.7l-.18-.15V40.91a2.1,2.1,0,0,1,2.1-2.1h57a2.1,2.1,0,0,1,2.1,2.1V90.65l-.16.14A45.6,45.6,0,0,1,61.31,103.31ZM32.7,92a44.82,44.82,0,0,0,59.23-1.77V40.91a1.1,1.1,0,0,0-1.1-1.1h-57a1.11,1.11,0,0,0-1.1,1.1Z"/><circle class="cls-5" cx="86.84" cy="8.52" r="1"/><circle class="cls-5" cx="14.94" cy="25.73" r="1"/><circle class="cls-5" cx="62.28" cy="12.15" r="1.63"/><circle class="cls-5" cx="16.57" cy="57.48" r="1.63"/><circle class="cls-5" cx="107.23" cy="57.48" r="1.63"/><rect class="cls-6" x="32.2" y="39.62" width="60.22" height="11.23"/><path class="cls-5" d="M90.13,50.9H32.85a.5.5,0,0,1-.5-.5.5.5,0,0,1,.5-.5H90.13a.5.5,0,0,1,.5.5A.5.5,0,0,1,90.13,50.9Z"/><path class="cls-5" d="M10.12,36.68H4.83a.5.5,0,0,1-.5-.5.5.5,0,0,1,.5-.5h5.29a.51.51,0,0,1,.5.5A.5.5,0,0,1,10.12,36.68Z"/><path class="cls-5" d="M7.47,39.33a.51.51,0,0,1-.5-.5V33.54a.51.51,0,0,1,.5-.5.5.5,0,0,1,.5.5v5.29A.5.5,0,0,1,7.47,39.33Z"/><path class="cls-5" d="M119.43,74.79h-5.29a.5.5,0,0,1-.5-.5.51.51,0,0,1,.5-.5h5.29a.5.5,0,0,1,.5.5A.5.5,0,0,1,119.43,74.79Z"/><path class="cls-5" d="M116.79,77.44a.5.5,0,0,1-.5-.5V71.65a.5.5,0,0,1,.5-.5.5.5,0,0,1,.5.5v5.29A.51.51,0,0,1,116.79,77.44Z"/><path class="cls-5" d="M44,2.13a.4.4,0,0,1-.4-.4V.37a.4.4,0,0,1,.8,0V1.73A.4.4,0,0,1,44,2.13Z"/><path class="cls-5" d="M44,7a.4.4,0,0,1-.4-.4V5.2a.4.4,0,0,1,.8,0V6.56A.4.4,0,0,1,44,7Z"/><path class="cls-5" d="M47.15,3.93H45.79a.4.4,0,1,1,0-.8h1.36a.4.4,0,0,1,0,.8Z"/><path class="cls-5" d="M42.3,3.93H40.94a.4.4,0,1,1,0-.8H42.3a.4.4,0,0,1,0,.8Z"/><path class="cls-5" d="M45.31,2.61A.41.41,0,0,1,45,2.5a.42.42,0,0,1,0-.57l1-1a.39.39,0,0,1,.56,0,.4.4,0,0,1,0,.57l-1,1A.38.38,0,0,1,45.31,2.61Z"/><path class="cls-5" d="M46.27,6.08A.38.38,0,0,1,46,6L45,5a.4.4,0,0,1,.57-.57l1,1a.41.41,0,0,1-.28.69Z"/><path class="cls-5" d="M42.67,2.61a.38.38,0,0,1-.28-.11l-1-1A.4.4,0,0,1,42,1l1,1a.42.42,0,0,1,0,.57A.39.39,0,0,1,42.67,2.61Z"/><path class="cls-5" d="M41.71,6.08a.41.41,0,0,1-.28-.69l1-1A.4.4,0,0,1,43,5L42,6A.4.4,0,0,1,41.71,6.08Z"/><path class="cls-5" d="M95.73,10.22a2.54,2.54,0,1,1,2.53-2.54A2.54,2.54,0,0,1,95.73,10.22Zm0-4.07a1.54,1.54,0,1,0,1.53,1.53A1.54,1.54,0,0,0,95.73,6.15Z"/><path class="cls-5" d="M100.38,16.63H95.09a.5.5,0,0,1-.5-.5.5.5,0,0,1,.5-.5h5.29a.5.5,0,0,1,.5.5A.51.51,0,0,1,100.38,16.63Z"/><path class="cls-5" d="M97.73,19.27a.5.5,0,0,1-.5-.5V13.48a.51.51,0,0,1,.5-.5.5.5,0,0,1,.5.5v5.29A.5.5,0,0,1,97.73,19.27Z"/><path class="cls-5" d="M118.22,62.64a.4.4,0,0,1-.4-.4v-1.1a.4.4,0,1,1,.8,0v1.1A.4.4,0,0,1,118.22,62.64Z"/><path class="cls-5" d="M118.22,66.53a.4.4,0,0,1-.4-.4V65a.4.4,0,0,1,.8,0v1.1A.4.4,0,0,1,118.22,66.53Z"/><path class="cls-5" d="M120.76,64.09h-1.1a.4.4,0,1,1,0-.8h1.1a.4.4,0,1,1,0,.8Z"/><path class="cls-5" d="M116.84,64.09h-1.09a.4.4,0,0,1,0-.8h1.09a.4.4,0,1,1,0,.8Z"/><path class="cls-5" d="M119.28,63a.4.4,0,0,1-.29-.12.4.4,0,0,1,0-.56l.78-.78a.39.39,0,0,1,.56,0,.4.4,0,0,1,0,.56l-.78.78A.39.39,0,0,1,119.28,63Z"/><path class="cls-5" d="M120.05,65.82a.39.39,0,0,1-.28-.12l-.78-.77a.4.4,0,0,1,.57-.57l.78.78a.4.4,0,0,1,0,.56A.42.42,0,0,1,120.05,65.82Z"/><path class="cls-5" d="M117.15,63a.39.39,0,0,1-.28-.12l-.78-.78a.4.4,0,0,1,0-.56.4.4,0,0,1,.57,0l.77.78a.39.39,0,0,1,0,.56A.39.39,0,0,1,117.15,63Z"/><path class="cls-5" d="M116.38,65.82a.4.4,0,0,1-.29-.12.4.4,0,0,1,0-.56l.78-.78a.4.4,0,0,1,.56,0,.4.4,0,0,1,0,.57l-.77.77A.39.39,0,0,1,116.38,65.82Z"/><path class="cls-5" d="M2.8,30.3a2.54,2.54,0,1,1,2.53-2.53A2.54,2.54,0,0,1,2.8,30.3Zm0-4.07a1.54,1.54,0,1,0,1.53,1.54A1.54,1.54,0,0,0,2.8,26.23Z"/><path class="cls-5" d="M17.12,51.4H17a1,1,0,0,1-.84-1.14A46.2,46.2,0,0,1,54.31,11.77a1,1,0,0,1,.33,2A44.2,44.2,0,0,0,18.11,50.55,1,1,0,0,1,17.12,51.4Z"/><path class="cls-5" d="M61.9,103.81A46.5,46.5,0,0,1,16,64a1,1,0,0,1,.86-1.13A1,1,0,0,1,18,63.7a44.34,44.34,0,0,0,87.65,1,1,1,0,1,1,2,.32A46.12,46.12,0,0,1,61.9,103.81Z"/><path class="cls-5" d="M106.75,51.84a1,1,0,0,1-1-.85A44.11,44.11,0,0,0,69,13.72a1,1,0,0,1-.82-1.15,1,1,0,0,1,1.14-.82,46.07,46.07,0,0,1,38.39,39,1,1,0,0,1-.84,1.13Z"/><path class="cls-5" d="M61.31,103.31a45.9,45.9,0,0,1-29.43-10.7l-.18-.15V40.91a2.1,2.1,0,0,1,2.1-2.1h57a2.1,2.1,0,0,1,2.1,2.1V90.65l-.16.14A45.6,45.6,0,0,1,61.31,103.31ZM32.7,92a44.82,44.82,0,0,0,59.23-1.77V40.91a1.1,1.1,0,0,0-1.1-1.1h-57a1.11,1.11,0,0,0-1.1,1.1Z"/><ellipse class="cls-7" cx="39.07" cy="45.19" rx="1" ry="0.99"/><ellipse class="cls-7" cx="42.95" cy="45.19" rx="1" ry="0.99"/><ellipse class="cls-7" cx="46.84" cy="45.19" rx="1" ry="0.99"/><g class="cls-8"><g class="cls-9"><path class="cls-10" d="M62.84,61.17,49.18,69a1.69,1.69,0,0,0-.89,1.42V86.22a1.57,1.57,0,0,0,.43,1L64.08,61A1.63,1.63,0,0,0,62.84,61.17Z"/><path class="cls-11" d="M64.15,95.68a2.14,2.14,0,0,0,.39-.16l13.65-7.88A1.67,1.67,0,0,0,79,86.22V70.46a1.63,1.63,0,0,0-.49-1.14Z"/><path class="cls-5" d="M78.18,69,64.5,61.17c-.13-.08-1.33-.81-1.48-.85L48.72,87.26a1.87,1.87,0,0,0,.46.38l13.7,7.88a1.67,1.67,0,0,0,1.27.16l14.4-26.36A1.64,1.64,0,0,0,78.18,69Z"/></g><path class="cls-12" d="M79,86.22V70.46A1.66,1.66,0,0,0,78.18,69L64.5,61.17A1.67,1.67,0,0,0,64,61L79,86.59A1.14,1.14,0,0,0,79,86.22Z"/><path class="cls-12" d="M49.18,69a1.69,1.69,0,0,0-.89,1.42V86.22a1.71,1.71,0,0,0,.89,1.42l13.7,7.88a1.61,1.61,0,0,0,1,.2L49.26,69Z"/><polygon class="cls-12" points="62.42 58.27 62.23 58.38 62.48 58.38 62.42 58.27"/><path class="cls-11" d="M78.19,87.64a1.73,1.73,0,0,0,.8-1L63.21,61.1c-.39-.08,0-.14-.37.07L48.47,69.46,63.4,95.83a5.66,5.66,0,0,0,1.14-.31Z"/><polygon class="cls-12" points="79.46 87.39 79.37 87.23 79.37 87.44 79.46 87.39"/><path class="cls-12" d="M78.19,87.64,64.54,95.52a1.51,1.51,0,0,1-.61.2l.27.5,15.17-8.78v-.2L79,86.59A1.73,1.73,0,0,1,78.19,87.64Z"/><path class="cls-12" d="M78.19,87.64,64.54,95.52a1.51,1.51,0,0,1-.61.2l.27.5,15.17-8.78v-.2L79,86.59A1.73,1.73,0,0,1,78.19,87.64Z"/></g><path class="cls-13" d="M62.88,60a1.61,1.61,0,0,0-1.64,0L47.6,67.91a1.65,1.65,0,0,0-.83,1.42V85.09a1.63,1.63,0,0,0,.83,1.42l13.64,7.88a1.65,1.65,0,0,0,1.64,0l13.64-7.88a1.63,1.63,0,0,0,.82-1.42V69.33a1.64,1.64,0,0,0-.82-1.42Z"/><line class="cls-14" x1="62.15" y1="60.12" x2="73.84" y2="78.09"/><line class="cls-14" x1="53.52" y1="78.49" x2="62.22" y2="94.48"/></g></svg>