<?xml version="1.0" encoding="UTF-8" standalone="no"?>
<svg width="121px" height="105px" viewBox="0 0 121 105" version="1.1" xmlns="http://www.w3.org/2000/svg" xmlns:xlink="http://www.w3.org/1999/xlink" xmlns:sketch="http://www.bohemiancoding.com/sketch/ns">
    <!-- Generator: Sketch 3.3.3 (12081) - http://www.bohemiancoding.com/sketch -->
    <title>lesson-list--php-study</title>
    <desc>Created with Sketch.</desc>
    <defs></defs>
    <g id="Page-1" stroke="none" stroke-width="1" fill="none" fill-rule="evenodd" sketch:type="MSPage">
        <g id="lesson-list" sketch:type="MSLayerGroup" transform="translate(-31.000000, -685.000000)">
            <g id="lesson-list--php-study" transform="translate(30.000000, 685.000000)" sketch:type="MSShapeGroup">
                <path d="M107.998,58.315 C107.998,83.351 87.703,103.646 62.667,103.646 C37.632,103.646 17.337,83.351 17.337,58.315 C17.337,33.28 37.632,12.984 62.667,12.984 C87.703,12.984 107.998,33.28 107.998,58.315" id="Fill-1" fill="#E3DCF3"></path>
                <path d="M88.564,9.349 C88.564,9.903 88.115,10.352 87.561,10.352 C87.007,10.352 86.558,9.903 86.558,9.349 C86.558,8.796 87.007,8.347 87.561,8.347 C88.115,8.347 88.564,8.796 88.564,9.349" id="Fill-2" fill="#B7A6DF"></path>
                <path d="M16.671,26.567 C16.671,27.12 16.222,27.569 15.668,27.569 C15.114,27.569 14.665,27.12 14.665,26.567 C14.665,26.013 15.114,25.564 15.668,25.564 C16.222,25.564 16.671,26.013 16.671,26.567" id="Fill-3" fill="#B7A6DF"></path>
                <path d="M64.637,12.984 C64.637,13.884 63.908,14.613 63.008,14.613 C62.109,14.613 61.379,13.884 61.379,12.984 C61.379,12.085 62.109,11.355 63.008,11.355 C63.908,11.355 64.637,12.085 64.637,12.984" id="Fill-4" fill="#B7A6DF"></path>
                <path d="M18.926,58.315 C18.926,59.215 18.197,59.944 17.297,59.944 C16.397,59.944 15.668,59.215 15.668,58.315 C15.668,57.415 16.397,56.686 17.297,56.686 C18.197,56.686 18.926,57.415 18.926,58.315" id="Fill-5" fill="#B7A6DF"></path>
                <path d="M109.588,58.315 C109.588,59.215 108.858,59.944 107.959,59.944 C107.059,59.944 106.33,59.215 106.33,58.315 C106.33,57.415 107.059,56.686 107.959,56.686 C108.858,56.686 109.588,57.415 109.588,58.315" id="Fill-6" fill="#B7A6DF"></path>
                <path d="M5.557,37.517 L10.843,37.517 C11.119,37.517 11.343,37.293 11.343,37.017 C11.343,36.741 11.119,36.517 10.843,36.517 L5.557,36.517 C5.28,36.517 5.057,36.741 5.057,37.017 C5.057,37.293 5.28,37.517 5.557,37.517" id="Fill-7" fill="#B7A6DF"></path>
                <path d="M8.7,39.66 L8.7,34.374 C8.7,34.098 8.476,33.874 8.2,33.874 C7.924,33.874 7.7,34.098 7.7,34.374 L7.7,39.66 C7.7,39.936 7.924,40.16 8.2,40.16 C8.476,40.16 8.7,39.936 8.7,39.66" id="Fill-8" fill="#B7A6DF"></path>
                <path d="M114.87,75.626 L120.156,75.626 C120.432,75.626 120.656,75.402 120.656,75.126 C120.656,74.85 120.432,74.626 120.156,74.626 L114.87,74.626 C114.594,74.626 114.37,74.85 114.37,75.126 C114.37,75.402 114.594,75.626 114.87,75.626" id="Fill-9" fill="#B7A6DF"></path>
                <path d="M118.013,77.769 L118.013,72.483 C118.013,72.207 117.789,71.983 117.513,71.983 C117.236,71.983 117.013,72.207 117.013,72.483 L117.013,77.769 C117.013,78.045 117.236,78.269 117.513,78.269 C117.789,78.269 118.013,78.045 118.013,77.769" id="Fill-10" fill="#B7A6DF"></path>
                <path d="M44.321,1.207 L44.321,2.567 C44.321,2.787 44.5,2.966 44.721,2.966 C44.942,2.966 45.121,2.787 45.121,2.567 L45.121,1.207 C45.121,0.986 44.942,0.807 44.721,0.807 C44.5,0.807 44.321,0.986 44.321,1.207" id="Fill-11" fill="#B7A6DF"></path>
                <path d="M44.321,6.028 L44.321,7.388 C44.321,7.609 44.5,7.788 44.721,7.788 C44.942,7.788 45.121,7.609 45.121,7.388 L45.121,6.028 C45.121,5.807 44.942,5.628 44.721,5.628 C44.5,5.628 44.321,5.807 44.321,6.028" id="Fill-12" fill="#B7A6DF"></path>
                <path d="M47.874,3.959 L46.514,3.959 C46.293,3.959 46.114,4.138 46.114,4.359 C46.114,4.58 46.293,4.759 46.514,4.759 L47.874,4.759 C48.095,4.759 48.274,4.58 48.274,4.359 C48.274,4.138 48.095,3.959 47.874,3.959" id="Fill-13" fill="#B7A6DF"></path>
                <path d="M43.021,3.959 L41.661,3.959 C41.44,3.959 41.261,4.138 41.261,4.359 C41.261,4.58 41.44,4.759 41.661,4.759 L43.021,4.759 C43.242,4.759 43.421,4.58 43.421,4.359 C43.421,4.138 43.242,3.959 43.021,3.959" id="Fill-14" fill="#B7A6DF"></path>
                <path d="M46.712,1.803 L45.75,2.764 C45.594,2.921 45.594,3.174 45.75,3.33 C45.906,3.486 46.16,3.486 46.316,3.33 L47.277,2.369 C47.434,2.212 47.434,1.959 47.277,1.803 C47.121,1.647 46.868,1.647 46.712,1.803" id="Fill-15" fill="#B7A6DF"></path>
                <path d="M47.277,6.226 L46.316,5.265 C46.16,5.108 45.906,5.108 45.75,5.265 C45.594,5.421 45.594,5.674 45.75,5.83 L46.712,6.792 C46.868,6.948 47.121,6.948 47.277,6.792 C47.434,6.636 47.434,6.382 47.277,6.226" id="Fill-16" fill="#B7A6DF"></path>
                <path d="M42.155,2.369 L43.117,3.33 C43.273,3.486 43.526,3.486 43.683,3.33 C43.839,3.174 43.839,2.921 43.683,2.764 L42.721,1.803 C42.565,1.647 42.311,1.647 42.155,1.803 C41.999,1.959 41.999,2.212 42.155,2.369" id="Fill-17" fill="#B7A6DF"></path>
                <path d="M42.721,6.792 L43.683,5.83 C43.839,5.674 43.839,5.421 43.683,5.265 C43.526,5.108 43.273,5.108 43.117,5.265 L42.155,6.226 C41.999,6.382 41.999,6.636 42.155,6.792 C42.311,6.948 42.565,6.948 42.721,6.792" id="Fill-18" fill="#B7A6DF"></path>
                <path d="M98.487,8.515 L97.987,8.515 C97.986,9.362 97.3,10.048 96.452,10.05 C95.605,10.048 94.919,9.362 94.918,8.515 C94.919,7.667 95.605,6.981 96.452,6.98 C97.3,6.981 97.986,7.667 97.987,8.515 L98.987,8.515 C98.987,7.115 97.852,5.98 96.452,5.98 C95.052,5.98 93.918,7.115 93.918,8.515 C93.918,9.915 95.052,11.049 96.452,11.049 C97.852,11.049 98.987,9.915 98.987,8.515 L98.487,8.515" id="Fill-19" fill="#B7A6DF"></path>
                <path d="M95.815,17.46 L101.101,17.46 C101.377,17.46 101.601,17.236 101.601,16.96 C101.601,16.683 101.377,16.46 101.101,16.46 L95.815,16.46 C95.539,16.46 95.315,16.683 95.315,16.96 C95.315,17.236 95.539,17.46 95.815,17.46" id="Fill-20" fill="#E3DCF3"></path>
                <path d="M98.958,19.603 L98.958,14.317 C98.958,14.04 98.734,13.817 98.458,13.817 C98.182,13.817 97.958,14.04 97.958,14.317 L97.958,19.603 C97.958,19.879 98.182,20.102 98.458,20.102 C98.734,20.102 98.958,19.879 98.958,19.603" id="Fill-21" fill="#E3DCF3"></path>
                <path d="M118.693,61.975 L118.693,63.073 C118.693,63.211 118.804,63.323 118.943,63.323 C119.081,63.323 119.193,63.211 119.193,63.073 L119.193,61.975 C119.193,61.837 119.081,61.725 118.943,61.725 C118.804,61.725 118.693,61.837 118.693,61.975" id="Fill-22" fill="#E3DCF3"></path>
                <path d="M118.693,65.867 L118.693,66.964 C118.693,67.103 118.804,67.214 118.943,67.214 C119.081,67.214 119.193,67.103 119.193,66.964 L119.193,65.867 C119.193,65.728 119.081,65.617 118.943,65.617 C118.804,65.617 118.693,65.728 118.693,65.867" id="Fill-23" fill="#E3DCF3"></path>
                <path d="M121.487,64.27 L120.39,64.27 C120.251,64.27 120.14,64.381 120.14,64.52 C120.14,64.658 120.251,64.77 120.39,64.77 L121.487,64.77 C121.625,64.77 121.737,64.658 121.737,64.52 C121.737,64.381 121.625,64.27 121.487,64.27" id="Fill-24" fill="#E3DCF3"></path>
                <path d="M117.571,64.27 L116.473,64.27 C116.335,64.27 116.223,64.381 116.223,64.52 C116.223,64.658 116.335,64.77 116.473,64.77 L117.571,64.77 C117.709,64.77 117.821,64.658 117.821,64.52 C117.821,64.381 117.709,64.27 117.571,64.27" id="Fill-25" fill="#E3DCF3"></path>
                <path d="M120.601,62.508 L119.825,63.284 C119.727,63.382 119.727,63.54 119.825,63.637 C119.922,63.735 120.081,63.735 120.178,63.637 L120.954,62.861 C121.052,62.764 121.052,62.605 120.954,62.508 C120.857,62.41 120.698,62.41 120.601,62.508" id="Fill-26" fill="#E3DCF3"></path>
                <path d="M120.954,66.078 L120.178,65.302 C120.081,65.204 119.922,65.204 119.825,65.302 C119.727,65.399 119.727,65.558 119.825,65.655 L120.601,66.432 C120.698,66.529 120.857,66.529 120.954,66.432 C121.052,66.334 121.052,66.176 120.954,66.078" id="Fill-27" fill="#E3DCF3"></path>
                <path d="M116.923,62.861 L117.699,63.637 C117.797,63.735 117.955,63.735 118.053,63.637 C118.15,63.54 118.15,63.382 118.053,63.284 L117.277,62.508 C117.179,62.41 117.021,62.41 116.923,62.508 C116.826,62.605 116.826,62.764 116.923,62.861" id="Fill-28" fill="#E3DCF3"></path>
                <path d="M117.277,66.432 L118.053,65.655 C118.15,65.558 118.15,65.399 118.053,65.302 C117.955,65.204 117.797,65.204 117.699,65.302 L116.923,66.078 C116.826,66.176 116.826,66.334 116.923,66.432 C117.021,66.529 117.179,66.529 117.277,66.432" id="Fill-29" fill="#E3DCF3"></path>
                <path d="M5.557,28.601 L5.057,28.601 C5.055,29.449 4.369,30.135 3.522,30.136 C2.674,30.135 1.989,29.449 1.987,28.601 C1.989,27.754 2.674,27.068 3.522,27.066 C4.369,27.068 5.055,27.754 5.057,28.601 L6.057,28.601 C6.056,27.201 4.922,26.067 3.522,26.066 C2.122,26.067 0.987,27.201 0.987,28.601 C0.987,30.001 2.122,31.136 3.522,31.136 C4.922,31.136 6.056,30.001 6.057,28.601 L5.557,28.601" id="Fill-30" fill="#E3DCF3"></path>
                <path d="M91.407,40.427 L34.376,40.427 C33.495,40.427 32.779,41.143 32.779,42.023 L32.779,93.337 C40.655,99.943 50.805,103.926 61.889,103.926 C73.94,103.926 84.884,99.214 93.004,91.544 L93.004,42.023 C93.004,41.143 92.288,40.427 91.407,40.427" id="Fill-31" fill="#FFFFFF"></path>
                <path d="M33.441,40.73 L32.779,40.73 L32.779,42.023 C32.779,41.492 33.04,41.02 33.441,40.73 M93.004,40.73 L92.343,40.73 C92.743,41.02 93.004,41.492 93.004,42.023 L93.004,51.958 L93.004,40.73" id="Fill-32" fill="#C9BCE8"></path>
                <path d="M92.343,40.73 L33.441,40.73 C33.04,41.02 32.779,41.492 32.779,42.023 L32.779,51.958 L93.004,51.958 L93.004,42.023 C93.004,41.492 92.743,41.02 92.343,40.73" id="Fill-33" fill="#CCBFE9"></path>
                <path d="M91.407,40.427 L91.407,39.927 L34.376,39.927 C33.218,39.928 32.28,40.866 32.28,42.023 L32.28,93.571 L32.458,93.72 C40.419,100.398 50.684,104.426 61.889,104.426 C74.071,104.426 85.14,99.662 93.347,91.908 L93.504,91.76 L93.504,42.023 C93.503,40.866 92.565,39.927 91.407,39.927 L91.407,40.927 C92.011,40.928 92.503,41.42 92.504,42.023 L92.504,91.544 L93.004,91.544 L92.66,91.181 C84.629,98.767 73.808,103.426 61.889,103.426 C50.926,103.426 40.891,99.487 33.101,92.954 L32.78,93.337 L33.279,93.337 L33.279,42.023 C33.281,41.42 33.773,40.928 34.376,40.927 L91.407,40.927 L91.407,40.427" id="Fill-34" fill="#B7A6DF"></path>
                <path d="M33.421,52.016 L90.707,52.016 C90.983,52.016 91.207,51.792 91.207,51.516 C91.207,51.24 90.983,51.016 90.707,51.016 L33.421,51.016 C33.144,51.016 32.921,51.24 32.921,51.516 C32.921,51.792 33.144,52.016 33.421,52.016" id="Fill-35" fill="#B7A6DF"></path>
                <path d="M39.547,46.38 C39.547,46.934 39.098,47.383 38.545,47.383 C37.991,47.383 37.542,46.934 37.542,46.38 C37.542,45.827 37.991,45.377 38.545,45.377 C39.098,45.377 39.547,45.827 39.547,46.38" id="Fill-36" fill="#E3DCF3"></path>
                <path d="M39.547,46.38 L39.047,46.38 C39.047,46.658 38.822,46.882 38.545,46.883 C38.267,46.882 38.042,46.658 38.042,46.38 C38.042,46.103 38.267,45.878 38.545,45.877 C38.822,45.878 39.047,46.103 39.047,46.38 L40.047,46.38 C40.047,45.55 39.375,44.878 38.545,44.877 C37.714,44.878 37.042,45.55 37.042,46.38 C37.042,47.211 37.714,47.883 38.545,47.883 C39.375,47.883 40.047,47.21 40.047,46.38 L39.547,46.38" id="Fill-37" fill="#A38DD6"></path>
                <path d="M43.434,46.38 C43.434,46.934 42.984,47.383 42.431,47.383 C41.877,47.383 41.428,46.934 41.428,46.38 C41.428,45.827 41.877,45.377 42.431,45.377 C42.984,45.377 43.434,45.827 43.434,46.38" id="Fill-38" fill="#E3DCF3"></path>
                <path d="M43.434,46.38 L42.934,46.38 C42.933,46.658 42.708,46.882 42.431,46.883 C42.153,46.882 41.928,46.658 41.928,46.38 C41.928,46.103 42.153,45.878 42.431,45.877 C42.708,45.878 42.933,46.103 42.934,46.38 L43.933,46.38 C43.933,45.55 43.261,44.878 42.431,44.877 C41.6,44.878 40.928,45.55 40.928,46.38 C40.928,47.211 41.601,47.883 42.431,47.883 C43.261,47.883 43.933,47.211 43.933,46.38 L43.434,46.38" id="Fill-39" fill="#A38DD6"></path>
                <path d="M47.32,46.38 C47.32,46.934 46.871,47.383 46.317,47.383 C45.763,47.383 45.314,46.934 45.314,46.38 C45.314,45.827 45.763,45.377 46.317,45.377 C46.871,45.377 47.32,45.827 47.32,46.38" id="Fill-40" fill="#E3DCF3"></path>
                <path d="M47.32,46.38 L46.82,46.38 C46.819,46.658 46.594,46.882 46.317,46.883 C46.039,46.882 45.814,46.658 45.814,46.38 C45.814,46.103 46.039,45.878 46.317,45.877 C46.594,45.878 46.819,46.103 46.82,46.38 L47.82,46.38 C47.819,45.55 47.147,44.878 46.317,44.877 C45.486,44.878 44.814,45.55 44.814,46.38 C44.814,47.21 45.487,47.883 46.317,47.883 C47.147,47.883 47.819,47.211 47.82,46.38 L47.32,46.38" id="Fill-41" fill="#A38DD6"></path>
                <path d="M18.895,51.388 C21.845,32.569 36.649,17.67 55.42,14.577 C55.965,14.487 56.334,13.972 56.244,13.428 C56.154,12.883 55.64,12.514 55.095,12.604 C35.468,15.841 20.008,31.401 16.919,51.078 C16.833,51.623 17.206,52.135 17.752,52.221 C18.297,52.306 18.809,51.933 18.895,51.388" id="Fill-42" fill="#B7A6DF"></path>
                <path d="M106.434,65.531 C102.989,86.579 84.714,102.648 62.687,102.646 C40.315,102.648 21.811,86.069 18.789,64.533 C18.712,63.986 18.207,63.605 17.66,63.682 C17.113,63.759 16.732,64.264 16.809,64.811 C19.969,87.327 39.304,104.644 62.687,104.646 C85.708,104.644 104.806,87.86 108.408,65.854 C108.497,65.309 108.127,64.795 107.582,64.706 C107.037,64.617 106.523,64.986 106.434,65.531" id="Fill-43" fill="#B7A6DF"></path>
                <path d="M69.818,14.555 C88.798,17.621 103.75,32.753 106.546,51.823 C106.626,52.369 107.134,52.747 107.681,52.667 C108.227,52.587 108.605,52.079 108.525,51.532 C105.598,31.593 89.983,15.79 70.137,12.58 C69.591,12.492 69.078,12.862 68.99,13.408 C68.902,13.953 69.272,14.467 69.818,14.555" id="Fill-44" fill="#B7A6DF"></path>
                <path d="M79.304,73.009 C75.808,68.047 71.013,65.951 66.647,65.951 C64.355,65.951 61.331,66.105 58.975,68.066 C57.367,69.981 56.258,73.067 56.258,78.047 C56.258,80.424 55.486,81.848 54.406,82.535 C51.665,83.89 47.621,82.749 47.621,78.158 L45.261,78.23 C45.512,80.242 46.619,85.208 51.535,85.795 C55.772,86.302 58.269,85.478 59.744,84.332 C60.863,82.884 60.868,83.166 60.868,83.166 C61.862,81.77 61.868,80.374 61.868,80.374 L61.868,88.297 L66.429,88.297 C66.69,87.414 66.887,86.473 67.733,85.894 C68.35,85.023 69.287,84.335 70.494,84.335 C72.772,84.335 74.86,87.158 74.86,88.297 L79.851,88.297 C81.184,85.907 82.8,77.972 79.304,73.009" id="Fill-45" fill="#CDC1E9"></path>
                <path d="M61.368,80.373 L61.368,88.297 C61.368,88.431 61.42,88.556 61.514,88.651 C61.609,88.745 61.734,88.797 61.868,88.797 L66.888,88.797 C67.021,88.797 67.147,88.745 67.241,88.651 C67.336,88.556 67.388,88.431 67.388,88.297 C67.383,87.679 67.682,86.76 68.233,86.052 C68.788,85.337 69.544,84.836 70.494,84.835 C71.419,84.826 72.421,85.441 73.169,86.234 C73.542,86.626 73.851,87.055 74.059,87.437 C74.269,87.814 74.366,88.161 74.36,88.297 C74.36,88.431 74.412,88.556 74.506,88.651 C74.601,88.745 74.726,88.797 74.86,88.797 L79.985,88.797 C80.319,88.779 80.473,88.623 80.633,88.478 C80.902,88.209 81.156,87.816 81.427,87.292 C82.226,85.729 83.085,83.017 83.088,80.008 C83.088,77.846 82.637,75.527 81.361,73.423 C77.496,67.036 72.203,64.447 67.647,64.45 C65.447,64.454 62.477,64.576 60.018,66.393 C58.792,67.3 57.715,68.631 56.96,70.522 C56.203,72.415 55.759,74.865 55.758,78.047 C55.758,79.746 55.347,80.869 54.776,81.555 C54.203,82.238 53.463,82.533 52.633,82.538 C51.604,82.54 50.453,82.042 49.577,81.173 C48.7,80.303 48.098,79.087 48.098,77.652 C48.098,77.516 48.044,77.388 47.947,77.294 C47.85,77.199 47.721,77.148 47.585,77.152 L45.172,77.213 C44.9,77.22 44.684,77.441 44.684,77.713 C44.686,77.749 44.682,79.631 45.516,81.66 C45.934,82.673 46.566,83.728 47.531,84.586 C48.494,85.444 49.793,86.092 51.475,86.292 C52.369,86.398 53.19,86.448 53.945,86.448 C58.014,86.458 60.201,84.983 61.281,83.45 C62.363,81.923 62.365,80.43 62.368,80.374 C62.368,80.098 62.145,79.874 61.869,79.873 C61.592,79.873 61.368,80.096 61.368,80.373 L61.368,80.377 C61.367,80.483 61.307,81.77 60.379,82.989 C59.45,84.204 57.67,85.439 53.945,85.448 C53.233,85.448 52.452,85.401 51.594,85.299 C50.101,85.119 49.018,84.567 48.195,83.838 C46.964,82.748 46.323,81.218 46.004,79.948 C45.844,79.314 45.764,78.748 45.724,78.344 C45.704,78.142 45.694,77.981 45.689,77.872 L45.685,77.749 L45.684,77.713 L45.184,77.713 L45.197,78.212 L47.61,78.151 L47.598,77.652 L47.098,77.652 C47.097,79.374 47.827,80.85 48.874,81.884 C49.922,82.918 51.289,83.534 52.633,83.537 C53.71,83.542 54.782,83.117 55.545,82.194 C56.31,81.272 56.759,79.901 56.758,78.047 C56.758,74.957 57.192,72.633 57.888,70.894 C58.938,68.287 60.545,66.972 62.313,66.25 C64.081,65.532 66.026,65.449 67.647,65.45 C71.822,65.454 76.779,67.8 80.506,73.941 C81.665,75.853 82.088,77.982 82.088,80.008 C82.089,82.152 81.611,84.174 81.06,85.64 C80.785,86.372 80.49,86.967 80.242,87.357 C80.119,87.551 80.005,87.694 79.93,87.767 L79.866,87.822 L79.985,88.023 L79.985,87.797 L79.866,87.822 L79.985,88.023 L79.985,87.797 L74.86,87.797 L74.86,88.297 L75.36,88.297 C75.354,87.864 75.189,87.43 74.937,86.959 C74.554,86.258 73.947,85.502 73.187,84.897 C72.429,84.296 71.507,83.838 70.494,83.835 C69.167,83.834 68.119,84.555 67.441,85.442 C66.758,86.335 66.393,87.397 66.388,88.297 L66.888,88.297 L66.888,87.797 L61.868,87.797 L61.868,88.297 L62.368,88.297 L62.368,80.373 C62.368,80.097 62.144,79.873 61.868,79.873 C61.592,79.873 61.368,80.097 61.368,80.373" id="Fill-46" fill="#A48FD7"></path>
                <path d="M64.369,72.2 C65.316,71.053 66.744,70.324 68.347,70.324 C69.771,70.324 71.056,70.9 71.991,71.833 C72.924,72.767 73.5,74.052 73.5,75.477 C73.5,76.902 72.924,78.187 71.991,79.121 C71.056,80.055 69.771,80.63 68.347,80.631 C66.814,80.63 65.441,79.963 64.496,78.902 C64.312,78.695 63.996,78.677 63.79,78.861 C63.583,79.044 63.565,79.36 63.749,79.567 C64.874,80.832 66.519,81.631 68.347,81.63 C71.745,81.63 74.5,78.876 74.5,75.477 C74.5,72.079 71.745,69.324 68.347,69.324 C66.436,69.324 64.725,70.197 63.598,71.564 C63.422,71.777 63.452,72.092 63.665,72.268 C63.878,72.443 64.194,72.413 64.369,72.2" id="Fill-47" fill="#A48FD7"></path>
                <path d="M59.374,76.141 C59.374,76.508 59.077,76.806 58.71,76.806 C58.343,76.806 58.046,76.508 58.046,76.141 C58.046,75.774 58.343,75.477 58.71,75.477 C59.077,75.477 59.374,75.774 59.374,76.141" id="Fill-48" fill="#A48FD7"></path>
                <path d="M49.067,72.821 C49.21,72.648 49.307,72.471 49.373,72.294 C49.037,71.433 47.857,70.964 46.812,71.906 C46.049,72.594 45.981,73.652 45.682,74.632 C46.52,74.432 48.16,73.921 49.067,72.821" id="Fill-49" fill="#A5ECFB"></path>
                <path d="M43.337,76.045 C43.337,76.045 43.466,75.56 43.527,74.959 C43.496,74.701 43.442,74.454 43.334,74.25 C42.978,73.579 41.908,73.762 41.511,74.354 C42.074,75.454 42.94,75.37 43.337,76.045" id="Fill-50" fill="#A5ECFB"></path>
                <path d="M45.155,74.74 L45.555,75.041 C46.084,74.331 46.233,73.535 46.402,72.861 C46.568,72.175 46.745,71.636 47.147,71.277 C47.477,70.982 47.778,70.887 48.036,70.886 C48.56,70.887 48.97,71.305 48.971,71.786 C48.969,71.997 48.898,72.237 48.681,72.503 C48.156,73.147 47.252,73.607 46.475,73.879 C46.087,74.016 45.733,74.108 45.479,74.166 C45.352,74.195 45.25,74.215 45.181,74.228 L45.081,74.245 L45.155,74.74 L45.555,75.041 L45.155,74.74 L45.23,75.234 C45.25,75.231 45.941,75.127 46.808,74.822 C47.673,74.513 48.725,74.014 49.453,73.139 C49.8,72.719 49.972,72.241 49.971,71.786 C49.968,70.733 49.099,69.887 48.036,69.886 C47.513,69.885 46.96,70.097 46.478,70.535 C45.812,71.14 45.604,71.927 45.431,72.622 C45.261,73.329 45.115,73.968 44.756,74.439 C44.633,74.602 44.621,74.821 44.726,74.996 C44.83,75.171 45.028,75.265 45.23,75.234 L45.155,74.74" id="Fill-51" fill="#A48FD7"></path>
                <path d="M43.337,76.045 L43.768,75.792 C43.621,75.541 43.422,75.362 43.235,75.232 C42.95,75.038 42.696,74.927 42.486,74.77 C42.276,74.613 42.09,74.43 41.912,74.052 C41.87,73.959 41.858,73.89 41.858,73.834 C41.859,73.714 41.914,73.607 42.051,73.496 C42.184,73.389 42.39,73.318 42.555,73.321 C42.647,73.321 42.723,73.34 42.775,73.367 L42.892,73.484 C43,73.68 43.06,74.03 43.058,74.401 C43.058,74.77 43.007,75.156 42.955,75.444 C42.929,75.589 42.903,75.709 42.884,75.791 L42.861,75.886 L42.854,75.914 L43.337,76.045 L43.768,75.792 L43.337,76.045 L43.819,76.176 C43.824,76.153 44.056,75.313 44.058,74.401 C44.055,73.941 44.004,73.456 43.776,73.016 C43.65,72.777 43.453,72.591 43.235,72.479 C43.016,72.366 42.782,72.321 42.555,72.321 C42.151,72.323 41.759,72.458 41.436,72.707 C41.116,72.952 40.857,73.351 40.858,73.834 C40.858,74.046 40.908,74.263 41.005,74.472 C41.325,75.18 41.816,75.554 42.198,75.775 C42.389,75.888 42.55,75.973 42.664,76.053 C42.78,76.135 42.848,76.201 42.905,76.298 C43.007,76.471 43.204,76.567 43.403,76.541 C43.602,76.514 43.767,76.369 43.819,76.176 L43.337,76.045" id="Fill-52" fill="#A48FD7"></path>
            </g>
        </g>
    </g>
</svg>