<?xml version="1.0" encoding="UTF-8" standalone="no"?>
<svg width="122px" height="105px" viewBox="0 0 122 105" version="1.1" xmlns="http://www.w3.org/2000/svg" xmlns:xlink="http://www.w3.org/1999/xlink" xmlns:sketch="http://www.bohemiancoding.com/sketch/ns">
    <!-- Generator: Sketch 3.3.3 (12081) - http://www.bohemiancoding.com/sketch -->
    <title>lesson-list--python-study</title>
    <desc>Created with Sketch.</desc>
    <defs></defs>
    <g id="Page-1" stroke="none" stroke-width="1" fill="none" fill-rule="evenodd" sketch:type="MSPage">
        <g id="lesson-list" sketch:type="MSLayerGroup" transform="translate(-30.000000, -956.000000)">
            <g id="lesson-list--python-study" transform="translate(30.000000, 957.000000)" sketch:type="MSShapeGroup">
                <path d="M107.147,57.186 C107.147,82.221 86.852,102.517 61.816,102.517 C36.781,102.517 16.485,82.221 16.485,57.186 C16.485,32.15 36.781,11.855 61.816,11.855 C86.852,11.855 107.147,32.15 107.147,57.186" id="Fill-1" fill="#BEEDFE"></path>
                <path d="M90.746,39.017 L33.714,39.017 C32.834,39.017 32.118,39.733 32.118,40.614 L32.118,91.927 C39.994,98.533 50.144,102.517 61.228,102.517 C73.278,102.517 84.029,98.541 92.147,90.871 L92.342,40.614 C92.342,39.733 91.627,39.017 90.746,39.017" id="Fill-2" fill="#FFFFFF"></path>
                <path d="M32.473,39.531 L92.147,39.531 L92.147,50.115 L32.473,50.115 L32.473,39.531 Z" id="Fill-3" fill="#6BD6FC"></path>
                <path d="M87.746,8.228 C87.746,8.781 87.296,9.231 86.743,9.231 C86.189,9.231 85.74,8.781 85.74,8.228 C85.74,7.674 86.189,7.225 86.743,7.225 C87.296,7.225 87.746,7.674 87.746,8.228" id="Fill-4" fill="#00B8FA"></path>
                <path d="M15.853,25.445 C15.853,25.999 15.404,26.448 14.85,26.448 C14.296,26.448 13.847,25.999 13.847,25.445 C13.847,24.891 14.296,24.442 14.85,24.442 C15.404,24.442 15.853,24.891 15.853,25.445" id="Fill-5" fill="#00B8FA"></path>
                <path d="M63.819,11.862 C63.819,12.762 63.09,13.491 62.19,13.491 C61.29,13.491 60.561,12.762 60.561,11.862 C60.561,10.963 61.29,10.234 62.19,10.234 C63.09,10.234 63.819,10.963 63.819,11.862" id="Fill-6" fill="#00B8FA"></path>
                <path d="M18.108,57.193 C18.108,58.093 17.379,58.822 16.479,58.822 C15.579,58.822 14.85,58.093 14.85,57.193 C14.85,56.294 15.579,55.564 16.479,55.564 C17.379,55.564 18.108,56.294 18.108,57.193" id="Fill-7" fill="#00B8FA"></path>
                <path d="M108.77,57.193 C108.77,58.093 108.041,58.822 107.141,58.822 C106.241,58.822 105.512,58.093 105.512,57.193 C105.512,56.294 106.241,55.564 107.141,55.564 C108.041,55.564 108.77,56.294 108.77,57.193" id="Fill-8" fill="#00B8FA"></path>
                <path d="M32.759,50.106 L90.045,50.106" id="Stroke-9" stroke="#00B8FA" stroke-linecap="round" stroke-linejoin="round"></path>
                <path d="M4.745,35.888 L10.031,35.888 L4.745,35.888 Z M7.388,38.531 L7.388,33.245 L7.388,38.531 Z M114.058,73.997 L119.344,73.997 L114.058,73.997 Z M116.701,76.64 L116.701,71.354 L116.701,76.64 Z M43.909,0.078 L43.909,1.437 L43.909,0.078 Z M43.909,4.899 L43.909,6.259 L43.909,4.899 Z M47.062,3.23 L45.702,3.23 L47.062,3.23 Z M42.21,3.23 L40.85,3.23 L42.21,3.23 Z M46.183,0.957 L45.221,1.918 L46.183,0.957 Z M46.183,5.38 L45.221,4.418 L46.183,5.38 Z M41.626,0.957 L42.588,1.918 L41.626,0.957 Z M41.626,5.38 L42.588,4.418 L41.626,5.38 Z M97.675,7.385 C97.675,8.51 96.765,9.42 95.641,9.42 C94.517,9.42 93.606,8.51 93.606,7.385 C93.606,6.262 94.517,5.351 95.641,5.351 C96.765,5.351 97.675,6.262 97.675,7.385 L97.675,7.385 Z" id="Stroke-10" stroke="#00B8FA" stroke-width="0.8" stroke-linecap="round"></path>
                <path d="M95.003,15.83 L100.29,15.83 L95.003,15.83 Z M97.647,18.473 L97.647,13.187 L97.647,18.473 Z M118.131,60.846 L118.131,61.944 L118.131,60.846 Z M118.131,64.737 L118.131,65.835 L118.131,64.737 Z M120.675,63.39 L119.578,63.39 L120.675,63.39 Z M116.759,63.39 L115.661,63.39 L116.759,63.39 Z M119.966,61.556 L119.19,62.332 L119.966,61.556 Z M119.966,65.126 L119.19,64.349 L119.966,65.126 Z M116.288,61.556 L117.065,62.332 L116.288,61.556 Z M116.288,65.126 L117.065,64.349 L116.288,65.126 Z M4.745,27.472 C4.745,28.596 3.834,29.507 2.71,29.507 C1.587,29.507 0.675,28.596 0.675,27.472 C0.675,26.348 1.587,25.437 2.71,25.437 C3.834,25.437 4.745,26.348 4.745,27.472 L4.745,27.472 Z" id="Stroke-11" stroke="#A5E6FD" stroke-width="0.8" stroke-linecap="round"></path>
                <path d="M17.035,50.104 C20.055,30.856 35.187,15.627 54.386,12.461 M106.55,64.563 C103.027,86.09 84.34,102.517 61.816,102.517 C38.939,102.517 20.019,85.569 16.928,63.543 M69.106,12.438 C88.519,15.576 103.803,31.044 106.665,50.548" id="Stroke-12" stroke="#00B8FA" stroke-width="2" stroke-linecap="round"></path>
                <path d="M90.746,39.017 L33.714,39.017 C32.834,39.017 32.118,39.733 32.118,40.614 L32.118,91.927 C39.994,98.533 50.144,102.517 61.228,102.517 C73.278,102.517 84.223,98.541 92.342,90.871 L92.342,40.614 C92.342,39.733 91.627,39.017 90.746,39.017 L90.746,39.017 Z" id="Stroke-13" stroke="#00B8FA" stroke-linecap="round" stroke-linejoin="round"></path>
                <path d="M36.131,42.774 L37.907,44.621 L36.131,46.396 M38.474,46.954 L41.131,46.954" id="Stroke-14" stroke="#00AFFA" stroke-linecap="round" stroke-linejoin="round"></path>
                <path d="M53.416,84.28 L53.5,79.416 C53.5,76.736 56.653,76.035 59.408,76.035 L66.245,76.15 C68.499,76.15 70,74.911 70,72 L70.25,65.194 C70.25,64.015 70.153,62.827 68.949,62.308 C68.037,61.916 65.859,61.569 63.678,61.555 C62.167,61.545 60.259,61.722 59.752,61.798 C58.274,62.019 56.775,62.452 56.775,64.796 L56.775,66.075 C56.775,66.743 57.268,67.142 57.935,67.15 L63.083,67.168 L63.056,69.17 L54.392,69.451 C52.032,69.451 48.991,69.875 48.239,72.098 C47.459,74.402 45.856,84.605 52.079,84.272 L53.416,84.28" id="Fill-15" fill="#F9E15B"></path>
                <path d="M55.069,65.194 C54.539,65.194 54.015,65.222 53.408,65.07 C52.802,64.918 52.262,64.545 52.104,63.913 C51.957,63.325 51.946,62.599 51.795,62.067 C51.446,62.357 51.251,62.87 50.995,63.155 C50.626,63.098 50.069,62.833 49.671,62.75 C49.3,62.673 51.099,65.307 52.389,65.914 C53.678,66.52 54.463,66.385 55.069,66.309 C54.994,66.385 55.069,65.194 55.069,65.194 L55.069,65.194 Z" id="Fill-16" fill="#FF5465"></path>
                <path d="M55.069,65.194 C54.539,65.194 54.015,65.222 53.408,65.07 C52.802,64.918 52.262,64.545 52.104,63.913 C51.957,63.325 51.946,62.599 51.795,62.067 C51.446,62.357 51.251,62.87 50.995,63.155 C50.626,63.098 50.069,62.833 49.671,62.75 C49.3,62.673 51.099,65.307 52.389,65.914 C53.678,66.52 54.463,66.385 55.069,66.309 C54.994,66.385 55.069,65.194 55.069,65.194 L55.069,65.194 Z" id="Stroke-17" stroke="#00B8FA" stroke-width="0.5" stroke-linecap="round" stroke-linejoin="round"></path>
                <path d="M62.585,60.813 C63.918,60.813 65.283,60.923 66.533,61.131 C68.135,61.398 69.758,62.595 69.758,64.366 L69.758,72.388 C69.758,74.097 68.368,75.487 66.659,75.487 L58.295,75.487 C55.118,75.487 52.812,77.92 52.812,81.271 L52.812,83.982 L50.72,83.982 C49.702,83.982 48.915,83.612 48.315,82.85 C46.395,80.412 46.866,74.958 47.377,72.844 C47.879,70.746 49.412,69.493 51.477,69.493 L62.647,69.493 C63.199,69.493 63.646,69.046 63.646,68.494 L63.646,67.462 C63.646,66.91 63.199,66.462 62.647,66.462 L55.525,66.462 L55.525,64.367 C55.525,62.615 55.669,61.676 58.76,61.13 C59.892,60.929 61.176,60.82 62.471,60.813 L62.585,60.813 M62.585,59.813 L62.467,59.813 C61.078,59.82 59.752,59.938 58.585,60.145 C55.149,60.752 54.525,62.023 54.525,64.367 L54.525,67.462 L62.647,67.462 L62.647,68.494 L51.477,68.494 C49.117,68.494 47.05,69.912 46.404,72.611 C45.658,75.704 45.034,84.982 50.72,84.982 L53.812,84.982 L53.812,81.271 C53.812,78.591 55.541,76.487 58.295,76.487 L66.659,76.487 C68.914,76.487 70.758,74.643 70.758,72.388 L70.758,64.366 C70.758,62.166 68.902,60.512 66.698,60.145 C65.342,59.919 63.937,59.813 62.585,59.813" id="Fill-18" fill="#00B8FA"></path>
                <path d="M58.074,64.794 C57.565,64.794 57.151,64.373 57.151,63.854 C57.151,63.332 57.565,62.907 58.074,62.907 C58.583,62.907 58.997,63.332 58.997,63.854 C58.997,64.373 58.583,64.794 58.074,64.794" id="Fill-19" fill="#FFFFFF"></path>
                <path d="M58.074,63.306 C58.363,63.306 58.598,63.552 58.598,63.854 C58.598,64.152 58.363,64.394 58.074,64.394 C57.786,64.394 57.551,64.152 57.551,63.854 C57.551,63.552 57.786,63.306 58.074,63.306 M58.074,62.507 C57.343,62.507 56.751,63.111 56.751,63.854 C56.751,64.595 57.343,65.194 58.074,65.194 C58.803,65.194 59.398,64.595 59.398,63.854 C59.398,63.111 58.803,62.507 58.074,62.507" id="Fill-20" fill="#00B8FA"></path>
                <path d="M62.468,93.094 C61.093,93.094 59.739,92.984 58.447,92.769 C56.636,92.468 54.804,91.091 54.804,89.041 L54.804,80.96 C54.804,79.008 56.392,77.42 58.344,77.42 L66.767,77.42 C69.7,77.42 71.749,75.247 71.749,72.136 L71.749,68.925 L74.342,68.925 C75.523,68.925 76.438,69.357 77.139,70.247 C79.171,72.826 78.699,78.491 78.172,80.68 C77.62,82.983 75.863,84.414 73.585,84.414 L61.915,84.414 L61.915,86.445 L70.037,86.445 L70.037,89.041 C70.037,91.216 69.53,92.215 66.39,92.77 C65.228,92.975 63.915,93.087 62.592,93.094 L62.468,93.094" id="Fill-21" fill="#6ED7FC"></path>
                <path d="M74.342,69.425 C75.36,69.425 76.147,69.796 76.747,70.557 C78.667,72.995 78.195,78.448 77.685,80.563 C77.183,82.662 75.65,83.914 73.584,83.914 L61.415,83.914 L61.415,86.945 L69.537,86.945 L69.537,89.041 C69.537,90.792 69.393,91.731 66.302,92.277 C65.167,92.478 63.884,92.588 62.59,92.593 L62.469,92.594 C61.142,92.594 59.779,92.484 58.529,92.276 C56.926,92.008 55.304,90.812 55.304,89.041 L55.304,80.96 C55.304,79.283 56.668,77.92 58.344,77.92 L66.767,77.92 C69.944,77.92 72.249,75.487 72.249,72.136 L72.249,69.425 L74.342,69.425 M74.342,68.425 L71.25,68.425 L71.25,72.136 C71.25,74.816 69.521,76.92 66.767,76.92 L58.344,76.92 C56.122,76.92 54.304,78.738 54.304,80.96 L54.304,89.041 C54.304,91.242 56.16,92.895 58.365,93.262 C59.717,93.488 61.12,93.594 62.469,93.594 L62.595,93.594 C63.983,93.587 65.31,93.469 66.476,93.262 C69.913,92.655 70.537,91.385 70.537,89.041 L70.537,85.945 L62.415,85.945 L62.415,84.914 L73.584,84.914 C75.945,84.914 78.012,83.495 78.658,80.796 C79.404,77.703 80.028,68.425 74.342,68.425" id="Fill-22" fill="#00B8FA"></path>
                <path d="M66.987,90.5 C66.479,90.5 66.065,90.075 66.065,89.553 C66.065,89.034 66.479,88.613 66.987,88.613 C67.496,88.613 67.91,89.034 67.91,89.553 C67.91,90.075 67.496,90.5 66.987,90.5" id="Fill-23" fill="#FFFFFF"></path>
                <path d="M66.987,89.013 C67.276,89.013 67.511,89.255 67.511,89.553 C67.511,89.855 67.276,90.101 66.987,90.101 C66.699,90.101 66.464,89.855 66.464,89.553 C66.464,89.255 66.699,89.013 66.987,89.013 M66.987,88.213 C66.259,88.213 65.663,88.812 65.663,89.553 C65.663,90.296 66.259,90.901 66.987,90.901 C67.718,90.901 68.31,90.296 68.31,89.553 C68.31,88.812 67.718,88.213 66.987,88.213" id="Fill-24" fill="#00B8FA"></path>
            </g>
        </g>
    </g>
</svg>