<?xml version="1.0" encoding="UTF-8" standalone="no"?>
<svg width="122px" height="105px" viewBox="0 0 122 105" version="1.1" xmlns="http://www.w3.org/2000/svg" xmlns:xlink="http://www.w3.org/1999/xlink" xmlns:sketch="http://www.bohemiancoding.com/sketch/ns">
    <!-- Generator: Sketch 3.3.3 (12081) - http://www.bohemiancoding.com/sketch -->
    <title>lesson-list--rails-study</title>
    <desc>Created with Sketch.</desc>
    <defs></defs>
    <g id="Page-1" stroke="none" stroke-width="1" fill="none" fill-rule="evenodd" sketch:type="MSPage">
        <g id="lesson-list" sketch:type="MSLayerGroup" transform="translate(0.000000, -551.000000)">
            <g id="lesson-list--rails-study" transform="translate(0.000000, 551.000000)" sketch:type="MSShapeGroup">
                <path d="M107.517,58.373 C107.517,83.408 87.221,103.704 62.186,103.704 C37.15,103.704 16.855,83.408 16.855,58.373 C16.855,33.337 37.15,13.042 62.186,13.042 C87.221,13.042 107.517,33.337 107.517,58.373" id="Fill-1" fill="#FBB6CD"></path>
                <path d="M91.116,40.204 L34.084,40.204 C33.203,40.204 32.487,40.92 32.487,41.801 L32.487,93.114 C40.363,99.72 50.513,103.704 61.597,103.704 C73.648,103.704 84.592,98.992 92.711,91.322 L92.711,41.801 C92.711,40.92 91.996,40.204 91.116,40.204" id="Fill-2" fill="#FFFFFF"></path>
                <path d="M91.116,40.204 L91.116,39.704 L34.084,39.704 C32.926,39.705 31.988,40.643 31.987,41.801 L31.987,93.114 C31.987,93.263 32.052,93.402 32.166,93.498 C40.127,100.176 50.392,104.204 61.597,104.203 C73.779,104.204 84.848,99.439 93.055,91.685 C93.155,91.591 93.212,91.459 93.212,91.322 L93.212,41.801 C93.211,40.643 92.273,39.705 91.116,39.704 L91.116,40.704 C91.718,40.705 92.211,41.197 92.212,41.801 L92.212,91.322 L92.711,91.322 L92.368,90.958 C84.337,98.545 73.516,103.203 61.597,103.204 C50.634,103.203 40.599,99.265 32.809,92.731 L32.487,93.114 L32.987,93.114 L32.987,41.801 C32.988,41.197 33.48,40.705 34.084,40.704 L91.116,40.704 L91.116,40.204" id="Fill-3" fill="#F2447E"></path>
                <path d="M88.121,9.407 C88.121,9.961 87.672,10.41 87.118,10.41 C86.565,10.41 86.116,9.961 86.116,9.407 C86.116,8.854 86.565,8.404 87.118,8.404 C87.672,8.404 88.121,8.854 88.121,9.407" id="Fill-4" fill="#F2447E"></path>
                <path d="M16.229,26.624 C16.229,27.178 15.78,27.627 15.226,27.627 C14.672,27.627 14.223,27.178 14.223,26.624 C14.223,26.07 14.672,25.622 15.226,25.622 C15.78,25.622 16.229,26.07 16.229,26.624" id="Fill-5" fill="#F2447E"></path>
                <path d="M64.195,13.042 C64.195,13.942 63.466,14.671 62.566,14.671 C61.666,14.671 60.937,13.942 60.937,13.042 C60.937,12.143 61.666,11.413 62.566,11.413 C63.466,11.413 64.195,12.143 64.195,13.042" id="Fill-6" fill="#F2447E"></path>
                <path d="M18.484,58.373 C18.484,59.273 17.754,60.002 16.855,60.002 C15.955,60.002 15.226,59.273 15.226,58.373 C15.226,57.473 15.955,56.744 16.855,56.744 C17.754,56.744 18.484,57.473 18.484,58.373" id="Fill-7" fill="#F2447E"></path>
                <path d="M109.146,58.373 C109.146,59.273 108.416,60.002 107.516,60.002 C106.617,60.002 105.887,59.273 105.887,58.373 C105.887,57.473 106.617,56.744 107.516,56.744 C108.416,56.744 109.146,57.473 109.146,58.373" id="Fill-8" fill="#F2447E"></path>
                <path d="M69.317,86.36 C70.272,77.538 76.663,73.012 80.165,72.622 C83.195,72.285 84.499,71.43 86.536,73.682 C86.693,73.855 86.958,73.804 87.081,73.596 L87.43,73.006 C87.53,72.836 87.507,72.61 87.374,72.471 C86.328,71.384 82.603,67.949 74.723,68.716 C63.28,69.83 54.152,85.023 52.964,102.879 C55.985,103.701 60.082,104.466 63.326,104.466 C66.395,104.466 69.381,104.074 72.252,103.338 C70.848,99.571 68.655,92.482 69.317,86.36" id="Fill-9" fill="#F66D9A"></path>
                <path d="M5.115,37.575 L10.4,37.575 C10.676,37.575 10.9,37.351 10.9,37.075 C10.9,36.799 10.676,36.575 10.4,36.575 L5.115,36.575 C4.838,36.575 4.614,36.799 4.614,37.075 C4.614,37.351 4.838,37.575 5.115,37.575" id="Fill-10" fill="#F2447E"></path>
                <path d="M8.257,39.718 L8.257,34.432 C8.257,34.156 8.034,33.932 7.757,33.932 C7.481,33.932 7.257,34.156 7.257,34.432 L7.257,39.718 C7.257,39.994 7.481,40.218 7.757,40.218 C8.034,40.218 8.257,39.994 8.257,39.718" id="Fill-11" fill="#F2447E"></path>
                <path d="M114.428,75.684 L119.713,75.684 C119.989,75.684 120.213,75.46 120.213,75.184 C120.213,74.908 119.989,74.684 119.713,74.684 L114.428,74.684 C114.151,74.684 113.927,74.908 113.927,75.184 C113.927,75.46 114.151,75.684 114.428,75.684" id="Fill-12" fill="#F2447E"></path>
                <path d="M117.57,77.827 L117.57,72.541 C117.57,72.265 117.347,72.041 117.07,72.041 C116.794,72.041 116.57,72.265 116.57,72.541 L116.57,77.827 C116.57,78.103 116.794,78.327 117.07,78.327 C117.347,78.327 117.57,78.103 117.57,77.827" id="Fill-13" fill="#F2447E"></path>
                <path d="M43.879,1.264 L43.879,2.624 C43.879,2.845 44.058,3.024 44.279,3.024 C44.5,3.024 44.679,2.845 44.679,2.624 L44.679,1.264 C44.679,1.043 44.5,0.864 44.279,0.864 C44.058,0.864 43.879,1.043 43.879,1.264" id="Fill-14" fill="#F2447E"></path>
                <path d="M43.879,6.086 L43.879,7.446 C43.879,7.667 44.058,7.846 44.279,7.846 C44.5,7.846 44.679,7.667 44.679,7.446 L44.679,6.086 C44.679,5.865 44.5,5.686 44.279,5.686 C44.058,5.686 43.879,5.865 43.879,6.086" id="Fill-15" fill="#F2447E"></path>
                <path d="M47.432,4.017 L46.072,4.017 C45.851,4.017 45.671,4.196 45.671,4.417 C45.671,4.638 45.851,4.817 46.072,4.817 L47.432,4.817 C47.652,4.817 47.831,4.638 47.831,4.417 C47.831,4.196 47.652,4.017 47.432,4.017" id="Fill-16" fill="#F2447E"></path>
                <path d="M42.579,4.017 L41.219,4.017 C40.998,4.017 40.819,4.196 40.819,4.417 C40.819,4.638 40.998,4.817 41.219,4.817 L42.579,4.817 C42.8,4.817 42.979,4.638 42.979,4.417 C42.979,4.196 42.8,4.017 42.579,4.017" id="Fill-17" fill="#F2447E"></path>
                <path d="M46.269,1.861 L45.308,2.822 C45.152,2.979 45.152,3.232 45.308,3.388 C45.464,3.544 45.717,3.544 45.874,3.388 L46.835,2.426 C46.991,2.27 46.991,2.017 46.835,1.861 C46.679,1.704 46.426,1.704 46.269,1.861" id="Fill-18" fill="#F2447E"></path>
                <path d="M46.835,6.284 L45.874,5.322 C45.717,5.166 45.464,5.166 45.308,5.322 C45.152,5.479 45.152,5.732 45.308,5.888 L46.269,6.85 C46.426,7.006 46.679,7.006 46.835,6.85 C46.991,6.694 46.991,6.44 46.835,6.284" id="Fill-19" fill="#F2447E"></path>
                <path d="M41.713,2.426 L42.675,3.388 C42.831,3.544 43.084,3.544 43.24,3.388 C43.397,3.232 43.397,2.979 43.24,2.822 L42.279,1.861 C42.123,1.704 41.869,1.704 41.713,1.861 C41.557,2.017 41.557,2.27 41.713,2.426" id="Fill-20" fill="#F2447E"></path>
                <path d="M42.279,6.85 L43.24,5.888 C43.397,5.732 43.397,5.479 43.24,5.322 C43.084,5.166 42.831,5.166 42.675,5.322 L41.713,6.284 C41.557,6.44 41.557,6.694 41.713,6.85 C41.869,7.006 42.123,7.006 42.279,6.85" id="Fill-21" fill="#F2447E"></path>
                <path d="M98.045,8.573 L97.545,8.573 C97.543,9.42 96.858,10.106 96.01,10.107 C95.163,10.106 94.477,9.42 94.475,8.573 C94.477,7.725 95.163,7.039 96.01,7.038 C96.858,7.039 97.543,7.725 97.545,8.573 L98.545,8.573 C98.544,7.172 97.41,6.038 96.01,6.038 C94.61,6.038 93.476,7.172 93.475,8.573 C93.476,9.973 94.61,11.107 96.01,11.107 C97.41,11.107 98.544,9.973 98.545,8.573 L98.045,8.573" id="Fill-22" fill="#F2447E"></path>
                <path d="M33.128,51.793 L90.415,51.793 C90.691,51.793 90.915,51.569 90.915,51.293 C90.915,51.017 90.691,50.793 90.415,50.793 L33.128,50.793 C32.852,50.793 32.628,51.017 32.628,51.293 C32.628,51.569 32.852,51.793 33.128,51.793" id="Fill-23" fill="#F2447E"></path>
                <path d="M95.373,17.517 L100.659,17.517 C100.935,17.517 101.159,17.294 101.159,17.018 C101.159,16.741 100.935,16.517 100.659,16.517 L95.373,16.517 C95.097,16.517 94.873,16.741 94.873,17.018 C94.873,17.294 95.097,17.517 95.373,17.517" id="Fill-24" fill="#FFACC4"></path>
                <path d="M98.516,19.66 L98.516,14.375 C98.516,14.098 98.292,13.875 98.016,13.875 C97.74,13.875 97.516,14.098 97.516,14.375 L97.516,19.66 C97.516,19.937 97.74,20.16 98.016,20.16 C98.292,20.16 98.516,19.937 98.516,19.66" id="Fill-25" fill="#FFACC4"></path>
                <path d="M118.1,62.033 L118.1,63.131 C118.1,63.351 118.279,63.53 118.5,63.53 C118.721,63.53 118.9,63.351 118.9,63.131 L118.9,62.033 C118.9,61.812 118.721,61.633 118.5,61.633 C118.279,61.633 118.1,61.812 118.1,62.033" id="Fill-26" fill="#FFACC4"></path>
                <path d="M118.1,65.925 L118.1,67.022 C118.1,67.243 118.279,67.422 118.5,67.422 C118.721,67.422 118.9,67.243 118.9,67.022 L118.9,65.925 C118.9,65.704 118.721,65.525 118.5,65.525 C118.279,65.525 118.1,65.704 118.1,65.925" id="Fill-27" fill="#FFACC4"></path>
                <path d="M121.045,64.177 L119.947,64.177 C119.726,64.177 119.547,64.356 119.547,64.577 C119.547,64.798 119.726,64.977 119.947,64.977 L121.045,64.977 C121.266,64.977 121.445,64.798 121.445,64.577 C121.445,64.356 121.266,64.177 121.045,64.177" id="Fill-28" fill="#FFACC4"></path>
                <path d="M117.128,64.177 L116.031,64.177 C115.81,64.177 115.63,64.356 115.63,64.577 C115.63,64.798 115.81,64.977 116.031,64.977 L117.128,64.977 C117.349,64.977 117.528,64.798 117.528,64.577 C117.528,64.356 117.349,64.177 117.128,64.177" id="Fill-29" fill="#FFACC4"></path>
                <path d="M120.052,62.46 L119.276,63.236 C119.12,63.392 119.12,63.645 119.276,63.801 C119.432,63.958 119.686,63.958 119.842,63.801 L120.618,63.025 C120.774,62.869 120.774,62.616 120.618,62.46 C120.462,62.303 120.209,62.303 120.052,62.46" id="Fill-30" fill="#FFACC4"></path>
                <path d="M120.618,66.03 L119.842,65.254 C119.686,65.097 119.432,65.097 119.276,65.254 C119.12,65.41 119.12,65.663 119.276,65.819 L120.052,66.595 C120.209,66.752 120.462,66.752 120.618,66.595 C120.774,66.439 120.774,66.186 120.618,66.03" id="Fill-31" fill="#FFACC4"></path>
                <path d="M116.375,63.025 L117.151,63.801 C117.307,63.958 117.56,63.958 117.717,63.801 C117.873,63.645 117.873,63.392 117.717,63.236 L116.941,62.46 C116.784,62.303 116.531,62.303 116.375,62.46 C116.219,62.616 116.219,62.869 116.375,63.025" id="Fill-32" fill="#FFACC4"></path>
                <path d="M116.941,66.595 L117.717,65.819 C117.873,65.663 117.873,65.41 117.717,65.254 C117.56,65.097 117.307,65.097 117.151,65.254 L116.375,66.03 C116.219,66.186 116.219,66.439 116.375,66.595 C116.531,66.752 116.784,66.752 116.941,66.595" id="Fill-33" fill="#FFACC4"></path>
                <path d="M5.115,28.659 L4.614,28.659 C4.613,29.507 3.927,30.192 3.08,30.194 C2.232,30.192 1.546,29.507 1.545,28.659 C1.546,27.812 2.232,27.126 3.08,27.124 C3.927,27.126 4.613,27.812 4.614,28.659 L5.614,28.659 C5.614,27.259 4.48,26.125 3.08,26.124 C1.68,26.125 0.545,27.259 0.545,28.659 C0.545,30.059 1.68,31.193 3.08,31.194 C4.48,31.193 5.614,30.059 5.614,28.659 L5.115,28.659" id="Fill-34" fill="#FFACC4"></path>
                <path d="M18.393,51.446 C21.343,32.627 36.147,17.728 54.918,14.635 C55.463,14.545 55.832,14.03 55.742,13.485 C55.652,12.941 55.138,12.572 54.593,12.662 C34.966,15.899 19.506,31.459 16.417,51.136 C16.331,51.681 16.704,52.193 17.25,52.279 C17.796,52.364 18.307,51.991 18.393,51.446" id="Fill-35" fill="#F2447E"></path>
                <path d="M105.932,65.589 C102.487,86.637 84.212,102.706 62.186,102.704 C39.813,102.706 21.309,86.127 18.287,64.591 C18.21,64.044 17.705,63.663 17.158,63.74 C16.611,63.817 16.23,64.322 16.307,64.869 C19.467,87.385 38.802,104.702 62.186,104.704 C85.206,104.702 104.304,87.917 107.906,65.912 C107.995,65.367 107.625,64.853 107.081,64.764 C106.536,64.674 106.021,65.044 105.932,65.589" id="Fill-36" fill="#F2447E"></path>
                <path d="M69.316,14.612 C88.296,17.679 103.248,32.81 106.044,51.88 C106.125,52.427 106.633,52.805 107.179,52.725 C107.725,52.644 108.103,52.136 108.023,51.59 C105.096,31.651 89.481,15.848 69.635,12.638 C69.09,12.55 68.576,12.92 68.488,13.466 C68.4,14.011 68.771,14.524 69.316,14.613 L69.316,14.612" id="Fill-37" fill="#F2447E"></path>
                <path d="M68.964,85.54 L69.46,85.601 C69.987,81.298 71.934,78.196 74.23,76.097 C76.522,74 79.184,72.925 81.033,72.727 C81.336,72.693 81.627,72.678 81.906,72.678 C84.266,72.678 85.807,73.761 86.426,74.296 C86.597,74.444 86.814,74.519 87.023,74.518 C87.316,74.519 87.608,74.374 87.785,74.111 L87.786,74.109 L88.18,73.517 C88.284,73.362 88.334,73.183 88.334,73.008 C88.334,72.761 88.234,72.515 88.04,72.336 C86.816,71.211 82.123,67.346 75.213,67.34 L75.071,67.341 L75.08,67.841 L75.08,67.341 C71.719,67.34 68.601,68.422 65.82,70.314 C61.646,73.154 58.213,77.799 55.686,83.415 C53.159,89.032 51.54,95.629 51.031,102.401 C51.013,102.645 51.175,102.867 51.413,102.925 C54.868,103.757 58.475,104.204 62.186,104.204 C65.695,104.204 69.111,103.806 72.395,103.059 C72.54,103.026 72.661,102.932 72.729,102.8 C72.797,102.668 72.803,102.515 72.745,102.378 C71.368,99.109 69.322,93.3 69.326,87.901 C69.326,87.122 69.368,86.353 69.46,85.601 L68.964,85.54 L68.468,85.479 C68.37,86.276 68.326,87.086 68.326,87.901 C68.33,93.545 70.424,99.431 71.823,102.766 L72.284,102.572 L72.173,102.084 C68.961,102.815 65.619,103.204 62.186,103.204 C58.555,103.204 55.028,102.767 51.647,101.953 L51.53,102.439 L52.028,102.476 C52.693,93.593 55.314,85.012 59.352,78.692 C61.37,75.531 63.74,72.937 66.382,71.141 C69.026,69.345 71.936,68.342 75.08,68.341 L75.088,68.341 L75.213,68.34 C81.731,68.334 86.234,72.028 87.362,73.071 L87.42,73.008 L87.334,73.008 L87.362,73.071 L87.42,73.008 L87.334,73.008 L87.416,73.008 L87.348,72.963 L87.334,73.008 L87.416,73.008 L87.348,72.963 L86.954,73.555 L86.955,73.553 L87.023,73.599 L87.023,73.518 L86.955,73.553 L87.023,73.599 L87.023,73.518 L87.023,73.605 L87.08,73.539 L87.023,73.518 L87.023,73.605 L87.08,73.539 C86.352,72.908 84.584,71.679 81.906,71.678 C81.591,71.678 81.264,71.695 80.925,71.733 C78.817,71.966 76.012,73.121 73.555,75.359 C71.103,77.595 69.021,80.933 68.468,85.479 L68.964,85.54" id="Fill-38" fill="#F2447E"></path>
                <path d="M45.974,93.783 C45.752,93.766 45.555,93.927 45.528,94.148 L45.194,96.937 C45.167,97.165 45.329,97.372 45.557,97.4 L48.276,97.733 C48.497,97.759 48.699,97.609 48.737,97.39 L49.239,94.491 C49.281,94.249 49.106,94.024 48.861,94.005 L45.974,93.783" id="Fill-39" fill="#F2447E"></path>
                <path d="M52.087,85.41 L52.931,83.405 C53.019,83.198 52.925,82.958 52.72,82.865 L50.244,81.738 C50.03,81.641 49.778,81.74 49.687,81.957 L48.779,84.123 C48.688,84.34 48.795,84.589 49.016,84.673 L51.555,85.637 C51.765,85.717 52,85.616 52.087,85.41" id="Fill-40" fill="#F2447E"></path>
                <path d="M56.932,75.483 C57.108,75.6 57.344,75.567 57.481,75.405 L58.881,73.746 C59.042,73.555 59,73.267 58.792,73.13 L56.964,71.928 C56.793,71.816 56.564,71.845 56.426,71.997 L54.975,73.604 C54.804,73.793 54.841,74.089 55.053,74.23 L56.932,75.483" id="Fill-41" fill="#F2447E"></path>
                <path d="M64.654,68.58 C64.783,68.736 65.007,68.777 65.183,68.675 L66.809,67.739 C67.038,67.607 67.088,67.298 66.913,67.101 L65.74,65.782 C65.614,65.64 65.407,65.602 65.238,65.689 L63.611,66.527 C63.375,66.649 63.312,66.958 63.482,67.163 L64.654,68.58" id="Fill-42" fill="#F2447E"></path>
                <path d="M76.034,64.296 L73.817,64.192 C73.545,64.18 73.335,64.426 73.39,64.693 L73.642,65.914 C73.683,66.111 73.859,66.251 74.06,66.246 L76.189,66.194 C76.441,66.188 76.629,65.963 76.591,65.714 L76.426,64.649 C76.397,64.453 76.233,64.305 76.034,64.296" id="Fill-43" fill="#F2447E"></path>
                <path d="M82.696,67.297 L82.682,67.563 C82.673,67.725 82.758,67.877 82.901,67.953 L84.348,68.729 C84.537,68.83 84.772,68.771 84.891,68.592 C85.015,68.406 84.97,68.156 84.79,68.025 L83.357,66.983 C83.09,66.789 82.715,66.967 82.696,67.297" id="Fill-44" fill="#F2447E"></path>
                <path d="M82.477,73.806 C82.223,73.725 81.959,73.9 81.935,74.165 L81.918,74.352 C81.899,74.563 82.042,74.755 82.25,74.797 L83.343,75.021 C83.587,75.07 83.819,74.898 83.841,74.651 L83.847,74.587 C83.865,74.392 83.745,74.212 83.559,74.152 L82.477,73.806" id="Fill-45" fill="#F2447E"></path>
                <path d="M78.795,75.178 L77.706,75.45 C77.441,75.516 77.311,75.814 77.441,76.053 L77.884,76.872 C78.007,77.099 78.305,77.16 78.508,77.001 L79.276,76.395 C79.404,76.293 79.462,76.126 79.421,75.967 L79.3,75.481 C79.245,75.257 79.018,75.122 78.795,75.178" id="Fill-46" fill="#F2447E"></path>
                <path d="M75.711,81.182 L76.162,80.393 C76.24,80.256 76.234,80.087 76.147,79.956 L75.118,78.413 C74.977,78.202 74.681,78.165 74.492,78.336 L73.649,79.099 C73.478,79.253 73.464,79.517 73.619,79.687 L75.04,81.255 C75.231,81.465 75.57,81.428 75.711,81.182" id="Fill-47" fill="#F2447E"></path>
                <path d="M72.517,83.921 L71.952,85.05 C71.866,85.222 71.909,85.429 72.054,85.554 L73.737,86.989 C73.973,87.191 74.339,87.072 74.412,86.771 L74.764,85.319 C74.803,85.159 74.743,84.99 74.611,84.89 L73.142,83.775 C72.934,83.617 72.634,83.687 72.517,83.921" id="Fill-48" fill="#F2447E"></path>
                <path d="M72.15,92.098 L74.283,93.013 C74.568,93.135 74.882,92.914 74.863,92.605 L74.774,91.138 C74.765,90.993 74.681,90.863 74.552,90.795 L72.599,89.767 C72.331,89.626 72.006,89.809 71.989,90.111 L71.899,91.692 C71.889,91.867 71.989,92.029 72.15,92.098" id="Fill-49" fill="#F2447E"></path>
                <path d="M73.179,99.211 C73.227,99.382 73.378,99.505 73.557,99.515 L76.363,99.674 C76.68,99.692 76.9,99.361 76.76,99.076 L75.818,97.142 C75.749,96.999 75.603,96.908 75.444,96.908 L73.087,96.908 C72.812,96.908 72.612,97.171 72.686,97.436 L73.179,99.211" id="Fill-50" fill="#F2447E"></path>
                <path d="M42.959,64.283 L49.998,60.643 L50.136,60.645 L53.119,62.296 L53.189,62.464 L50.846,70.767 L50.657,70.866 L42.568,68.052 L42.47,67.897 L42.881,64.396 L42.959,64.283" id="Fill-51" fill="#F66D9A"></path>
                <path d="M42.959,64.283 L43.051,64.461 L50.045,60.844 L50.083,60.844 L52.961,62.437 L52.978,62.477 L50.677,70.63 L50.642,70.649 L42.699,67.886 L42.677,67.85 L43.074,64.469 L43.124,64.397 L42.959,64.283 L43.051,64.461 L42.959,64.283 L42.795,64.169 L42.717,64.282 L42.683,64.373 L42.272,67.873 L42.301,68.003 L42.398,68.158 L42.502,68.241 L50.592,71.055 L50.75,71.043 L50.939,70.945 L51.039,70.822 L53.381,62.518 L53.374,62.387 L53.304,62.219 L53.216,62.121 L50.233,60.47 L50.139,60.445 L50.001,60.443 L49.906,60.465 L42.868,64.106 L42.795,64.169 L42.959,64.283" id="Fill-52" fill="#F2447E"></path>
                <path d="M45.811,66.948 L44.427,67.663 C44.32,67.719 44.332,67.876 44.446,67.915 L49.052,69.51 L49.017,69.471 L45.811,66.948" id="Fill-53" fill="#FCCFDE"></path>
                <path d="M46.779,66.447 L50.047,69.085 L49.783,64.893 L46.779,66.447" id="Fill-54" fill="#FCCFDE"></path>
                <path d="M50.826,64.354 L50.734,64.514 L50.923,68.185 L52.151,63.669 L50.826,64.354" id="Fill-55" fill="#FCCFDE"></path>
                <path d="M49.125,64.128 C49.233,64.072 49.221,63.915 49.106,63.876 L47.504,63.327 L46.934,65.261 L49.125,64.128" id="Fill-56" fill="#FCCFDE"></path>
                <path d="M48.182,62.986 L49.696,63.504 L49.601,61.991 L48.164,62.734 C48.056,62.79 48.068,62.947 48.182,62.986" id="Fill-57" fill="#FCCFDE"></path>
                <path d="M44.68,64.753 L45.649,65.535 L46.171,63.765 L44.703,64.524 L44.68,64.753" id="Fill-58" fill="#FCCFDE"></path>
                <path d="M51.789,62.881 C51.887,62.83 51.889,62.692 51.793,62.639 L50.87,62.128 L50.945,63.318 L51.789,62.881" id="Fill-59" fill="#FCCFDE"></path>
                <path d="M44.883,66.453 L44.907,66.223 L44.229,65.677 L44.09,66.863 L44.883,66.453" id="Fill-60" fill="#FCCFDE"></path>
                <path d="M43.788,67.767 L43.722,67.956 L48.875,69.74 L48.988,69.759 C49.192,69.753 49.322,69.591 49.323,69.418 C49.325,69.324 49.278,69.22 49.194,69.156 L45.783,66.471 L45.678,66.429 L45.53,66.415 L45.419,66.436 L43.678,67.337 C43.558,67.397 43.493,67.522 43.495,67.636 C43.493,67.766 43.576,67.906 43.722,67.956 L43.854,67.578 L43.833,67.636 L43.895,67.636 L43.854,67.578 L43.833,67.636 L43.895,67.636 L43.832,67.636 L43.861,67.693 L43.895,67.636 L43.832,67.636 L43.861,67.693 L45.55,66.819 L45.581,66.822 L48.947,69.47 L48.987,69.418 L48.923,69.418 L48.946,69.47 L48.987,69.418 L48.923,69.418 L48.988,69.418 L48.988,69.359 L48.923,69.418 L48.988,69.418 L48.988,69.359 L48.988,69.413 L49.006,69.362 L48.988,69.359 L48.988,69.413 L49.006,69.362 L43.853,67.578 L43.788,67.767" id="Fill-61" fill="#F2447E"></path>
                <path d="M46.121,66.298 L45.996,66.454 L49.77,69.501 L49.981,69.576 C50.156,69.575 50.318,69.437 50.319,69.238 L50.319,69.217 L50.027,64.586 C50.014,64.4 49.86,64.269 49.69,64.269 L49.533,64.309 L49.627,64.485 L49.536,64.307 L46.029,66.121 L45.922,66.278 L45.996,66.454 L46.121,66.298 L46.213,66.476 L49.719,64.663 L49.722,64.661 L49.69,64.602 L49.69,64.669 L49.722,64.661 L49.69,64.602 L49.69,64.669 L49.69,64.607 L49.628,64.611 L49.69,64.669 L49.69,64.607 L49.628,64.611 L49.92,69.242 L50.119,69.229 L49.92,69.22 L49.919,69.238 L49.981,69.238 L49.981,69.176 L49.919,69.238 L49.981,69.238 L49.981,69.176 L49.981,69.239 L50.021,69.189 L49.981,69.176 L49.981,69.239 L50.021,69.189 L46.247,66.143 L46.121,66.298 L46.213,66.476 L46.121,66.298" id="Fill-62" fill="#F2447E"></path>
                <path d="M52.039,63.238 L51.947,63.06 L50.333,63.895 L50.252,63.973 L50.177,64.102 L50.151,64.212 L50.372,68.501 C50.38,68.7 50.558,68.828 50.71,68.821 C50.841,68.826 50.994,68.731 51.035,68.574 L52.428,63.448 L52.44,63.358 C52.437,63.165 52.285,63.023 52.102,63.022 L51.944,63.062 L52.039,63.238 L51.947,63.06 L52.039,63.238 L52.134,63.414 L52.102,63.354 L52.102,63.422 L52.134,63.414 L52.102,63.354 L52.102,63.422 L52.102,63.358 L52.04,63.358 L52.102,63.422 L52.102,63.358 L52.04,63.358 L52.094,63.358 L52.041,63.344 L52.04,63.358 L52.094,63.358 L52.041,63.344 L50.649,68.467 L50.71,68.483 L50.71,68.421 L50.649,68.466 L50.71,68.483 L50.71,68.421 L50.71,68.48 L50.748,68.436 L50.71,68.421 L50.71,68.48 L50.748,68.436 L50.706,68.484 L50.772,68.481 L50.748,68.436 L50.706,68.484 L50.772,68.481 L50.554,64.25 L50.569,64.223 L52.131,63.415 L52.134,63.414 L52.039,63.238" id="Fill-63" fill="#F2447E"></path>
                <path d="M46.385,65.545 L46.477,65.723 L49.217,64.306 C49.337,64.245 49.401,64.119 49.399,64.006 C49.401,63.876 49.318,63.736 49.171,63.686 L47.061,62.964 L46.904,62.976 L46.728,63.067 L46.628,63.188 L45.998,65.328 L45.984,65.424 C45.987,65.616 46.137,65.759 46.321,65.76 L46.474,65.724 L46.477,65.723 L46.385,65.545 L46.296,65.366 L46.321,65.417 L46.321,65.361 L46.296,65.366 L46.321,65.417 L46.321,65.361 L46.321,65.424 L46.384,65.424 L46.321,65.361 L46.321,65.424 L46.384,65.424 L46.324,65.424 L46.382,65.441 L46.384,65.424 L46.324,65.424 L46.382,65.441 L46.987,63.383 L47.012,63.37 L49.042,64.065 L49.062,64.006 L48.999,64.006 L49.042,64.065 L49.062,64.006 L48.999,64.006 L49.061,64.006 L49.033,63.951 L48.999,64.006 L49.061,64.006 L49.033,63.951 L46.293,65.367 L46.385,65.545 L46.296,65.366 L46.385,65.545" id="Fill-64" fill="#F2447E"></path>
                <path d="M49.445,61.583 L49.353,61.405 L47.414,62.408 C47.295,62.468 47.229,62.593 47.231,62.707 C47.229,62.837 47.313,62.977 47.459,63.027 L49.506,63.727 L49.615,63.745 C49.797,63.745 49.951,63.599 49.952,63.408 L49.952,63.387 L49.845,61.684 C49.832,61.498 49.678,61.366 49.508,61.367 L49.349,61.407 L49.445,61.583 L49.353,61.405 L49.445,61.583 L49.54,61.758 L49.508,61.698 L49.508,61.767 L49.54,61.758 L49.508,61.698 L49.508,61.767 L49.508,61.705 L49.445,61.709 L49.508,61.767 L49.508,61.705 L49.445,61.709 L49.553,63.412 L49.752,63.399 L49.552,63.399 L49.552,63.408 L49.615,63.408 L49.615,63.345 L49.552,63.408 L49.615,63.408 L49.615,63.345 L49.615,63.408 L49.636,63.349 L49.615,63.345 L49.615,63.408 L49.636,63.349 L47.589,62.648 L47.57,62.707 L47.631,62.707 L47.59,62.649 L47.57,62.707 L47.631,62.707 L47.569,62.707 L47.597,62.763 L47.631,62.707 L47.569,62.707 L47.597,62.763 L49.536,61.76 L49.54,61.758 L49.445,61.583" id="Fill-65" fill="#F2447E"></path>
                <path d="M44.022,64.604 L43.896,64.76 L45.278,65.875 L45.489,65.949 C45.63,65.95 45.767,65.859 45.813,65.709 L46.449,63.55 L46.463,63.453 C46.46,63.26 46.309,63.118 46.125,63.116 L45.967,63.156 L46.062,63.332 L45.97,63.154 L43.953,64.198 L43.846,64.355 L43.823,64.584 L43.896,64.76 L44.022,64.604 L44.221,64.624 L44.233,64.503 L46.154,63.51 L46.157,63.508 L46.125,63.449 L46.125,63.516 L46.157,63.508 L46.125,63.449 L46.125,63.516 L46.125,63.453 L46.063,63.453 L46.125,63.516 L46.125,63.453 L46.063,63.453 L46.116,63.453 L46.065,63.438 L46.063,63.453 L46.116,63.453 L46.065,63.438 L45.43,65.595 L45.489,65.611 L45.489,65.549 L45.43,65.593 L45.489,65.611 L45.489,65.549 L45.489,65.613 L45.529,65.564 L45.489,65.549 L45.489,65.613 L45.529,65.564 L44.148,64.449 L44.022,64.604 L44.221,64.624 L44.022,64.604" id="Fill-66" fill="#F2447E"></path>
                <path d="M51.845,62.48 L51.942,62.305 L50.502,61.508 L50.339,61.466 C50.161,61.466 50.003,61.607 50.001,61.803 L50.004,61.84 L50.201,61.812 L50.002,61.825 L50.096,63.318 C50.109,63.504 50.263,63.635 50.433,63.634 L50.585,63.598 L50.588,63.596 L51.934,62.9 C52.053,62.839 52.118,62.716 52.116,62.601 C52.117,62.488 52.056,62.367 51.942,62.305 L51.845,62.48 L51.749,62.655 L51.779,62.601 L51.716,62.601 L51.749,62.655 L51.779,62.601 L51.716,62.601 L51.779,62.601 L51.75,62.545 L51.716,62.601 L51.779,62.601 L51.75,62.545 L50.404,63.241 L50.496,63.419 L50.406,63.24 L50.433,63.292 L50.433,63.234 L50.406,63.24 L50.433,63.292 L50.433,63.234 L50.433,63.297 L50.495,63.293 L50.433,63.234 L50.433,63.297 L50.495,63.293 L50.401,61.8 L50.399,61.784 L50.269,61.802 L50.401,61.803 L50.399,61.784 L50.269,61.802 L50.401,61.803 L50.339,61.803 L50.339,61.866 L50.401,61.803 L50.339,61.803 L50.339,61.866 L50.339,61.803 L50.308,61.858 L50.339,61.866 L50.339,61.803 L50.308,61.858 L51.748,62.655 L51.845,62.48" id="Fill-67" fill="#F2447E"></path>
                <path d="M43.617,66.976 L43.709,67.154 L45.028,66.472 L45.135,66.314 L45.158,66.085 L45.085,65.91 L43.953,64.996 L43.742,64.921 C43.583,64.919 43.427,65.039 43.406,65.22 L43.219,66.815 L43.216,66.855 C43.218,67.049 43.374,67.192 43.554,67.192 L43.705,67.156 L43.709,67.154 L43.617,66.976 L43.529,66.797 L43.554,66.847 L43.554,66.792 L43.529,66.797 L43.554,66.847 L43.554,66.792 L43.554,66.855 L43.616,66.855 L43.554,66.792 L43.554,66.855 L43.616,66.855 L43.545,66.855 L43.616,66.864 L43.616,66.855 L43.545,66.855 L43.616,66.864 L43.803,65.266 L43.742,65.258 L43.742,65.321 L43.804,65.265 L43.742,65.258 L43.742,65.321 L43.742,65.258 L43.702,65.307 L43.742,65.321 L43.742,65.258 L43.702,65.307 L44.749,66.153 L44.748,66.166 L43.525,66.799 L43.617,66.976 L43.529,66.797 L43.617,66.976" id="Fill-68" fill="#F2447E"></path>
                <path d="M91.116,40.704 L34.084,40.704 C33.48,40.705 32.988,41.197 32.987,41.801 L32.987,50.813 C33.032,50.8 33.079,50.793 33.128,50.793 L90.415,50.793 C90.691,50.793 90.915,51.017 90.915,51.293 C90.915,51.484 90.807,51.651 90.649,51.735 L92.212,51.735 L92.212,41.801 C92.211,41.197 91.718,40.705 91.116,40.704" id="Fill-69" fill="#F888AD"></path>
                <path d="M92.711,40.508 L32.487,40.508 L32.487,51.735 L32.894,51.735 C32.736,51.651 32.628,51.484 32.628,51.293 C32.628,51.066 32.78,50.874 32.987,50.813 L32.987,41.801 C32.988,41.197 33.48,40.705 34.084,40.704 L91.116,40.704 C91.718,40.705 92.211,41.197 92.212,41.801 L92.212,51.735 L92.711,51.735 L92.711,40.508" id="Fill-70" fill="#F13D79"></path>
                <path d="M90.415,50.793 L33.128,50.793 C33.079,50.793 33.032,50.8 32.987,50.813 C32.78,50.874 32.628,51.066 32.628,51.293 C32.628,51.484 32.736,51.651 32.894,51.735 L90.649,51.735 C90.807,51.651 90.915,51.484 90.915,51.293 C90.915,51.017 90.691,50.793 90.415,50.793" id="Fill-71" fill="#F13D79"></path>
                <path d="M37.416,46.158 C37.416,46.712 36.967,47.161 36.413,47.161 C35.859,47.161 35.41,46.712 35.41,46.158 C35.41,45.604 35.859,45.155 36.413,45.155 C36.967,45.155 37.416,45.604 37.416,46.158" id="Fill-72" fill="#FBB6CD"></path>
                <path d="M37.416,46.158 L36.916,46.158 C36.915,46.435 36.69,46.66 36.413,46.661 C36.135,46.66 35.911,46.435 35.91,46.158 C35.911,45.88 36.135,45.655 36.413,45.655 C36.69,45.655 36.915,45.88 36.916,46.158 L37.916,46.158 C37.916,45.327 37.243,44.655 36.413,44.655 C35.583,44.655 34.91,45.328 34.91,46.158 C34.91,46.988 35.583,47.66 36.413,47.661 C37.243,47.66 37.916,46.988 37.916,46.158 L37.416,46.158" id="Fill-73" fill="#F2447E"></path>
                <path d="M41.302,46.158 C41.302,46.712 40.853,47.161 40.299,47.161 C39.745,47.161 39.296,46.712 39.296,46.158 C39.296,45.604 39.745,45.155 40.299,45.155 C40.853,45.155 41.302,45.604 41.302,46.158" id="Fill-74" fill="#FBB6CD"></path>
                <path d="M41.302,46.158 L40.802,46.158 C40.801,46.435 40.577,46.66 40.299,46.661 C40.022,46.66 39.797,46.435 39.796,46.158 C39.797,45.88 40.022,45.655 40.299,45.655 C40.577,45.655 40.801,45.88 40.802,46.158 L41.802,46.158 C41.802,45.328 41.129,44.655 40.299,44.655 C39.469,44.655 38.796,45.328 38.796,46.158 C38.796,46.988 39.469,47.66 40.299,47.661 C41.129,47.66 41.802,46.988 41.802,46.158 L41.302,46.158" id="Fill-75" fill="#F2447E"></path>
                <path d="M45.188,46.158 C45.188,46.712 44.739,47.161 44.185,47.161 C43.631,47.161 43.182,46.712 43.182,46.158 C43.182,45.604 43.631,45.155 44.185,45.155 C44.739,45.155 45.188,45.604 45.188,46.158" id="Fill-76" fill="#FBB6CD"></path>
                <path d="M45.188,46.158 L44.688,46.158 C44.687,46.435 44.463,46.66 44.185,46.661 C43.908,46.66 43.683,46.435 43.682,46.158 C43.683,45.88 43.908,45.655 44.185,45.655 C44.463,45.655 44.687,45.88 44.688,46.158 L45.688,46.158 C45.688,45.328 45.015,44.655 44.185,44.655 C43.355,44.655 42.683,45.328 42.682,46.158 C42.683,46.988 43.355,47.66 44.185,47.661 C45.015,47.66 45.688,46.988 45.688,46.158 L45.188,46.158" id="Fill-77" fill="#F2447E"></path>
            </g>
        </g>
    </g>
</svg>