<svg xmlns="http://www.w3.org/2000/svg" viewBox="0 0 122 105"><defs><style>.cls-1{fill:#ccf4fa;}.cls-10,.cls-11,.cls-2{fill:#fff;}.cls-3{fill:#ffbe00;}.cls-4,.cls-9{fill:#00c7e5;}.cls-5{fill:#80e3f2;}.cls-6{fill:#80d8e5;}.cls-7,.cls-8{fill:none;}.cls-10,.cls-11,.cls-7,.cls-8,.cls-9{stroke:#00c7e5;}.cls-7,.cls-8,.cls-9{stroke-linecap:round;stroke-linejoin:round;}.cls-7{stroke-width:0.96px;}.cls-11,.cls-8,.cls-9{stroke-width:1.2px;}.cls-10,.cls-11{stroke-miterlimit:10;}.cls-10{stroke-width:1.3px;}</style></defs><title>アートボード 118</title><g id="言語一覧"><ellipse class="cls-1" cx="62.36" cy="58.11" rx="45.2" ry="45.48"/><path class="cls-2" d="M91.21,39.88H34.35a1.6,1.6,0,0,0-1.6,1.6V93a45,45,0,0,0,60.05-1.8V41.48A1.6,1.6,0,0,0,91.21,39.88Z"/><path class="cls-3" d="M61.78,104.09A45.56,45.56,0,0,1,32.43,93.35l-.18-.15V41.48a2.1,2.1,0,0,1,2.1-2.1H91.21a2.1,2.1,0,0,1,2.09,2.1v49.9l-.16.15A45.35,45.35,0,0,1,61.78,104.09ZM33.25,92.73A44.45,44.45,0,0,0,92.3,91V41.48a1.09,1.09,0,0,0-1.09-1.1H34.35a1.1,1.1,0,0,0-1.1,1.1Z"/><ellipse class="cls-4" cx="87.22" cy="8.98" rx="1" ry="1.01"/><ellipse class="cls-4" cx="15.54" cy="26.25" rx="1" ry="1.01"/><ellipse class="cls-4" cx="62.74" cy="12.62" rx="1.62" ry="1.63"/><ellipse class="cls-4" cx="17.17" cy="58.11" rx="1.62" ry="1.63"/><ellipse class="cls-4" cx="107.56" cy="58.11" rx="1.62" ry="1.63"/><rect class="cls-5" x="32.75" y="40.18" width="60.05" height="11.27"/><path class="cls-4" d="M90.51,51.51H33.39a.51.51,0,0,1,0-1H90.51a.51.51,0,0,1,0,1Z"/><path class="cls-6" d="M10.73,37.24H5.46a.5.5,0,0,1,0-1h5.27a.5.5,0,0,1,0,1Z"/><path class="cls-6" d="M8.1,39.89a.5.5,0,0,1-.5-.5v-5.3a.5.5,0,1,1,1,0v5.3A.49.49,0,0,1,8.1,39.89Z"/><path class="cls-6" d="M119.72,75.48h-5.27a.51.51,0,0,1,0-1h5.27a.51.51,0,0,1,0,1Z"/><path class="cls-6" d="M117.09,78.13a.5.5,0,0,1-.5-.5V72.32a.5.5,0,0,1,.5-.5.51.51,0,0,1,.5.5v5.31A.51.51,0,0,1,117.09,78.13Z"/><path class="cls-6" d="M44.51,2.57a.4.4,0,0,1-.4-.4V.81a.4.4,0,1,1,.8,0V2.17A.4.4,0,0,1,44.51,2.57Z"/><path class="cls-6" d="M44.51,7.41a.4.4,0,0,1-.4-.4V5.64a.4.4,0,1,1,.8,0V7A.4.4,0,0,1,44.51,7.41Z"/><path class="cls-6" d="M47.65,4.37H46.3a.4.4,0,1,1,0-.8h1.35a.4.4,0,0,1,0,.8Z"/><path class="cls-6" d="M42.82,4.37H41.46a.4.4,0,1,1,0-.8h1.36a.4.4,0,0,1,0,.8Z"/><path class="cls-6" d="M45.82,3.06a.38.38,0,0,1-.28-.12.4.4,0,0,1,0-.57l1-1a.4.4,0,0,1,.56.56l-1,1A.39.39,0,0,1,45.82,3.06Z"/><path class="cls-6" d="M46.78,6.53a.38.38,0,0,1-.28-.12l-1-1a.4.4,0,0,1,0-.57.39.39,0,0,1,.56,0l1,1a.41.41,0,0,1-.28.69Z"/><path class="cls-6" d="M43.19,3.06a.39.39,0,0,1-.28-.12L42,2a.4.4,0,0,1,0-.56.4.4,0,0,1,.57,0l1,1a.42.42,0,0,1,0,.57A.4.4,0,0,1,43.19,3.06Z"/><path class="cls-6" d="M42.23,6.53A.39.39,0,0,1,42,6.41a.42.42,0,0,1,0-.57l1-1a.4.4,0,0,1,.57,0,.42.42,0,0,1,0,.57l-1,1A.4.4,0,0,1,42.23,6.53Z"/><path class="cls-6" d="M96.09,10.68a2.54,2.54,0,1,1,2.53-2.54A2.54,2.54,0,0,1,96.09,10.68Zm0-4.08a1.54,1.54,0,1,0,1.53,1.54A1.54,1.54,0,0,0,96.09,6.6Z"/><path class="cls-6" d="M100.73,17.11H95.45a.49.49,0,0,1-.49-.5.5.5,0,0,1,.49-.5h5.28a.5.5,0,0,1,.49.5A.49.49,0,0,1,100.73,17.11Z"/><path class="cls-6" d="M98.09,19.77a.5.5,0,0,1-.5-.51V14a.5.5,0,0,1,.5-.5.5.5,0,0,1,.5.5v5.3A.51.51,0,0,1,98.09,19.77Z"/><path class="cls-6" d="M118.51,63.28a.4.4,0,0,1-.4-.4v-1.1a.4.4,0,0,1,.8,0v1.1A.4.4,0,0,1,118.51,63.28Z"/><path class="cls-6" d="M118.51,67.19a.4.4,0,0,1-.4-.4V65.68a.4.4,0,1,1,.8,0v1.11A.4.4,0,0,1,118.51,67.19Z"/><path class="cls-6" d="M121.05,64.73H120a.4.4,0,1,1,0-.8h1.09a.4.4,0,0,1,0,.8Z"/><path class="cls-6" d="M117.15,64.73h-1.1a.4.4,0,1,1,0-.8h1.1a.4.4,0,0,1,0,.8Z"/><path class="cls-6" d="M119.57,63.67a.39.39,0,0,1-.28-.12.39.39,0,0,1,0-.56l.77-.78a.39.39,0,0,1,.56,0,.41.41,0,0,1,0,.57l-.78.77A.39.39,0,0,1,119.57,63.67Z"/><path class="cls-6" d="M120.34,66.48a.39.39,0,0,1-.28-.12l-.77-.78a.4.4,0,0,1,0-.57.39.39,0,0,1,.56,0l.78.78a.42.42,0,0,1,0,.57A.4.4,0,0,1,120.34,66.48Z"/><path class="cls-6" d="M117.45,63.67a.39.39,0,0,1-.28-.12l-.78-.77a.41.41,0,0,1,0-.57.39.39,0,0,1,.56,0l.77.78a.39.39,0,0,1,0,.56A.39.39,0,0,1,117.45,63.67Z"/><path class="cls-6" d="M116.68,66.48a.4.4,0,0,1-.29-.12.42.42,0,0,1,0-.57l.78-.78a.39.39,0,0,1,.56,0,.4.4,0,0,1,0,.57l-.77.78A.39.39,0,0,1,116.68,66.48Z"/><path class="cls-6" d="M3.43,30.84A2.55,2.55,0,1,1,6,28.29,2.54,2.54,0,0,1,3.43,30.84Zm0-4.09A1.54,1.54,0,1,0,5,28.29,1.54,1.54,0,0,0,3.43,26.75Z"/><path class="cls-4" d="M17.72,52h-.16a1,1,0,0,1-.83-1.14A46.2,46.2,0,0,1,54.79,12.24a1,1,0,0,1,.33,2A44.21,44.21,0,0,0,18.7,51.16,1,1,0,0,1,17.72,52Z"/><path class="cls-4" d="M62.36,104.59a46.46,46.46,0,0,1-45.74-40,1,1,0,0,1,.85-1.14,1,1,0,0,1,1.12.86,44.17,44.17,0,0,0,87.39,1,1,1,0,1,1,2,.32A46.09,46.09,0,0,1,62.36,104.59Z"/><path class="cls-4" d="M107.08,52.45a1,1,0,0,1-1-.86A44.11,44.11,0,0,0,69.47,14.2a1,1,0,0,1-.82-1.15,1,1,0,0,1,1.14-.83A46.11,46.11,0,0,1,108.07,51.3a1,1,0,0,1-.84,1.14Z"/><path class="cls-4" d="M61.78,104.09A45.56,45.56,0,0,1,32.43,93.35l-.18-.15V41.48a2.1,2.1,0,0,1,2.1-2.1H91.21a2.1,2.1,0,0,1,2.09,2.1v49.9l-.16.15A45.35,45.35,0,0,1,61.78,104.09ZM33.25,92.73A44.45,44.45,0,0,0,92.3,91V41.48a1.09,1.09,0,0,0-1.09-1.1H34.35a1.1,1.1,0,0,0-1.1,1.1Z"/><ellipse class="cls-7" cx="39.6" cy="45.77" rx="1" ry="0.99"/><ellipse class="cls-7" cx="43.47" cy="45.77" rx="1" ry="0.99"/><ellipse class="cls-7" cx="47.34" cy="45.77" rx="1" ry="0.99"/><ellipse class="cls-1" cx="64.68" cy="75.58" rx="6.19" ry="17.4" transform="translate(-34.47 67.47) rotate(-44.77)"/><ellipse class="cls-1" cx="64.68" cy="75.58" rx="17.36" ry="6.21" transform="translate(-17.47 19.48) rotate(-15.12)"/><ellipse class="cls-1" cx="64.68" cy="75.58" rx="17.45" ry="6.17" transform="translate(-24.98 118.67) rotate(-75.12)"/><path class="cls-8" d="M65.31,87.19c4.56,3,8.54,4,10.22,2.32,1.25-1.28,1-3.85-.43-7"/><path class="cls-8" d="M55.19,78.11c-.77-.91-1.48-1.81-2.12-2.7"/><path class="cls-8" d="M65.31,87.19a42.48,42.48,0,0,1-4.84-3.7"/><path class="cls-8" d="M57.6,94.4c2.29.63,5.21-2.31,7.71-7.21"/><path class="cls-8" d="M54.46,84.23c-.05,1.06-.05,2.07,0,3"/><path class="cls-8" d="M67.2,57.87c-2.29-.63-5.21,2.31-7.71,7.22"/><path class="cls-8" d="M55.19,78.11C56,79,56.83,80,57.73,80.89s1.82,1.79,2.74,2.6"/><path class="cls-8" d="M64.33,68.79c-1.18.23-2.4.51-3.64.85s-2.43.71-3.57,1.12"/><path class="cls-8" d="M60.47,83.49c1.18-.24,2.4-.52,3.64-.86s2.43-.71,3.57-1.11"/><path class="cls-8" d="M64.33,68.79a40.14,40.14,0,0,1,6-.74"/><path class="cls-8" d="M51.55,73.18a40.16,40.16,0,0,1,5.57-2.42"/><path class="cls-8" d="M73.25,79.1a42.71,42.71,0,0,1-5.57,2.42"/><path class="cls-9" d="M67.68,81.52c.4-1.17.77-2.38,1.1-3.64s.61-2.5.83-3.71"/><path class="cls-8" d="M67.68,81.52a45,45,0,0,1-2.37,5.67"/><path class="cls-8" d="M54.46,84.23a42.65,42.65,0,0,1,.73-6.12"/><path class="cls-8" d="M51.55,73.18c-4.81,2.54-7.7,5.51-7.08,7.85s4.57,3.45,10,3.2"/><path class="cls-8" d="M60.47,83.49a42.94,42.94,0,0,1-6,.74"/><path class="cls-8" d="M57.12,70.76a43.8,43.8,0,0,1,2.37-5.67"/><path class="cls-8" d="M57.12,70.76c-.4,1.16-.77,2.38-1.1,3.64s-.61,2.5-.83,3.71"/><path class="cls-8" d="M59.49,65.09c-4.56-3-8.54-4-10.22-2.33-1.16,1.19-1.23,4.18.51,7"/><path class="cls-8" d="M59.49,65.09a41.36,41.36,0,0,1,4.84,3.7"/><ellipse class="cls-10" cx="62.51" cy="76.57" rx="2.37" ry="2.41"/><ellipse class="cls-11" cx="70.2" cy="60.34" rx="1.41" ry="1.43"/><ellipse class="cls-11" cx="55.15" cy="91.44" rx="1.41" ry="1.43"/><path class="cls-8" d="M73.25,79.1c4.81-2.54,7.7-5.52,7.08-7.86s-4.57-3.45-10-3.19"/><path class="cls-8" d="M70.34,68.05a27.39,27.39,0,0,0,0-3.41"/><path class="cls-8" d="M70.34,68.05a43,43,0,0,1-.73,6.12"/><path class="cls-8" d="M69.61,74.17c-.79-.93-1.64-1.87-2.54-2.79s-1.82-1.79-2.74-2.59"/><path class="cls-8" d="M69.61,74.17c.62.73,1.21,1.46,1.75,2.18"/></g></svg>