<?xml version="1.0" encoding="UTF-8" standalone="no"?>
<svg width="122px" height="105px" viewBox="0 0 122 105" version="1.1" xmlns="http://www.w3.org/2000/svg" xmlns:xlink="http://www.w3.org/1999/xlink" xmlns:sketch="http://www.bohemiancoding.com/sketch/ns">
    <!-- Generator: Sketch 3.3.3 (12081) - http://www.bohemiancoding.com/sketch -->
    <title>lesson-list--ruby-study</title>
    <desc>Created with Sketch.</desc>
    <defs></defs>
    <g id="Page-1" stroke="none" stroke-width="1" fill="none" fill-rule="evenodd" sketch:type="MSPage">
        <g id="lesson-list" sketch:type="MSLayerGroup" transform="translate(-30.000000, -411.000000)">
            <g id="lesson-list--ruby-study" transform="translate(30.000000, 411.000000)" sketch:type="MSShapeGroup">
                <path d="M107.453,58.209 C107.453,83.245 87.158,103.54 62.123,103.54 C37.087,103.54 16.792,83.245 16.792,58.209 C16.792,33.174 37.087,12.878 62.123,12.878 C87.158,12.878 107.453,33.174 107.453,58.209" id="Fill-1" fill="#FFBEC4"></path>
                <path d="M91.053,40.04 L34.021,40.04 C33.14,40.04 32.425,40.756 32.425,41.637 L32.425,92.951 C40.3,99.557 50.45,103.54 61.534,103.54 C73.585,103.54 84.529,98.828 92.649,91.158 L92.649,41.637 C92.649,40.756 91.933,40.04 91.053,40.04" id="Fill-2" fill="#FFFFFF"></path>
                <path d="M91.053,40.04 L91.053,39.54 L34.021,39.54 C32.863,39.541 31.926,40.479 31.924,41.637 L31.924,92.951 C31.924,93.099 31.99,93.238 32.103,93.334 C40.064,100.012 50.329,104.04 61.534,104.04 C73.716,104.04 84.785,99.275 92.992,91.521 C93.092,91.427 93.149,91.295 93.149,91.158 L93.149,41.637 C93.148,40.479 92.21,39.541 91.053,39.54 L91.053,40.54 C91.656,40.541 92.148,41.033 92.149,41.637 L92.149,91.158 L92.649,91.158 L92.305,90.794 C84.274,98.381 73.453,103.039 61.534,103.04 C50.571,103.039 40.536,99.101 32.746,92.568 L32.425,92.951 L32.925,92.951 L32.925,41.637 C32.926,41.033 33.417,40.541 34.021,40.54 L91.053,40.54 L91.053,40.04" id="Fill-3" fill="#FF5465"></path>
                <path d="M91.053,40.54 L34.021,40.54 C33.417,40.541 32.926,41.033 32.925,41.637 L32.925,51.571 L92.149,51.571 L92.149,41.637 C92.148,41.033 91.656,40.541 91.053,40.54" id="Fill-4" fill="#FF919C"></path>
                <path d="M92.649,40.344 L32.425,40.344 L32.425,51.571 L32.925,51.571 L32.925,41.637 C32.926,41.033 33.417,40.541 34.021,40.54 L91.053,40.54 C91.656,40.541 92.148,41.033 92.149,41.637 L92.149,51.571 L92.649,51.571 L92.649,40.344" id="Fill-5" fill="#FF3C4F"></path>
                <path d="M88.059,9.243 C88.059,9.797 87.61,10.246 87.056,10.246 C86.502,10.246 86.053,9.797 86.053,9.243 C86.053,8.69 86.502,8.241 87.056,8.241 C87.61,8.241 88.059,8.69 88.059,9.243" id="Fill-6" fill="#FF5465"></path>
                <path d="M16.166,26.46 C16.166,27.014 15.717,27.463 15.163,27.463 C14.609,27.463 14.16,27.014 14.16,26.46 C14.16,25.907 14.609,25.457 15.163,25.457 C15.717,25.457 16.166,25.907 16.166,26.46" id="Fill-7" fill="#FF5465"></path>
                <path d="M64.132,12.878 C64.132,13.778 63.403,14.507 62.503,14.507 C61.603,14.507 60.874,13.778 60.874,12.878 C60.874,11.978 61.603,11.249 62.503,11.249 C63.403,11.249 64.132,11.978 64.132,12.878" id="Fill-8" fill="#FF5465"></path>
                <path d="M18.421,58.209 C18.421,59.109 17.692,59.838 16.792,59.838 C15.892,59.838 15.163,59.109 15.163,58.209 C15.163,57.309 15.892,56.58 16.792,56.58 C17.692,56.58 18.421,57.309 18.421,58.209" id="Fill-9" fill="#FF5465"></path>
                <path d="M109.083,58.209 C109.083,59.109 108.353,59.838 107.454,59.838 C106.554,59.838 105.824,59.109 105.824,58.209 C105.824,57.309 106.554,56.58 107.454,56.58 C108.353,56.58 109.083,57.309 109.083,58.209" id="Fill-10" fill="#FF5465"></path>
                <path d="M5.052,37.411 L10.337,37.411 C10.614,37.411 10.838,37.187 10.838,36.911 C10.838,36.635 10.614,36.411 10.337,36.411 L5.052,36.411 C4.775,36.411 4.552,36.635 4.552,36.911 C4.552,37.187 4.775,37.411 5.052,37.411" id="Fill-11" fill="#FF5465"></path>
                <path d="M8.195,39.554 L8.195,34.268 C8.195,33.992 7.971,33.768 7.695,33.768 C7.418,33.768 7.195,33.992 7.195,34.268 L7.195,39.554 C7.195,39.83 7.418,40.054 7.695,40.054 C7.971,40.054 8.195,39.83 8.195,39.554" id="Fill-12" fill="#FF5465"></path>
                <path d="M114.365,75.52 L119.65,75.52 C119.927,75.52 120.15,75.296 120.15,75.02 C120.15,74.744 119.927,74.52 119.65,74.52 L114.365,74.52 C114.088,74.52 113.865,74.744 113.865,75.02 C113.865,75.296 114.088,75.52 114.365,75.52" id="Fill-13" fill="#FF5465"></path>
                <path d="M117.508,77.663 L117.508,72.377 C117.508,72.101 117.284,71.877 117.008,71.877 C116.731,71.877 116.508,72.101 116.508,72.377 L116.508,77.663 C116.508,77.939 116.731,78.163 117.008,78.163 C117.284,78.163 117.508,77.939 117.508,77.663" id="Fill-14" fill="#FF5465"></path>
                <path d="M43.816,1.101 L43.816,2.46 C43.816,2.681 43.995,2.86 44.216,2.86 C44.437,2.86 44.616,2.681 44.616,2.46 L44.616,1.101 C44.616,0.88 44.437,0.701 44.216,0.701 C43.995,0.701 43.816,0.88 43.816,1.101" id="Fill-15" fill="#FF5465"></path>
                <path d="M43.816,5.922 L43.816,7.282 C43.816,7.503 43.995,7.682 44.216,7.682 C44.437,7.682 44.616,7.503 44.616,7.282 L44.616,5.922 C44.616,5.701 44.437,5.522 44.216,5.522 C43.995,5.522 43.816,5.701 43.816,5.922" id="Fill-16" fill="#FF5465"></path>
                <path d="M47.369,3.853 L46.009,3.853 C45.788,3.853 45.609,4.032 45.609,4.253 C45.609,4.474 45.788,4.653 46.009,4.653 L47.369,4.653 C47.589,4.653 47.769,4.474 47.769,4.253 C47.769,4.032 47.589,3.853 47.369,3.853" id="Fill-17" fill="#FF5465"></path>
                <path d="M42.516,3.853 L41.156,3.853 C40.935,3.853 40.756,4.032 40.756,4.253 C40.756,4.474 40.935,4.653 41.156,4.653 L42.516,4.653 C42.737,4.653 42.916,4.474 42.916,4.253 C42.916,4.032 42.737,3.853 42.516,3.853" id="Fill-18" fill="#FF5465"></path>
                <path d="M46.207,1.697 L45.245,2.658 C45.089,2.815 45.089,3.068 45.245,3.224 C45.401,3.38 45.654,3.38 45.811,3.224 L46.772,2.263 C46.928,2.106 46.928,1.853 46.772,1.697 C46.616,1.541 46.363,1.541 46.207,1.697" id="Fill-19" fill="#FF5465"></path>
                <path d="M46.772,6.12 L45.811,5.158 C45.654,5.002 45.401,5.002 45.245,5.159 C45.089,5.315 45.089,5.568 45.245,5.724 L46.207,6.686 C46.363,6.842 46.616,6.842 46.772,6.686 C46.928,6.53 46.928,6.276 46.772,6.12" id="Fill-20" fill="#FF5465"></path>
                <path d="M41.65,2.263 L42.612,3.224 C42.768,3.38 43.021,3.38 43.178,3.224 C43.334,3.068 43.334,2.815 43.178,2.658 L42.216,1.697 C42.06,1.541 41.807,1.541 41.65,1.697 C41.494,1.853 41.494,2.106 41.65,2.263" id="Fill-21" fill="#FF5465"></path>
                <path d="M42.216,6.686 L43.178,5.724 C43.334,5.568 43.334,5.315 43.178,5.159 C43.021,5.002 42.768,5.002 42.612,5.158 L41.65,6.12 C41.494,6.276 41.494,6.53 41.65,6.686 C41.807,6.842 42.06,6.842 42.216,6.686" id="Fill-22" fill="#FF5465"></path>
                <path d="M97.982,8.409 L97.482,8.409 C97.48,9.256 96.795,9.942 95.947,9.943 C95.1,9.942 94.414,9.256 94.412,8.409 C94.414,7.561 95.1,6.876 95.947,6.874 C96.795,6.876 97.48,7.561 97.482,8.409 L98.482,8.409 C98.482,7.009 97.347,5.874 95.947,5.874 C94.547,5.874 93.413,7.009 93.412,8.409 C93.413,9.809 94.547,10.943 95.947,10.943 C97.347,10.943 98.482,9.809 98.482,8.409 L97.982,8.409" id="Fill-23" fill="#FF5465"></path>
                <path d="M33.066,51.629 L90.352,51.629 C90.628,51.629 90.852,51.405 90.852,51.129 C90.852,50.853 90.628,50.629 90.352,50.629 L33.066,50.629 C32.789,50.629 32.566,50.853 32.566,51.129 C32.566,51.405 32.789,51.629 33.066,51.629" id="Fill-24" fill="#FF5465"></path>
                <path d="M36.848,43.97 L38.283,45.462 L36.855,46.891 C36.659,47.086 36.659,47.403 36.854,47.598 C37.05,47.794 37.366,47.794 37.562,47.598 L39.337,45.823 C39.53,45.63 39.533,45.319 39.344,45.123 L37.568,43.276 C37.377,43.077 37.06,43.071 36.861,43.263 C36.662,43.454 36.656,43.771 36.848,43.97" id="Fill-25" fill="#FF3B4E"></path>
                <path d="M39.55,48.302 L42.208,48.302 C42.484,48.302 42.708,48.079 42.708,47.802 C42.708,47.526 42.484,47.302 42.208,47.302 L39.55,47.302 C39.274,47.302 39.05,47.526 39.05,47.802 C39.05,48.079 39.274,48.302 39.55,48.302" id="Fill-26" fill="#FF3B4E"></path>
                <path d="M95.31,17.353 L100.596,17.353 C100.872,17.353 101.096,17.13 101.096,16.853 C101.096,16.577 100.872,16.354 100.596,16.354 L95.31,16.354 C95.034,16.354 94.81,16.577 94.81,16.853 C94.81,17.13 95.034,17.353 95.31,17.353" id="Fill-27" fill="#FFAEB6"></path>
                <path d="M98.453,19.496 L98.453,14.211 C98.453,13.934 98.229,13.711 97.953,13.711 C97.677,13.711 97.453,13.934 97.453,14.211 L97.453,19.496 C97.453,19.773 97.677,19.996 97.953,19.996 C98.229,19.996 98.453,19.773 98.453,19.496" id="Fill-28" fill="#FFAEB6"></path>
                <path d="M118.037,61.869 L118.037,62.967 C118.037,63.187 118.217,63.367 118.437,63.367 C118.658,63.367 118.837,63.187 118.837,62.967 L118.837,61.869 C118.837,61.648 118.658,61.469 118.437,61.469 C118.217,61.469 118.037,61.648 118.037,61.869" id="Fill-29" fill="#FFAEB6"></path>
                <path d="M118.037,65.761 L118.037,66.858 C118.037,67.079 118.217,67.258 118.437,67.258 C118.658,67.258 118.837,67.079 118.837,66.858 L118.837,65.761 C118.837,65.54 118.658,65.361 118.437,65.361 C118.217,65.361 118.037,65.54 118.037,65.761" id="Fill-30" fill="#FFAEB6"></path>
                <path d="M120.982,64.014 L119.884,64.014 C119.663,64.014 119.484,64.193 119.484,64.414 C119.484,64.634 119.663,64.813 119.884,64.813 L120.982,64.813 C121.203,64.813 121.382,64.634 121.382,64.414 C121.382,64.193 121.203,64.014 120.982,64.014" id="Fill-31" fill="#FFAEB6"></path>
                <path d="M117.065,64.014 L115.968,64.014 C115.747,64.014 115.568,64.193 115.568,64.414 C115.568,64.634 115.747,64.813 115.968,64.813 L117.065,64.813 C117.286,64.813 117.465,64.634 117.465,64.414 C117.465,64.193 117.286,64.014 117.065,64.014" id="Fill-32" fill="#FFAEB6"></path>
                <path d="M119.989,62.296 L119.213,63.072 C119.057,63.228 119.057,63.481 119.213,63.637 C119.37,63.794 119.623,63.794 119.779,63.637 L120.555,62.861 C120.711,62.705 120.711,62.452 120.555,62.295 C120.399,62.139 120.146,62.139 119.989,62.296" id="Fill-33" fill="#FFAEB6"></path>
                <path d="M120.555,65.866 L119.779,65.09 C119.623,64.933 119.37,64.933 119.213,65.09 C119.057,65.246 119.057,65.499 119.213,65.655 L119.989,66.431 C120.146,66.588 120.399,66.588 120.555,66.432 C120.711,66.275 120.711,66.022 120.555,65.866" id="Fill-34" fill="#FFAEB6"></path>
                <path d="M116.312,62.861 L117.088,63.637 C117.244,63.794 117.497,63.794 117.654,63.637 C117.81,63.481 117.81,63.228 117.654,63.072 L116.878,62.296 C116.721,62.139 116.468,62.139 116.312,62.295 C116.156,62.452 116.156,62.705 116.312,62.861" id="Fill-35" fill="#FFAEB6"></path>
                <path d="M116.878,66.431 L117.654,65.655 C117.81,65.499 117.81,65.246 117.654,65.09 C117.497,64.933 117.244,64.933 117.088,65.09 L116.312,65.866 C116.156,66.022 116.156,66.275 116.312,66.432 C116.468,66.588 116.721,66.588 116.878,66.431" id="Fill-36" fill="#FFAEB6"></path>
                <path d="M5.052,28.495 L4.552,28.495 C4.55,29.343 3.864,30.028 3.017,30.03 C2.169,30.028 1.484,29.343 1.482,28.495 C1.484,27.648 2.169,26.962 3.017,26.96 C3.864,26.962 4.55,27.648 4.552,28.495 L5.552,28.495 C5.551,27.095 4.417,25.961 3.017,25.96 C1.617,25.961 0.482,27.095 0.482,28.495 C0.482,29.895 1.617,31.03 3.017,31.03 C4.417,31.03 5.551,29.895 5.552,28.495 L5.052,28.495" id="Fill-37" fill="#FFAEB6"></path>
                <path d="M18.33,51.282 C21.281,32.463 36.084,17.564 54.855,14.471 C55.4,14.381 55.769,13.866 55.679,13.322 C55.589,12.777 55.075,12.408 54.53,12.498 C34.903,15.735 19.443,31.295 16.354,50.972 C16.268,51.517 16.641,52.029 17.187,52.115 C17.732,52.2 18.244,51.827 18.33,51.282" id="Fill-38" fill="#FF5465"></path>
                <path d="M105.869,65.425 C102.424,86.473 84.149,102.542 62.123,102.54 C39.75,102.542 21.247,85.963 18.224,64.427 C18.148,63.88 17.642,63.499 17.095,63.576 C16.548,63.653 16.167,64.158 16.244,64.705 C19.404,87.221 38.74,104.538 62.123,104.54 C85.143,104.538 104.241,87.754 107.843,65.748 C107.932,65.203 107.563,64.689 107.018,64.6 C106.473,64.51 105.958,64.88 105.869,65.425" id="Fill-39" fill="#FF5465"></path>
                <path d="M69.253,14.449 C88.234,17.515 103.185,32.646 105.982,51.716 C106.062,52.263 106.57,52.641 107.116,52.561 C107.663,52.481 108.041,51.973 107.961,51.426 C105.033,31.487 89.418,15.684 69.572,12.474 C69.027,12.386 68.513,12.756 68.425,13.302 C68.337,13.847 68.708,14.36 69.253,14.449" id="Fill-40" fill="#FF5465"></path>
                <path d="M50.375,62.834 L75.299,62.834 C75.453,62.834 75.597,62.911 75.682,63.039 L81.631,71.963 C81.75,72.141 81.73,72.377 81.585,72.533 L63.041,92.346 C62.86,92.54 62.554,92.541 62.371,92.348 L43.835,72.797 C43.686,72.64 43.667,72.401 43.788,72.222 L49.994,63.037 C50.08,62.91 50.223,62.834 50.375,62.834" id="Fill-41" fill="#FF7684"></path>
                <path d="M50.375,62.834 L50.375,63.334 L75.299,63.334 L75.299,63.294 L75.266,63.316 L75.299,63.334 L75.299,63.294 L75.266,63.316 L81.215,72.24 L81.249,72.218 L81.208,72.218 L81.215,72.24 L81.249,72.218 L81.208,72.218 L81.245,72.218 L81.218,72.193 L81.208,72.218 L81.245,72.218 L81.218,72.193 L81.219,72.191 L62.676,92.004 L62.705,92.031 L62.705,91.992 L62.676,92.004 L62.705,92.031 L62.705,91.992 L62.705,92.032 L62.734,92.004 L62.705,91.992 L62.705,92.032 L62.734,92.004 L44.198,72.452 L44.17,72.48 L44.209,72.48 L44.198,72.453 L44.17,72.48 L44.209,72.48 L44.166,72.48 L44.201,72.504 L44.209,72.48 L44.166,72.48 L44.201,72.504 L50.408,63.317 L50.375,63.294 L50.375,63.334 L50.408,63.317 L50.375,63.294 L50.375,63.334 L50.375,62.334 C50.056,62.334 49.758,62.492 49.58,62.757 L43.373,71.942 C43.263,72.104 43.208,72.294 43.209,72.48 C43.208,72.718 43.298,72.957 43.472,73.14 L62.008,92.692 C62.196,92.891 62.453,92.992 62.705,92.992 C62.959,92.992 63.218,92.889 63.406,92.688 L81.95,72.874 L81.951,72.872 C82.12,72.69 82.209,72.455 82.208,72.218 C82.209,72.034 82.155,71.848 82.047,71.685 L76.098,62.762 C75.92,62.494 75.62,62.334 75.299,62.334 L50.375,62.334 L50.375,62.834" id="Fill-42" fill="#FF5465"></path>
                <path d="M54.869,74.033 L49.97,74.033 C49.59,74.033 49.395,74.488 49.657,74.763 L60.222,85.875 L60.181,85.715 L54.869,74.033" id="Fill-43" fill="#FFBEC4"></path>
                <path d="M58.297,74.033 L63.617,86.125 L68.936,74.033 L58.297,74.033" id="Fill-44" fill="#FFBEC4"></path>
                <path d="M72.628,74.033 C72.417,74.033 72.226,74.156 72.139,74.348 L67.363,84.877 L77.319,74.033 L72.628,74.033" id="Fill-45" fill="#FFBEC4"></path>
                <path d="M67.826,71.309 C68.207,71.309 68.401,70.852 68.138,70.577 L64.453,66.728 L60.068,71.309 L67.826,71.309" id="Fill-46" fill="#FFBEC4"></path>
                <path d="M67.219,66.391 L70.699,70.026 L72.62,65.66 L67.531,65.66 C67.15,65.66 66.955,66.116 67.219,66.391" id="Fill-47" fill="#FFBEC4"></path>
                <path d="M54.88,66.266 L56.458,69.853 L60.473,65.66 L55.276,65.66 C54.964,65.66 54.755,65.981 54.88,66.266" id="Fill-48" fill="#FFBEC4"></path>
                <path d="M77.447,71.309 C77.793,71.309 77.999,70.924 77.807,70.637 L75.967,67.877 L74.458,71.309 L77.447,71.309" id="Fill-49" fill="#FFBEC4"></path>
                <path d="M52.993,71.309 C53.305,71.309 53.514,70.988 53.389,70.702 L52.286,68.197 L50.183,71.309 L52.993,71.309" id="Fill-50" fill="#FFBEC4"></path>
                <path d="M47.657,73.763 L47.294,74.108 L59.112,86.537 C59.29,86.728 59.546,86.833 59.782,86.83 C60.035,86.829 60.26,86.729 60.431,86.569 C60.601,86.41 60.723,86.172 60.723,85.901 C60.723,85.768 60.693,85.633 60.636,85.508 L54.984,73.079 C54.833,72.746 54.501,72.533 54.135,72.533 L47.97,72.533 C47.702,72.531 47.452,72.65 47.291,72.825 C47.128,73 47.037,73.226 47.037,73.468 C47.035,73.69 47.122,73.929 47.294,74.108 L47.657,73.763 L48.019,73.418 L47.967,73.468 L48.037,73.468 L48.019,73.418 L47.967,73.468 L48.037,73.468 L47.977,73.468 L48.021,73.509 L48.037,73.468 L47.977,73.468 L48.021,73.509 L47.97,73.461 L47.97,73.533 L48.021,73.509 L47.97,73.461 L47.97,73.533 L54.135,73.533 L54.135,73.465 L54.074,73.493 L54.135,73.533 L54.135,73.465 L54.074,73.493 L59.726,85.922 L59.773,85.901 L59.723,85.901 L59.726,85.922 L59.773,85.901 L59.723,85.901 L59.8,85.901 L59.745,85.842 L59.723,85.901 L59.8,85.901 L59.745,85.842 L59.782,85.881 L59.782,85.83 L59.745,85.842 L59.782,85.881 L59.782,85.83 L59.782,85.926 L59.82,85.838 L59.782,85.83 L59.782,85.926 L59.82,85.838 L59.801,85.881 L59.836,85.847 L59.82,85.838 L59.801,85.881 L59.836,85.847 L48.019,73.418 L47.657,73.763" id="Fill-51" fill="#FF5465"></path>
                <path d="M56.297,73.033 L55.839,73.234 L61.983,87.2 C62.14,87.562 62.502,87.762 62.837,87.756 C63.171,87.762 63.533,87.562 63.69,87.2 L69.567,73.841 C69.62,73.719 69.646,73.59 69.646,73.465 C69.645,72.97 69.249,72.536 68.713,72.533 L56.297,72.533 C56.128,72.533 55.971,72.618 55.878,72.759 C55.786,72.901 55.771,73.079 55.839,73.234 L56.297,73.033 L56.297,73.533 L68.713,73.533 L68.713,73.465 L68.646,73.465 L68.713,73.533 L68.713,73.465 L68.646,73.465 L68.712,73.465 L68.651,73.438 L68.646,73.465 L68.712,73.465 L68.651,73.438 L62.775,86.797 L62.837,86.824 L62.837,86.757 L62.775,86.797 L62.837,86.824 L62.837,86.757 L62.837,86.824 L62.898,86.797 L62.837,86.757 L62.837,86.824 L62.898,86.797 L56.755,72.831 L56.297,73.033 L56.297,73.533 L56.297,73.033" id="Fill-52" fill="#FF5465"></path>
                <path d="M77.254,73.033 L77.254,72.533 L71.538,72.533 C71.172,72.533 70.84,72.747 70.689,73.08 L65.109,85.384 C65.052,85.507 65.022,85.643 65.022,85.776 C65.022,86.048 65.145,86.286 65.316,86.445 C65.487,86.605 65.712,86.703 65.964,86.704 C66.203,86.708 66.466,86.599 66.644,86.4 L77.94,74.096 C78.105,73.918 78.188,73.685 78.186,73.468 C78.186,73.226 78.095,72.999 77.932,72.824 C77.77,72.649 77.522,72.531 77.254,72.533 L77.254,73.533 L77.254,73.461 L77.202,73.509 L77.254,73.533 L77.254,73.461 L77.202,73.509 L77.246,73.468 L77.187,73.468 L77.202,73.509 L77.246,73.468 L77.187,73.468 L77.256,73.468 L77.204,73.419 L77.187,73.468 L77.256,73.468 L77.204,73.419 L65.908,85.723 L65.945,85.755 L65.926,85.712 L65.909,85.722 L65.945,85.755 L65.926,85.712 L65.964,85.799 L65.964,85.704 L65.926,85.712 L65.964,85.799 L65.964,85.704 L65.964,85.754 L66,85.716 L65.964,85.704 L65.964,85.754 L66,85.716 L65.944,85.776 L66.022,85.776 L66,85.716 L65.944,85.776 L66.022,85.776 L65.973,85.776 L66.02,85.797 L66.022,85.776 L65.973,85.776 L66.02,85.797 L71.6,73.493 L71.538,73.465 L71.538,73.533 L71.599,73.493 L71.538,73.465 L71.538,73.533 L77.254,73.533 L77.254,73.033" id="Fill-53" fill="#FF5465"></path>
                <path d="M58.123,71.309 L58.123,71.809 L67.826,71.809 C68.094,71.811 68.344,71.692 68.505,71.516 C68.668,71.341 68.758,71.115 68.759,70.873 C68.761,70.65 68.673,70.41 68.499,70.231 L63.648,65.164 C63.466,64.974 63.218,64.876 62.974,64.876 C62.731,64.876 62.482,64.973 62.3,65.165 L57.449,70.232 C57.276,70.41 57.188,70.65 57.189,70.873 C57.19,71.115 57.28,71.341 57.443,71.516 C57.604,71.691 57.854,71.811 58.123,71.809 L58.123,70.809 L58.123,70.88 L58.174,70.833 L58.123,70.809 L58.123,70.88 L58.174,70.833 L58.131,70.873 L58.189,70.873 L58.174,70.833 L58.131,70.873 L58.189,70.873 L58.119,70.873 L58.171,70.923 L58.189,70.873 L58.119,70.873 L58.171,70.923 L63.023,65.856 L62.974,65.808 L62.974,65.876 L63.024,65.855 L62.974,65.808 L62.974,65.876 L62.974,65.809 L62.925,65.856 L62.974,65.876 L62.974,65.809 L62.925,65.856 L67.777,70.923 L67.83,70.873 L67.759,70.873 L67.777,70.924 L67.83,70.873 L67.759,70.873 L67.818,70.873 L67.775,70.833 L67.759,70.873 L67.818,70.873 L67.775,70.833 L67.826,70.881 L67.826,70.809 L67.775,70.833 L67.826,70.881 L67.826,70.809 L58.123,70.809 L58.123,71.309" id="Fill-54" fill="#FF5465"></path>
                <path d="M72.397,64.66 L72.397,64.16 L65.531,64.16 C65.263,64.158 65.013,64.277 64.852,64.452 C64.689,64.627 64.598,64.854 64.598,65.095 C64.596,65.318 64.684,65.558 64.858,65.737 L69.562,70.651 C69.744,70.843 69.996,70.94 70.234,70.938 C70.58,70.941 70.931,70.738 71.088,70.382 L73.25,65.468 C73.304,65.346 73.33,65.216 73.329,65.092 C73.329,64.597 72.933,64.163 72.397,64.16 L72.397,65.16 L72.397,65.092 L72.33,65.092 L72.397,65.16 L72.397,65.092 L72.33,65.092 L72.394,65.092 L72.335,65.066 L72.33,65.092 L72.394,65.092 L72.335,65.066 L70.173,69.979 L70.234,70.005 L70.234,69.938 L70.173,69.978 L70.234,70.005 L70.234,69.938 L70.234,70.007 L70.284,69.959 L70.234,69.938 L70.234,70.007 L70.284,69.959 L65.58,65.046 L65.528,65.095 L65.598,65.095 L65.58,65.045 L65.528,65.095 L65.598,65.095 L65.539,65.095 L65.582,65.136 L65.598,65.095 L65.539,65.095 L65.582,65.136 L65.531,65.088 L65.531,65.16 L65.582,65.136 L65.531,65.088 L65.531,65.16 L72.397,65.16 L72.397,64.66" id="Fill-55" fill="#FF5465"></path>
                <path d="M52.881,65.266 L52.423,65.468 L54.671,70.578 C54.828,70.936 55.18,71.138 55.525,71.135 C55.764,71.136 56.015,71.04 56.197,70.849 L61.091,65.737 C61.265,65.558 61.353,65.318 61.351,65.095 C61.35,64.854 61.26,64.627 61.097,64.452 C60.935,64.277 60.686,64.158 60.418,64.16 L53.276,64.16 C52.74,64.163 52.344,64.598 52.343,65.092 C52.343,65.217 52.369,65.347 52.423,65.468 L52.881,65.266 L53.338,65.064 L53.276,65.092 L53.343,65.092 L53.338,65.064 L53.276,65.092 L53.343,65.092 L53.276,65.092 L53.276,65.16 L53.343,65.092 L53.276,65.092 L53.276,65.16 L60.418,65.16 L60.418,65.088 L60.367,65.136 L60.418,65.16 L60.418,65.088 L60.367,65.136 L60.41,65.095 L60.351,65.095 L60.367,65.136 L60.41,65.095 L60.351,65.095 L60.42,65.095 L60.369,65.046 L60.351,65.095 L60.42,65.095 L60.369,65.046 L55.476,70.156 L55.525,70.202 L55.525,70.135 L55.477,70.155 L55.525,70.202 L55.525,70.135 L55.525,70.202 L55.586,70.176 L55.525,70.135 L55.525,70.202 L55.586,70.176 L53.338,65.065 L52.881,65.266" id="Fill-56" fill="#FF5465"></path>
                <path d="M77.807,70.637 L78.223,70.359 L75.351,66.051 C75.17,65.777 74.864,65.633 74.576,65.636 C74.236,65.632 73.878,65.832 73.721,66.194 L71.827,70.501 C71.774,70.621 71.747,70.75 71.747,70.877 C71.748,71.37 72.143,71.806 72.681,71.809 L77.447,71.809 C77.714,71.81 77.959,71.694 78.121,71.521 C78.285,71.348 78.38,71.121 78.38,70.875 C78.381,70.7 78.329,70.517 78.224,70.36 L77.391,70.913 L77.448,70.875 L77.38,70.875 L77.391,70.913 L77.448,70.875 L77.38,70.875 L77.443,70.875 L77.397,70.832 L77.38,70.875 L77.443,70.875 L77.397,70.832 L77.447,70.879 L77.447,70.809 L77.397,70.832 L77.447,70.879 L77.447,70.809 L72.681,70.809 L72.681,70.877 L72.747,70.877 L72.681,70.809 L72.681,70.877 L72.747,70.877 L72.68,70.877 L72.742,70.904 L72.747,70.877 L72.68,70.877 L72.742,70.904 L74.637,66.596 L74.576,66.568 L74.576,66.636 L74.638,66.595 L74.576,66.568 L74.576,66.636 L74.576,66.568 L74.519,66.606 L74.576,66.636 L74.576,66.568 L74.519,66.606 L77.391,70.914 L77.807,70.637" id="Fill-57" fill="#FF5465"></path>
                <path d="M48.322,71.309 L48.322,71.809 L52.993,71.809 C53.529,71.806 53.925,71.37 53.925,70.877 C53.926,70.751 53.899,70.622 53.846,70.502 L52.004,66.314 C51.847,65.953 51.49,65.753 51.15,65.756 C50.865,65.753 50.559,65.895 50.377,66.168 L47.549,70.354 C47.441,70.512 47.388,70.698 47.388,70.875 C47.389,71.12 47.483,71.348 47.647,71.521 C47.81,71.694 48.055,71.81 48.322,71.809 L48.322,70.809 L48.322,70.879 L48.372,70.832 L48.322,70.809 L48.322,70.879 L48.372,70.832 L48.326,70.875 L48.388,70.875 L48.372,70.832 L48.326,70.875 L48.388,70.875 L48.319,70.875 L48.377,70.915 L48.388,70.875 L48.319,70.875 L48.377,70.915 L51.207,66.727 L51.15,66.687 L51.15,66.756 L51.208,66.726 L51.15,66.687 L51.15,66.756 L51.15,66.69 L51.089,66.716 L51.15,66.756 L51.15,66.69 L51.089,66.716 L52.931,70.904 L52.991,70.876 L52.926,70.877 L52.931,70.903 L52.991,70.876 L52.926,70.877 L52.993,70.877 L52.993,70.809 L52.926,70.877 L52.993,70.877 L52.993,70.809 L48.322,70.809 L48.322,71.309" id="Fill-58" fill="#FF5465"></path>
            </g>
        </g>
    </g>
</svg>