<svg xmlns="http://www.w3.org/2000/svg" viewBox="0 0 121 103.44"><defs><style>.cls-1{fill:#ffcaec;}.cls-2{fill:#fff;}.cls-3{fill:#efb1d5;}.cls-4,.cls-5{fill:none;stroke-linecap:round;stroke-miterlimit:10;}.cls-4{stroke:#ffccea;}.cls-5{stroke:#d34693;}.cls-6{fill:#ffbbea;}.cls-7{fill:#d34693;}</style></defs><title>アセット 1</title><g id="レイヤー_2" data-name="レイヤー 2"><g id="レイヤー_4" data-name="レイヤー 4"><circle class="cls-1" cx="61.64" cy="57.61" r="45.33"/><path class="cls-2" d="M90.4,39.29h-57a1.6,1.6,0,0,0-1.6,1.6V92.2a45.14,45.14,0,0,0,29.11,10.59c12.05,0,22.8-4,30.92-11.65L92,40.89A1.6,1.6,0,0,0,90.4,39.29Z"/><rect class="cls-3" x="32.48" y="39.48" width="59.67" height="10.58"/><line class="cls-4" x1="94.83" y1="16.25" x2="100.11" y2="16.25"/><line class="cls-4" x1="97.47" y1="18.9" x2="97.47" y2="13.61"/><line class="cls-4" x1="117.96" y1="61.27" x2="117.96" y2="62.37"/><line class="cls-4" x1="117.96" y1="65.16" x2="117.96" y2="66.26"/><line class="cls-4" x1="120.5" y1="63.81" x2="119.4" y2="63.81"/><line class="cls-4" x1="116.58" y1="63.81" x2="115.49" y2="63.81"/><line class="cls-4" x1="119.79" y1="61.98" x2="119.01" y2="62.75"/><line class="cls-4" x1="119.79" y1="65.55" x2="119.01" y2="64.77"/><line class="cls-4" x1="116.11" y1="61.98" x2="116.89" y2="62.75"/><line class="cls-4" x1="116.11" y1="65.55" x2="116.89" y2="64.77"/><circle class="cls-4" cx="2.53" cy="27.89" r="2.03"/><line class="cls-5" x1="32.77" y1="50.05" x2="90.05" y2="50.05"/><path class="cls-5" d="M90.75,39h-57a1.6,1.6,0,0,0-1.6,1.6V91.88a45.14,45.14,0,0,0,29.11,10.59c12.05,0,23-4,31.11-11.65V40.56A1.6,1.6,0,0,0,90.75,39Z"/><polyline class="cls-5" points="36.14 42.72 37.91 44.57 36.14 46.34"/><line class="cls-5" x1="38.48" y1="46.9" x2="41.14" y2="46.9"/><circle class="cls-5" cx="86.57" cy="8.65" r="1"/><circle class="cls-5" cx="14.67" cy="25.87" r="1"/><circle class="cls-5" cx="62.01" cy="12.29" r="1.63"/><circle class="cls-5" cx="16.3" cy="57.62" r="1.63"/><circle class="cls-5" cx="106.97" cy="57.62" r="1.63"/><line class="cls-5" x1="4.57" y1="36.31" x2="9.86" y2="36.31"/><line class="cls-5" x1="7.21" y1="38.95" x2="7.21" y2="33.67"/><line class="cls-5" x1="113.88" y1="74.42" x2="119.17" y2="74.42"/><line class="cls-5" x1="116.53" y1="77.06" x2="116.53" y2="71.78"/><line class="cls-5" x1="43.73" y1="0.5" x2="43.73" y2="1.86"/><line class="cls-5" x1="43.73" y1="5.32" x2="43.73" y2="6.68"/><line class="cls-5" x1="46.89" y1="3.65" x2="45.53" y2="3.65"/><line class="cls-5" x1="42.03" y1="3.65" x2="40.67" y2="3.65"/><line class="cls-5" x1="46.01" y1="1.38" x2="45.05" y2="2.34"/><line class="cls-5" x1="46.01" y1="5.8" x2="45.05" y2="4.84"/><line class="cls-5" x1="41.45" y1="1.38" x2="42.41" y2="2.34"/><line class="cls-5" x1="41.45" y1="5.8" x2="42.41" y2="4.84"/><circle class="cls-5" cx="95.47" cy="7.81" r="2.03"/><path class="cls-5" d="M16.86,50.53A45.37,45.37,0,0,1,54.21,12.88"/><path class="cls-5" d="M68.93,12.86A45.36,45.36,0,0,1,106.49,51"/><path class="cls-5" d="M106.37,65a45.34,45.34,0,0,1-89.62-1"/><path class="cls-6" d="M78.3,77.83a8.64,8.64,0,0,0-3.81.89,8,8,0,0,1-.85-2,5.24,5.24,0,0,1-.07-1.66,14.49,14.49,0,0,1,.5-1.79c0-.08-.09-.44-.94-.44s-1.57.16-1.66.39a8.36,8.36,0,0,0-.35,1.25,30.06,30.06,0,0,1-2.57,4.94A5.14,5.14,0,0,1,68,78a5.24,5.24,0,0,1-.07-1.66,14.49,14.49,0,0,1,.5-1.79c0-.08-.09-.44-.94-.44s-1.57.16-1.66.39-.18.75-.35,1.25S63.22,80.82,62.69,82c-.27.6-.51,1.09-.68,1.42h0l0,.06-.23.44h0c-.11.21-.24.4-.3.4a2.65,2.65,0,0,1,0-1.31c.31-1.58,1-4.06,1-4.14s.14-.47-.48-.7a.76.76,0,0,0-.87.15c-.05,0-.09.13-.09.13s.67-2.78-1.27-2.78c-1.21,0-2.89,1.32-3.71,2.52l-2.82,1.54-1.36.75-.09-.1c-2.35-2.5-6.69-4.28-6.5-7.64.07-1.22.49-4.45,8.34-8.36,6.43-3.2,11.57-2.32,12.46-.37,1.27,2.79-2.75,8-9.42,8.73-2.54.29-3.88-.7-4.22-1.07s-.4-.4-.53-.33-.08.46,0,.66a4,4,0,0,0,2.41,1.9,12.78,12.78,0,0,0,7.82-.77c4-1.56,7.2-5.92,6.27-9.55s-7.08-4.92-12.88-2.85a29.17,29.17,0,0,0-9.89,5.67c-3.2,3-3.71,5.59-3.5,6.68.75,3.87,6.07,6.38,8.21,8.25l-.29.16C49,82,45,84.14,43.95,86.39c-1.15,2.55.18,4.37,1.07,4.62a6.55,6.55,0,0,0,7.06-2.86,7.1,7.1,0,0,0,.63-6.53l0,0,.84-.49c.54-.32,1.08-.62,1.54-.87A10.37,10.37,0,0,0,54.51,83a5.81,5.81,0,0,0,1.25,4,1.37,1.37,0,0,0,1,.33c.9,0,1.31-.75,1.77-1.64.56-1.09,1-2.36,1-2.36s-.62,3.42,1.07,3.42c.61,0,1.23-.8,1.51-1.2h0l0-.08.1-.16v0c.25-.43.79-1.41,1.62-3C65,80.25,66,77.64,66,77.64a14,14,0,0,0,.4,1.69,15.83,15.83,0,0,0,.88,2l-.4.54h0c-.2.26-.42.54-.65.82a23.73,23.73,0,0,0-2,2.47.67.67,0,0,0,.18.9,1.65,1.65,0,0,0,1,.17A4.7,4.7,0,0,0,67,85.85a5.2,5.2,0,0,0,1.33-.7,3,3,0,0,0,1.27-2.61,5.3,5.3,0,0,0-.48-1.85l.22-.33a35.08,35.08,0,0,0,2.3-4,14,14,0,0,0,.41,1.69,11.81,11.81,0,0,0,.75,1.69,7.22,7.22,0,0,0-2.24,2.9c-.49,1.4-.11,2,.61,2.17a2.19,2.19,0,0,0,1.12-.23,5.2,5.2,0,0,0,1.42-.73,3.18,3.18,0,0,0,1.56-2.6A4.87,4.87,0,0,0,75,79.75,8,8,0,0,1,79,79.28c3.65.43,4.37,2.71,4.23,3.66a2.41,2.41,0,0,1-1.16,1.64c-.26.16-.33.21-.31.33s.15.16.37.13a2.85,2.85,0,0,0,2-2.54C84.24,80.26,82.09,77.81,78.3,77.83Zm-28.17,9.5c-1.21,1.32-2.9,1.82-3.63,1.4s-.47-2.4,1-3.8a19.22,19.22,0,0,1,2.85-2.12l.75-.45.08,0h0l.19-.11A5.25,5.25,0,0,1,50.13,87.32Zm8.82-6c-.42,1-1.3,3.66-1.84,3.52s-.74-2.12-.09-4.09a9.11,9.11,0,0,1,1.44-2.63c.66-.74,1.39-1,1.56-.68S59.21,80.68,58.95,81.33Zm7.28,3.48c-.18.09-.34.15-.42.11s.07-.16.07-.16.91-1,1.27-1.43l.71-.91s0,.07,0,.1A3.05,3.05,0,0,1,66.23,84.8Zm5.61-1.28c-.13-.09-.11-.4.33-1.36a5.12,5.12,0,0,1,1.25-1.61,2.29,2.29,0,0,1-1.57,3Z"/><path class="cls-7" d="M61.78,87.44a1.76,1.76,0,0,1-1.12.37,1.91,1.91,0,0,1-1.51-.7L59,86.95a2.56,2.56,0,0,1-2.25,1.43,2.34,2.34,0,0,1-1.7-.6A4.8,4.8,0,0,1,54,86.07a7.84,7.84,0,0,1-7.45,6.15A6.81,6.81,0,0,1,44.75,92a3.11,3.11,0,0,1-1.84-1.75A5,5,0,0,1,43,86c.9-2,3.64-3.78,5.5-4.8l-.86-.59c-2.61-1.8-5.85-4-6.49-7.31-.31-1.58.5-4.52,3.79-7.6a30.66,30.66,0,0,1,10.23-5.88,18,18,0,0,1,6-1.06c4.35,0,7.51,1.76,8.23,4.6,1.12,4.4-2.65,9.1-6.88,10.73a17.65,17.65,0,0,1-2.13.67,2.12,2.12,0,0,1,1.2.76,3,3,0,0,1,.57,1.68l.2.06a1.74,1.74,0,0,1,1,.83c.58-1.29,1.07-2.44,1.15-2.65s.15-.51.2-.73a5.6,5.6,0,0,1,.16-.56c.26-.69,1.12-1,2.55-1,1.82,0,2,1.23,2,1.36a1.62,1.62,0,0,1-.15.71,8.21,8.21,0,0,0-.36,1.28,3.24,3.24,0,0,0,0,.46,17.11,17.11,0,0,0,1.28-2.62,9.4,9.4,0,0,1,.4-1.42c.26-.68,1.12-1,2.54-1,1.83,0,2,1.23,2,1.36a1.62,1.62,0,0,1-.15.71,8.23,8.23,0,0,0-.36,1.28,3.4,3.4,0,0,0,0,1.1l0,.29a3.45,3.45,0,0,0,.33.81,9.69,9.69,0,0,1,3.33-.6,7.31,7.31,0,0,1,5.38,2.06,5.06,5.06,0,0,1,1.47,3.65A3.8,3.8,0,0,1,82.33,86l-.35,0a1.15,1.15,0,0,1-1.17-1,1.31,1.31,0,0,1,.77-1.36,1.43,1.43,0,0,0,.7-.93,1.75,1.75,0,0,0-.42-1.17,4.22,4.22,0,0,0-2.94-1.35,9.3,9.3,0,0,0-1.06-.06,7.06,7.06,0,0,0-1.65.19,4.86,4.86,0,0,1,.11.85,4.07,4.07,0,0,1-2,3.44,6.2,6.2,0,0,1-1.7.87,3.3,3.3,0,0,1-1.26.29,1.87,1.87,0,0,1-.37,0,2,2,0,0,1-1.18-.69A4.4,4.4,0,0,1,69,86a6.2,6.2,0,0,1-1.59.83,5.52,5.52,0,0,1-1.81.41h-.33a2.2,2.2,0,0,1-1.37-.38,1.67,1.67,0,0,1-.65-1l0,.07-.2.31A6.63,6.63,0,0,1,61.78,87.44Zm-14.64.42a3.55,3.55,0,0,0,2.25-1.22,4.25,4.25,0,0,0,1.2-2.81,17.18,17.18,0,0,0-2.39,1.81,3.14,3.14,0,0,0-1.11,2.21Zm18.71-7.25c-.31.7-.67,1.46-1,2.17l0,0,.69-.81.24-.29h0l.41-.53h0Zm-7.62-.22a6.86,6.86,0,0,0-.27.67l0,.11.09-.23C58.08,80.8,58.16,80.61,58.23,80.4ZM70.35,81a9.13,9.13,0,0,1,1.25-1.48c-.08-.16-.15-.31-.22-.47-.32.56-.7,1.16-1.1,1.76ZM61.63,63.27a17.58,17.58,0,0,0-7.53,2c-5,2.51-7.65,5-7.79,7.52-.1,1.8,1.68,3.17,3.56,4.62a27.68,27.68,0,0,1,2.21,1.83l3.32-1.82a8.07,8.07,0,0,1,2.67-2.29c-.51,0-1,.07-1.35.07A9,9,0,0,1,54,74.85a4.86,4.86,0,0,1-3-2.49c-.45-1.18.09-1.7.45-1.9a1.19,1.19,0,0,1,.58-.16,1.6,1.6,0,0,1,1.17.69,3.65,3.65,0,0,0,2.59.79,6.86,6.86,0,0,0,.78,0A10.78,10.78,0,0,0,64.78,67a2.94,2.94,0,0,0,.42-2.55C64.94,63.87,63.71,63.27,61.63,63.27Z"/><path class="cls-3" d="M78.3,77.83a8.64,8.64,0,0,0-3.81.89,8,8,0,0,1-.85-2,5.24,5.24,0,0,1-.07-1.66,14.49,14.49,0,0,1,.5-1.79c0-.08-.09-.44-.94-.44s-1.57.16-1.66.39a8.36,8.36,0,0,0-.35,1.25,30.06,30.06,0,0,1-2.57,4.94A5.14,5.14,0,0,1,68,78a5.24,5.24,0,0,1-.07-1.66,14.49,14.49,0,0,1,.5-1.79c0-.08-.09-.44-.94-.44s-1.57.16-1.66.39-.18.75-.35,1.25S63.22,80.82,62.69,82c-.27.6-.51,1.09-.68,1.42h0l0,.06-.23.44h0c-.11.21-.24.4-.3.4a2.65,2.65,0,0,1,0-1.31c.31-1.58,1-4.06,1-4.14s.14-.47-.48-.7a.76.76,0,0,0-.87.15c-.05,0-.09.13-.09.13s.67-2.78-1.27-2.78c-1.21,0-2.89,1.32-3.71,2.52l-2.82,1.54-1.36.75-.09-.1c-2.35-2.5-6.69-4.28-6.5-7.64.07-1.22.49-4.45,8.34-8.36,6.43-3.2,11.57-2.32,12.46-.37,1.27,2.79-2.75,8-9.42,8.73-2.54.29-3.88-.7-4.22-1.07s-.4-.4-.53-.33-.08.46,0,.66a4,4,0,0,0,2.41,1.9,12.78,12.78,0,0,0,7.82-.77c4-1.56,7.2-5.92,6.27-9.55s-7.08-4.92-12.88-2.85a29.17,29.17,0,0,0-9.89,5.67c-3.2,3-3.71,5.59-3.5,6.68.75,3.87,6.07,6.38,8.21,8.25l-.29.16C49,82,45,84.14,43.95,86.39c-1.15,2.55.18,4.37,1.07,4.62a6.55,6.55,0,0,0,7.06-2.86,7.1,7.1,0,0,0,.63-6.53l0,0,.84-.49c.54-.32,1.08-.62,1.54-.87A10.37,10.37,0,0,0,54.51,83a5.81,5.81,0,0,0,1.25,4,1.37,1.37,0,0,0,1,.33c.9,0,1.31-.75,1.77-1.64.56-1.09,1-2.36,1-2.36s-.62,3.42,1.07,3.42c.61,0,1.23-.8,1.51-1.2h0l0-.08.1-.16v0c.25-.43.79-1.41,1.62-3C65,80.25,66,77.64,66,77.64a14,14,0,0,0,.4,1.69,15.83,15.83,0,0,0,.88,2l-.4.54h0c-.2.26-.42.54-.65.82a23.73,23.73,0,0,0-2,2.47.67.67,0,0,0,.18.9,1.65,1.65,0,0,0,1,.17A4.7,4.7,0,0,0,67,85.85a5.2,5.2,0,0,0,1.33-.7,3,3,0,0,0,1.27-2.61,5.3,5.3,0,0,0-.48-1.85l.22-.33a35.08,35.08,0,0,0,2.3-4,14,14,0,0,0,.41,1.69,11.81,11.81,0,0,0,.75,1.69,7.22,7.22,0,0,0-2.24,2.9c-.49,1.4-.11,2,.61,2.17a2.19,2.19,0,0,0,1.12-.23,5.2,5.2,0,0,0,1.42-.73,3.18,3.18,0,0,0,1.56-2.6A4.87,4.87,0,0,0,75,79.75,8,8,0,0,1,79,79.28c3.65.43,4.37,2.71,4.23,3.66a2.41,2.41,0,0,1-1.16,1.64c-.26.16-.33.21-.31.33s.15.16.37.13a2.85,2.85,0,0,0,2-2.54C84.24,80.26,82.09,77.81,78.3,77.83Zm-28.17,9.5c-1.21,1.32-2.9,1.82-3.63,1.4s-.47-2.4,1-3.8a19.22,19.22,0,0,1,2.85-2.12l.75-.45.08,0h0l.19-.11A5.25,5.25,0,0,1,50.13,87.32Zm8.82-6c-.42,1-1.3,3.66-1.84,3.52s-.74-2.12-.09-4.09a9.11,9.11,0,0,1,1.44-2.63c.66-.74,1.39-1,1.56-.68S59.21,80.68,58.95,81.33Zm7.28,3.48c-.18.09-.34.15-.42.11s.07-.16.07-.16.91-1,1.27-1.43l.71-.91s0,.07,0,.1A3.05,3.05,0,0,1,66.23,84.8Zm5.61-1.28c-.13-.09-.11-.4.33-1.36a5.12,5.12,0,0,1,1.25-1.61,2.29,2.29,0,0,1-1.57,3Z"/><path class="cls-2" d="M55.15,61.89c10.37-2.92,13.3,1.69,13.3,1.69a4.24,4.24,0,0,0-1.84-2.47c-2.45-1.65-6.84-1.88-11-.39a29.17,29.17,0,0,0-9.89,5.67,16.42,16.42,0,0,0-1.24,1.29S50.15,63.3,55.15,61.89Z"/></g></g></svg>