<?xml version="1.0" encoding="UTF-8"?>
<svg width="122px" height="105px" viewBox="0 0 121 104" version="1.1" xmlns="http://www.w3.org/2000/svg" xmlns:xlink="http://www.w3.org/1999/xlink">
    <!-- Generator: Sketch 45.2 (43514) - http://www.bohemiancoding.com/sketch -->
    <title>sql</title>
    <desc>Created with Sketch.</desc>
    <defs>
        <polygon id="path-1" points="0 5.3903 0 0.5203 4.8705 0.5203 4.8705 5.3903"></polygon>
    </defs>
    <g id="Page-1" stroke="none" stroke-width="1" fill="none" fill-rule="evenodd">
        <g id="sql">
            <path d="M106.8721,57.5089 C106.8721,82.5449 86.5771,102.8399 61.5411,102.8399 C36.5061,102.8399 16.2111,82.5449 16.2111,57.5089 C16.2111,32.4739 36.5061,12.1789 61.5411,12.1789 C86.5771,12.1789 106.8721,32.4739 106.8721,57.5089" id="Fill-1" fill="#8ECDF4"></path>
            <path d="M90.6523,38.8654 L33.6213,38.8654 C32.7403,38.8654 32.0243,39.5814 32.0243,40.4624 L32.0243,91.7754 C39.9003,98.3824 50.0503,102.3654 61.1333,102.3654 C73.1853,102.3654 83.9343,98.3894 92.0543,90.7194 L92.2493,40.4624 C92.2493,39.5814 91.5333,38.8654 90.6523,38.8654" id="Fill-3" fill="#FFFFFF"></path>
            <polygon id="Fill-5" fill="#83B6E5" points="32.38 49.963 92.055 49.963 92.055 39.379 32.38 39.379"></polygon>
            <path d="M89.9521,50.4543 L32.6661,50.4543 C32.3891,50.4543 32.1661,50.2303 32.1661,49.9543 C32.1661,49.6783 32.3891,49.4543 32.6661,49.4543 L89.9521,49.4543 C90.2281,49.4543 90.4521,49.6783 90.4521,49.9543 C90.4521,50.2303 90.2281,50.4543 89.9521,50.4543" id="Fill-7" fill="#4A8CDD"></path>
            <path d="M92.249,90.7189 L92.259,90.7189 L92.249,90.7189 Z M32.524,91.5409 C40.548,98.1999 50.698,101.8649 61.134,101.8649 C73.216,101.8649 83.797,97.9379 91.749,90.5029 L91.749,40.4619 C91.749,39.8579 91.257,39.3649 90.652,39.3649 L33.621,39.3649 C33.017,39.3649 32.524,39.8579 32.524,40.4619 L32.524,91.5409 Z M61.134,102.8649 C50.387,102.8649 39.935,99.0629 31.703,92.1579 C31.59,92.0639 31.524,91.9229 31.524,91.7759 L31.524,40.4619 C31.524,39.3059 32.465,38.3649 33.621,38.3649 L90.652,38.3649 C91.809,38.3649 92.749,39.3059 92.749,40.4619 L92.749,90.7189 C92.749,90.8569 92.692,90.9879 92.593,91.0819 C84.434,98.7909 73.556,102.8649 61.134,102.8649 L61.134,102.8649 Z" id="Fill-9" fill="#4A8CDD"></path>
            <path d="M36.0381,46.7443 C35.9101,46.7443 35.7821,46.6953 35.6841,46.5983 C35.4891,46.4023 35.4891,46.0863 35.6841,45.8903 L37.1131,44.4623 L35.6781,42.9693 C35.4861,42.7693 35.4921,42.4533 35.6911,42.2623 C35.8901,42.0703 36.2081,42.0773 36.3981,42.2753 L38.1741,44.1223 C38.3621,44.3183 38.3591,44.6303 38.1671,44.8223 L36.3921,46.5983 C36.2941,46.6953 36.1661,46.7443 36.0381,46.7443" id="Fill-11" fill="#5E93D3"></path>
            <path d="M41.0381,47.3019 L38.3801,47.3019 C38.1031,47.3019 37.8801,47.0779 37.8801,46.8019 C37.8801,46.5259 38.1031,46.3019 38.3801,46.3019 L41.0381,46.3019 C41.3141,46.3019 41.5381,46.5259 41.5381,46.8019 C41.5381,47.0779 41.3141,47.3019 41.0381,47.3019" id="Fill-13" fill="#5E93D3"></path>
            <path d="M87.4707,8.5509 C87.4707,9.1049 87.0217,9.5539 86.4677,9.5539 C85.9137,9.5539 85.4647,9.1049 85.4647,8.5509 C85.4647,7.9969 85.9137,7.5479 86.4677,7.5479 C87.0217,7.5479 87.4707,7.9969 87.4707,8.5509" id="Fill-15" fill="#4A8CDD"></path>
            <path d="M15.5781,25.7677 C15.5781,26.3227 15.1291,26.7707 14.5751,26.7707 C14.0211,26.7707 13.5721,26.3227 13.5721,25.7677 C13.5721,25.2137 14.0211,24.7647 14.5751,24.7647 C15.1291,24.7647 15.5781,25.2137 15.5781,25.7677" id="Fill-17" fill="#4A8CDD"></path>
            <path d="M63.5449,12.1857 C63.5449,13.0857 62.8159,13.8147 61.9149,13.8147 C61.0159,13.8147 60.2859,13.0857 60.2859,12.1857 C60.2859,11.2867 61.0159,10.5567 61.9149,10.5567 C62.8159,10.5567 63.5449,11.2867 63.5449,12.1857" id="Fill-19" fill="#4A8CDD"></path>
            <path d="M17.833,57.5168 C17.833,58.4158 17.104,59.1458 16.204,59.1458 C15.305,59.1458 14.575,58.4158 14.575,57.5168 C14.575,56.6178 15.305,55.8878 16.204,55.8878 C17.104,55.8878 17.833,56.6178 17.833,57.5168" id="Fill-21" fill="#4A8CDD"></path>
            <path d="M108.4951,57.5168 C108.4951,58.4158 107.7661,59.1458 106.8661,59.1458 C105.9661,59.1458 105.2361,58.4158 105.2361,57.5168 C105.2361,56.6178 105.9661,55.8878 106.8661,55.8878 C107.7661,55.8878 108.4951,56.6178 108.4951,57.5168" id="Fill-23" fill="#4A8CDD"></path>
            <path d="M9.7559,36.6115 L4.4699,36.6115 C4.2489,36.6115 4.0689,36.4315 4.0689,36.2115 C4.0689,35.9905 4.2489,35.8105 4.4699,35.8105 L9.7559,35.8105 C9.9769,35.8105 10.1559,35.9905 10.1559,36.2115 C10.1559,36.4315 9.9769,36.6115 9.7559,36.6115" id="Fill-25" fill="#0093F7"></path>
            <path d="M7.1133,39.2541 C6.8923,39.2541 6.7133,39.0741 6.7133,38.8541 L6.7133,33.5681 C6.7133,33.3481 6.8923,33.1681 7.1133,33.1681 C7.3343,33.1681 7.5133,33.3481 7.5133,33.5681 L7.5133,38.8541 C7.5133,39.0741 7.3343,39.2541 7.1133,39.2541" id="Fill-27" fill="#0093F7"></path>
            <path d="M119.0693,74.7209 L113.7833,74.7209 C113.5623,74.7209 113.3823,74.5409 113.3823,74.3209 C113.3823,74.0999 113.5623,73.9199 113.7833,73.9199 L119.0693,73.9199 C119.2903,73.9199 119.4693,74.0999 119.4693,74.3209 C119.4693,74.5409 119.2903,74.7209 119.0693,74.7209" id="Fill-29" fill="#0093F7"></path>
            <path d="M116.4258,77.3634 C116.2048,77.3634 116.0258,77.1834 116.0258,76.9634 L116.0258,71.6764 C116.0258,71.4564 116.2048,71.2764 116.4258,71.2764 C116.6468,71.2764 116.8258,71.4564 116.8258,71.6764 L116.8258,76.9634 C116.8258,77.1834 116.6468,77.3634 116.4258,77.3634" id="Fill-31" fill="#0093F7"></path>
            <path d="M43.6348,2.1613 C43.4138,2.1613 43.2348,1.9813 43.2348,1.7613 L43.2348,0.4003 C43.2348,0.1803 43.4138,0.0003 43.6348,0.0003 C43.8558,0.0003 44.0348,0.1803 44.0348,0.4003 L44.0348,1.7613 C44.0348,1.9813 43.8558,2.1613 43.6348,2.1613" id="Fill-33" fill="#0093F7"></path>
            <path d="M43.6348,6.9826 C43.4138,6.9826 43.2348,6.8026 43.2348,6.5826 L43.2348,5.2216 C43.2348,5.0016 43.4138,4.8216 43.6348,4.8216 C43.8558,4.8216 44.0348,5.0016 44.0348,5.2216 L44.0348,6.5826 C44.0348,6.8026 43.8558,6.9826 43.6348,6.9826" id="Fill-35" fill="#0093F7"></path>
            <path d="M46.7871,3.9533 L45.4271,3.9533 C45.2061,3.9533 45.0261,3.7733 45.0261,3.5533 C45.0261,3.3323 45.2061,3.1523 45.4271,3.1523 L46.7871,3.1523 C47.0081,3.1523 47.1871,3.3323 47.1871,3.5533 C47.1871,3.7733 47.0081,3.9533 46.7871,3.9533" id="Fill-37" fill="#0093F7"></path>
            <path d="M41.9346,3.9533 L40.5746,3.9533 C40.3536,3.9533 40.1736,3.7733 40.1736,3.5533 C40.1736,3.3323 40.3536,3.1523 40.5746,3.1523 L41.9346,3.1523 C42.1556,3.1523 42.3346,3.3323 42.3346,3.5533 C42.3346,3.7733 42.1556,3.9533 41.9346,3.9533" id="Fill-39" fill="#0093F7"></path>
            <path d="M44.9463,2.6418 C44.8433,2.6418 44.7413,2.6028 44.6633,2.5248 C44.5073,2.3688 44.5073,2.1148 44.6633,1.9578 L45.6253,0.9958 C45.7813,0.8398 46.0353,0.8398 46.1913,0.9958 C46.3473,1.1528 46.3473,1.4068 46.1913,1.5628 L45.2293,2.5248 C45.1513,2.6028 45.0493,2.6418 44.9463,2.6418" id="Fill-41" fill="#0093F7"></path>
            <path d="M45.9082,6.1037 C45.8052,6.1037 45.7032,6.0647 45.6252,5.9867 L44.6632,5.0247 C44.5072,4.8687 44.5072,4.6147 44.6632,4.4577 C44.8192,4.3017 45.0732,4.3017 45.2292,4.4577 L46.1912,5.4197 C46.3472,5.5767 46.3472,5.8307 46.1912,5.9867 C46.1132,6.0647 46.0112,6.1037 45.9082,6.1037" id="Fill-43" fill="#0093F7"></path>
            <path d="M42.3135,2.6418 C42.2105,2.6418 42.1085,2.6028 42.0305,2.5248 L41.0685,1.5628 C40.9125,1.4068 40.9125,1.1528 41.0685,0.9958 C41.2245,0.8398 41.4785,0.8398 41.6345,0.9958 L42.5965,1.9578 C42.7525,2.1148 42.7525,2.3688 42.5965,2.5248 C42.5185,2.6028 42.4165,2.6418 42.3135,2.6418" id="Fill-45" fill="#0093F7"></path>
            <path d="M41.3516,6.1037 C41.2486,6.1037 41.1466,6.0647 41.0686,5.9867 C40.9126,5.8307 40.9126,5.5767 41.0686,5.4197 L42.0306,4.4577 C42.1866,4.3017 42.4406,4.3017 42.5966,4.4577 C42.7526,4.6147 42.7526,4.8687 42.5966,5.0247 L41.6346,5.9867 C41.5566,6.0647 41.4546,6.1037 41.3516,6.1037" id="Fill-47" fill="#0093F7"></path>
            <path d="M95.3662,6.0744 C94.4652,6.0744 93.7312,6.8074 93.7312,7.7094 C93.7312,8.6104 94.4652,9.3434 95.3662,9.3434 C96.2672,9.3434 97.0002,8.6104 97.0002,7.7094 C97.0002,6.8074 96.2672,6.0744 95.3662,6.0744 M95.3662,10.1434 C94.0232,10.1434 92.9302,9.0514 92.9302,7.7094 C92.9302,6.3664 94.0232,5.2734 95.3662,5.2734 C96.7082,5.2734 97.8012,6.3664 97.8012,7.7094 C97.8012,9.0514 96.7082,10.1434 95.3662,10.1434" id="Fill-49" fill="#0093F7"></path>
            <path d="M100.0146,16.5539 L94.7286,16.5539 C94.5076,16.5539 94.3276,16.3739 94.3276,16.1539 C94.3276,15.9329 94.5076,15.7529 94.7286,15.7529 L100.0146,15.7529 C100.2356,15.7529 100.4146,15.9329 100.4146,16.1539 C100.4146,16.3739 100.2356,16.5539 100.0146,16.5539" id="Fill-51" fill="#A7C8F9"></path>
            <path d="M97.3721,19.1974 C97.1511,19.1974 96.9721,19.0174 96.9721,18.7974 L96.9721,13.5104 C96.9721,13.2904 97.1511,13.1104 97.3721,13.1104 C97.5931,13.1104 97.7721,13.2904 97.7721,13.5104 L97.7721,18.7974 C97.7721,19.0174 97.5931,19.1974 97.3721,19.1974" id="Fill-53" fill="#A7C8F9"></path>
            <path d="M117.8564,62.6671 C117.6354,62.6671 117.4564,62.4871 117.4564,62.2671 L117.4564,61.1691 C117.4564,60.9481 117.6354,60.7691 117.8564,60.7691 C118.0774,60.7691 118.2564,60.9481 118.2564,61.1691 L118.2564,62.2671 C118.2564,62.4871 118.0774,62.6671 117.8564,62.6671" id="Fill-55" fill="#A7C8F9"></path>
            <path d="M117.8564,66.5587 C117.6354,66.5587 117.4564,66.3787 117.4564,66.1587 L117.4564,65.0607 C117.4564,64.8397 117.6354,64.6607 117.8564,64.6607 C118.0774,64.6607 118.2564,64.8397 118.2564,65.0607 L118.2564,66.1587 C118.2564,66.3787 118.0774,66.5587 117.8564,66.5587" id="Fill-57" fill="#A7C8F9"></path>
            <path d="M120.4004,64.1144 L119.3024,64.1144 C119.0824,64.1144 118.9024,63.9344 118.9024,63.7144 C118.9024,63.4934 119.0824,63.3134 119.3024,63.3134 L120.4004,63.3134 C120.6214,63.3134 120.8004,63.4934 120.8004,63.7144 C120.8004,63.9344 120.6214,64.1144 120.4004,64.1144" id="Fill-59" fill="#A7C8F9"></path>
            <path d="M116.4844,64.1144 L115.3864,64.1144 C115.1664,64.1144 114.9864,63.9344 114.9864,63.7144 C114.9864,63.4934 115.1664,63.3134 115.3864,63.3134 L116.4844,63.3134 C116.7054,63.3134 116.8844,63.4934 116.8844,63.7144 C116.8844,63.9344 116.7054,64.1144 116.4844,64.1144" id="Fill-61" fill="#A7C8F9"></path>
            <path d="M118.915,63.0548 C118.812,63.0548 118.71,63.0158 118.632,62.9368 C118.476,62.7808 118.476,62.5278 118.633,62.3708 L119.409,61.5958 C119.565,61.4398 119.818,61.4388 119.975,61.5968 C120.131,61.7528 120.131,62.0058 119.974,62.1618 L119.197,62.9378 C119.119,63.0158 119.018,63.0548 118.915,63.0548" id="Fill-63" fill="#A7C8F9"></path>
            <path d="M119.6914,65.8488 C119.5884,65.8488 119.4874,65.8098 119.4094,65.7318 L118.6324,64.9558 C118.4754,64.7998 118.4754,64.5468 118.6314,64.3908 C118.7884,64.2328 119.0414,64.2338 119.1974,64.3898 L119.9734,65.1648 C120.1304,65.3218 120.1304,65.5748 119.9744,65.7308 C119.8964,65.8098 119.7944,65.8488 119.6914,65.8488" id="Fill-65" fill="#A7C8F9"></path>
            <path d="M116.79,63.0548 C116.687,63.0548 116.586,63.0158 116.508,62.9378 L115.731,62.1618 C115.574,62.0058 115.574,61.7528 115.73,61.5968 C115.887,61.4388 116.14,61.4398 116.296,61.5958 L117.072,62.3708 C117.229,62.5278 117.229,62.7808 117.073,62.9368 C116.995,63.0158 116.893,63.0548 116.79,63.0548" id="Fill-67" fill="#A7C8F9"></path>
            <path d="M116.0137,65.8488 C115.9107,65.8488 115.8087,65.8098 115.7307,65.7308 C115.5747,65.5748 115.5747,65.3218 115.7317,65.1648 L116.5077,64.3898 C116.6637,64.2338 116.9167,64.2328 117.0737,64.3908 C117.2297,64.5468 117.2297,64.7998 117.0727,64.9558 L116.2957,65.7318 C116.2177,65.8098 116.1167,65.8488 116.0137,65.8488" id="Fill-69" fill="#A7C8F9"></path>
            <g id="Group-73" transform="translate(0.000000, 24.840000)">
                <mask id="mask-2" fill="white">
                    <use xlink:href="#path-1"></use>
                </mask>
                <g id="Clip-72"></g>
                <path d="M2.4355,1.3213 C1.5345,1.3213 0.8005,2.0533 0.8005,2.9553 C0.8005,3.8563 1.5345,4.5903 2.4355,4.5903 C3.3365,4.5903 4.0695,3.8563 4.0695,2.9553 C4.0695,2.0533 3.3365,1.3213 2.4355,1.3213 M2.4355,5.3903 C1.0925,5.3903 -0.0005,4.2983 -0.0005,2.9553 C-0.0005,1.6133 1.0925,0.5203 2.4355,0.5203 C3.7775,0.5203 4.8705,1.6133 4.8705,2.9553 C4.8705,4.2983 3.7775,5.3903 2.4355,5.3903" id="Fill-71" fill="#A7C8F9" mask="url(#mask-2)"></path>
            </g>
            <path d="M16.7617,51.4269 C16.7097,51.4269 16.6577,51.4229 16.6057,51.4149 C16.0607,51.3289 15.6877,50.8179 15.7727,50.2719 C18.8717,30.5139 34.2137,15.0519 53.9487,11.7979 C54.5017,11.6979 55.0087,12.0769 55.0977,12.6209 C55.1877,13.1659 54.8197,13.6809 54.2747,13.7709 C35.3927,16.8849 20.7137,31.6779 17.7487,50.5819 C17.6707,51.0749 17.2457,51.4269 16.7617,51.4269" id="Fill-74" fill="#4A8CDD"></path>
            <path d="M106.3887,51.8712 C105.9007,51.8712 105.4737,51.5142 105.4007,51.0172 C102.5827,31.8212 87.8237,16.8452 68.6717,13.7492 C68.1257,13.6612 67.7557,13.1472 67.8437,12.6022 C67.9317,12.0582 68.4437,11.6862 68.9907,11.7742 C89.0077,15.0102 104.4347,30.6632 107.3787,50.7252 C107.4587,51.2722 107.0807,51.7802 106.5347,51.8602 C106.4857,51.8682 106.4367,51.8712 106.3887,51.8712" id="Fill-76" fill="#4A8CDD"></path>
            <path d="M61.541,103.84 C38.573,103.84 18.85,86.715 15.662,64.005 C15.585,63.458 15.967,62.953 16.514,62.876 C17.057,62.787 17.565,63.181 17.643,63.728 C20.692,85.455 39.564,101.84 61.541,101.84 C83.37,101.84 101.769,86.231 105.287,64.726 C105.376,64.181 105.884,63.81 106.436,63.9 C106.98,63.989 107.351,64.503 107.262,65.048 C103.583,87.526 84.355,103.84 61.541,103.84" id="Fill-78" fill="#4A8CDD"></path>
            <path d="M77.0215,81.6945 L77.0215,90.7795 C77.0215,91.6775 70.0175,92.4065 61.3765,92.4065 C52.7375,92.4065 45.7325,91.6775 45.7325,90.7795 L45.7325,90.7575 L77.0215,90.7575 L77.0215,81.6945 L45.7325,81.6945" id="Fill-80" fill="#FCFCFC"></path>
            <path d="M77.0215,81.6945 C77.0215,82.5935 70.0175,83.3225 61.3765,83.3225 C52.7375,83.3225 45.7325,82.5935 45.7325,81.6945 C45.7325,80.7955 52.7375,80.0665 61.3765,80.0665 C70.0175,80.0665 77.0215,80.7955 77.0215,81.6945" id="Fill-82" fill="#FCFCFC"></path>
            <polyline id="Fill-84" fill="#FCFCFC" points="45.7324 60.9269 77.0214 60.9269 77.0214 69.9899 45.7324 69.9899"></polyline>
            <path d="M45.7324,70.0109 C45.7324,70.9099 52.7374,71.6389 61.3774,71.6389 C70.0174,71.6389 77.0214,70.9099 77.0214,70.0109 L77.0214,60.9269" id="Fill-86" fill="#FCFCFC"></path>
            <path d="M77.0215,60.9269 C77.0215,61.8249 70.0175,62.5549 61.3765,62.5549 C52.7375,62.5549 45.7325,61.8249 45.7325,60.9269 C45.7325,60.0279 52.7375,59.2989 61.3765,59.2989 C70.0175,59.2989 77.0215,60.0279 77.0215,60.9269" id="Fill-88" fill="#FCFCFC"></path>
            <polyline id="Fill-90" fill="#FCFCFC" points="45.7324 71.0031 77.0214 71.0031 77.0214 80.0661 45.7324 80.0661"></polyline>
            <path d="M45.7324,80.088 C45.7324,80.986 52.7374,81.715 61.3774,81.715 C70.0174,81.715 77.0214,80.986 77.0214,80.088 L77.0214,71.003" id="Fill-92" fill="#FCFCFC"></path>
            <path d="M77.0215,71.0031 C77.0215,71.9011 70.0175,72.6311 61.3765,72.6311 C52.7375,72.6311 45.7325,71.9011 45.7325,71.0031 C45.7325,70.1041 52.7375,69.3751 61.3765,69.3751 C70.0175,69.3751 77.0215,70.1041 77.0215,71.0031" id="Fill-94" fill="#FCFCFC"></path>
            <polyline id="Fill-96" fill="#92B6EF" points="47.3398 62.2482 77.0218 62.2482 77.0218 71.1152 47.3398 71.1152"></polyline>
            <path d="M47.3398,71.1359 C47.3398,72.0149 53.9848,72.7279 62.1808,72.7279 C70.3768,72.7279 77.0218,72.0149 77.0218,71.1359 L77.0218,62.2479" id="Fill-98" fill="#92B6EF"></path>
            <path d="M77.0215,62.2482 C77.0215,63.1272 70.3765,63.8402 62.1805,63.8402 C53.9845,63.8402 47.3395,63.1272 47.3395,62.2482 C47.3395,61.3682 53.9845,60.6552 62.1805,60.6552 C70.3765,60.6552 77.0215,61.3682 77.0215,62.2482" id="Fill-100" fill="#92B6EF"></path>
            <path d="M47.3398,62.2482 L47.3398,71.1152" id="Fill-102" fill="#92B6EF"></path>
            <polyline id="Fill-104" fill="#92B6EF" points="47.3398 72.3879 77.0218 72.3879 77.0218 81.2549 47.3398 81.2549"></polyline>
            <path d="M47.3398,81.2755 C47.3398,82.1555 53.9848,82.8685 62.1808,82.8685 C70.3768,82.8685 77.0218,82.1555 77.0218,81.2755 L77.0218,72.3875" id="Fill-106" fill="#92B6EF"></path>
            <path d="M77.0215,72.3879 C77.0215,73.2679 70.3765,73.9809 62.1805,73.9809 C53.9845,73.9809 47.3395,73.2679 47.3395,72.3879 C47.3395,71.5079 53.9845,70.7949 62.1805,70.7949 C70.3765,70.7949 77.0215,71.5079 77.0215,72.3879" id="Fill-108" fill="#92B6EF"></path>
            <path d="M47.3398,72.3879 L47.3398,81.2549" id="Fill-110" fill="#92B6EF"></path>
            <polyline id="Fill-112" fill="#92B6EF" points="47.3398 82.5724 77.0218 82.5724 77.0218 91.4394 47.3398 91.4394"></polyline>
            <path d="M47.3398,91.4601 C47.3398,92.3401 53.9848,93.0531 62.1808,93.0531 C70.3768,93.0531 77.0218,92.3401 77.0218,91.4601 L77.0218,82.5721" id="Fill-114" fill="#92B6EF"></path>
            <path d="M77.0215,82.5724 C77.0215,83.4524 70.3765,84.1654 62.1805,84.1654 C53.9845,84.1654 47.3395,83.4524 47.3395,82.5724 C47.3395,81.6934 53.9845,80.9804 62.1805,80.9804 C70.3765,80.9804 77.0215,81.6934 77.0215,82.5724" id="Fill-116" fill="#92B6EF"></path>
            <path d="M47.3398,82.5724 L47.3398,91.4394" id="Fill-118" fill="#92B6EF"></path>
            <path d="M61.377,92.6437 C57.59,92.6437 45.232,92.4907 45.232,90.5157 L45.232,81.4307 L46.232,81.4307 L46.232,90.3797 C47.068,90.9247 52.605,91.6437 61.377,91.6437 C70.149,91.6437 75.687,90.9247 76.522,90.3797 L76.522,81.4307 L77.522,81.4307 L77.522,90.5157 C77.522,92.4907 65.164,92.6437 61.377,92.6437" id="Fill-120" fill="#4A8CDD"></path>
            <path d="M61.377,83.5587 C57.59,83.5587 45.232,83.4057 45.232,81.4307 C45.232,80.8297 45.933,80.5577 46.617,80.3707 L46.881,81.3347 C46.746,81.3717 46.636,81.4067 46.546,81.4377 C48.031,81.9567 53.349,82.5587 61.377,82.5587 C69.405,82.5587 74.724,81.9567 76.208,81.4377 C76.1,81.3997 75.96,81.3567 75.784,81.3107 L76.036,80.3437 C76.771,80.5347 77.522,80.8137 77.522,81.4307 C77.522,83.4057 65.164,83.5587 61.377,83.5587" id="Fill-122" fill="#4A8CDD"></path>
            <path d="M61.377,82.2326 C57.59,82.2326 45.232,82.0796 45.232,80.1046 L45.232,71.0196 L46.232,71.0196 L46.232,79.9696 C47.066,80.5146 52.604,81.2326 61.377,81.2326 C70.15,81.2326 75.688,80.5146 76.522,79.9696 L76.522,71.0196 L77.522,71.0196 L77.522,80.1046 C77.522,82.0796 65.164,82.2326 61.377,82.2326" id="Fill-124" fill="#4A8CDD"></path>
            <path d="M61.377,73.1476 C57.59,73.1476 45.232,72.9946 45.232,71.0196 C45.232,70.3836 45.981,70.0886 47.106,69.8396 L47.321,70.8166 C46.968,70.8946 46.72,70.9666 46.547,71.0266 C48.033,71.5456 53.351,72.1476 61.377,72.1476 C69.404,72.1476 74.722,71.5456 76.207,71.0266 C76.071,70.9796 75.889,70.9246 75.646,70.8666 L75.882,69.8936 C76.733,70.1006 77.522,70.3796 77.522,71.0196 C77.522,72.9946 65.164,73.1476 61.377,73.1476" id="Fill-126" fill="#4A8CDD"></path>
            <path d="M61.377,71.8683 C57.59,71.8683 45.232,71.7153 45.232,69.7403 L45.232,60.6553 L46.232,60.6553 L46.232,69.6043 C47.068,70.1493 52.605,70.8683 61.377,70.8683 C70.149,70.8683 75.687,70.1493 76.522,69.6043 L76.522,60.6553 L77.522,60.6553 L77.522,69.7403 C77.522,71.7153 65.164,71.8683 61.377,71.8683" id="Fill-128" fill="#4A8CDD"></path>
            <path d="M46.5264,60.6554 C47.9844,61.1764 53.3134,61.7834 61.3774,61.7834 C69.4404,61.7834 74.7694,61.1764 76.2274,60.6554 C74.7694,60.1344 69.4394,59.5274 61.3774,59.5274 C53.3144,59.5274 47.9844,60.1344 46.5264,60.6554 M61.3774,62.7834 C57.5894,62.7834 45.2324,62.6304 45.2324,60.6554 C45.2324,58.6804 57.5894,58.5274 61.3774,58.5274 C65.1644,58.5274 77.5214,58.6804 77.5214,60.6554 C77.5214,62.6304 65.1644,62.7834 61.3774,62.7834" id="Fill-130" fill="#4A8CDD"></path>
            <path d="M50.1104,64.1027 C50.1104,64.6387 49.7494,65.0737 49.3024,65.0737 C48.8574,65.0737 48.4954,64.6387 48.4954,64.1027 C48.4954,63.5667 48.8574,63.1317 49.3024,63.1317 C49.7494,63.1317 50.1104,63.5667 50.1104,64.1027" id="Fill-132" fill="#F2F2B1"></path>
            <path d="M50.1104,67.8947 C50.1104,68.4307 49.7494,68.8657 49.3024,68.8657 C48.8574,68.8657 48.4954,68.4307 48.4954,67.8947 C48.4954,67.3587 48.8574,66.9237 49.3024,66.9237 C49.7494,66.9237 50.1104,67.3587 50.1104,67.8947" id="Fill-134" fill="#F2F2B1"></path>
            <path d="M50.1104,64.1027 C50.1104,64.6387 49.7494,65.0737 49.3024,65.0737 C48.8574,65.0737 48.4954,64.6387 48.4954,64.1027 C48.4954,63.5667 48.8574,63.1317 49.3024,63.1317 C49.7494,63.1317 50.1104,63.5667 50.1104,64.1027" id="Fill-136" fill="#F2F2B1"></path>
            <path d="M50.1104,67.8947 C50.1104,68.4307 49.7494,68.8657 49.3024,68.8657 C48.8574,68.8657 48.4954,68.4307 48.4954,67.8947 C48.4954,67.3587 48.8574,66.9237 49.3024,66.9237 C49.7494,66.9237 50.1104,67.3587 50.1104,67.8947" id="Fill-138" fill="#F2F2B1"></path>
            <path d="M50.1104,74.9259 C50.1104,75.4619 49.7494,75.8969 49.3024,75.8969 C48.8574,75.8969 48.4954,75.4619 48.4954,74.9259 C48.4954,74.3899 48.8574,73.9549 49.3024,73.9549 C49.7494,73.9549 50.1104,74.3899 50.1104,74.9259" id="Fill-140" fill="#F2F2B1"></path>
            <path d="M50.1104,78.717 C50.1104,79.253 49.7494,79.688 49.3024,79.688 C48.8574,79.688 48.4954,79.253 48.4954,78.717 C48.4954,78.181 48.8574,77.746 49.3024,77.746 C49.7494,77.746 50.1104,78.181 50.1104,78.717" id="Fill-142" fill="#F2F2B1"></path>
            <path d="M50.1104,85.1545 C50.1104,85.6905 49.7494,86.1255 49.3024,86.1255 C48.8574,86.1255 48.4954,85.6905 48.4954,85.1545 C48.4954,84.6185 48.8574,84.1845 49.3024,84.1845 C49.7494,84.1845 50.1104,84.6185 50.1104,85.1545" id="Fill-144" fill="#F2F2B1"></path>
            <path d="M50.1104,88.9464 C50.1104,89.4824 49.7494,89.9174 49.3024,89.9174 C48.8574,89.9174 48.4954,89.4824 48.4954,88.9464 C48.4954,88.4104 48.8574,87.9754 49.3024,87.9754 C49.7494,87.9754 50.1104,88.4104 50.1104,88.9464" id="Fill-146" fill="#F2F2B1"></path>
        </g>
    </g>
</svg>
